  0
SECTION
  2
HEADER
  9
$ACADVER
  1
AC1024
  9
$ACADMAINTVER
 70
6
  9
$DWGCODEPAGE
  3
ANSI_1252
  9
$LASTSAVEDBY
  1
ezdxf
  9
$INSBASE
 10
0.0
 20
0.0
 30
0.0
  9
$EXTMIN
 10
1e+20
 20
1e+20
 30
1e+20
  9
$EXTMAX
 10
-1e+20
 20
-1e+20
 30
-1e+20
  9
$LIMMIN
 10
0.0
 20
0.0
  9
$LIMMAX
 10
420.0
 20
297.0
  9
$ORTHOMODE
 70
0
  9
$REGENMODE
 70
1
  9
$FILLMODE
 70
1
  9
$QTEXTMODE
 70
0
  9
$MIRRTEXT
 70
1
  9
$LTSCALE
 40
1.0
  9
$ATTMODE
 70
1
  9
$TEXTSIZE
 40
2.5
  9
$TRACEWID
 40
1.0
  9
$TEXTSTYLE
  7
OpenSans
  9
$CLAYER
  8
0
  9
$CELTYPE
  6
ByLayer
  9
$CECOLOR
 62
256
  9
$CELTSCALE
 40
1.0
  9
$DISPSILH
 70
0
  9
$DIMSCALE
 40
1.0
  9
$DIMASZ
 40
0.175
  9
$DIMEXO
 40
0.125
  9
$DIMDLI
 40
3.75
  9
$DIMRND
 40
0.0
  9
$DIMDLE
 40
0.0
  9
$DIMEXE
 40
0.375
  9
$DIMTP
 40
0.0
  9
$DIMTM
 40
0.0
  9
$DIMTXT
 40
0.25
  9
$DIMCEN
 40
2.5
  9
$DIMTSZ
 40
0.0
  9
$DIMTOL
 70
0
  9
$DIMLIM
 70
0
  9
$DIMTIH
 70
0
  9
$DIMTOH
 70
0
  9
$DIMSE1
 70
0
  9
$DIMSE2
 70
0
  9
$DIMTAD
 70
1
  9
$DIMZIN
 70
12
  9
$DIMBLK
  1
ARCHTICK
  9
$DIMASO
 70
1
  9
$DIMSHO
 70
1
  9
$DIMPOST
  1

  9
$DIMAPOST
  1

  9
$DIMALT
 70
0
  9
$DIMALTD
 70
3
  9
$DIMALTF
 40
0.03937007874
  9
$DIMLFAC
 40
100.0
  9
$DIMTOFL
 70
1
  9
$DIMTVP
 40
0.0
  9
$DIMTIX
 70
0
  9
$DIMSOXD
 70
0
  9
$DIMSAH
 70
0
  9
$DIMBLK1
  1

  9
$DIMBLK2
  1

  9
$DIMSTYLE
  2
EZDXF
  9
$DIMCLRD
 70
0
  9
$DIMCLRE
 70
0
  9
$DIMCLRT
 70
0
  9
$DIMTFAC
 40
0.5
  9
$DIMGAP
 40
0.1
  9
$DIMJUST
 70
0
  9
$DIMSD1
 70
0
  9
$DIMSD2
 70
0
  9
$DIMTOLJ
 70
0
  9
$DIMTZIN
 70
8
  9
$DIMALTZ
 70
0
  9
$DIMALTTZ
 70
0
  9
$DIMUPT
 70
1
  9
$DIMDEC
 70
2
  9
$DIMTDEC
 70
2
  9
$DIMALTU
 70
2
  9
$DIMALTTD
 70
3
  9
$DIMTXSTY
  7
OpenSansCondensed-Light
  9
$DIMAUNIT
 70
0
  9
$DIMADEC
 70
2
  9
$DIMALTRND
 40
0.0
  9
$DIMAZIN
 70
3
  9
$DIMDSEP
 70
46
  9
$DIMATFIT
 70
3
  9
$DIMFRAC
 70
0
  9
$DIMLDRBLK
  1

  9
$DIMLUNIT
 70
2
  9
$DIMLWD
 70
-2
  9
$DIMLWE
 70
-2
  9
$DIMTMOVE
 70
2
  9
$DIMFXL
 40
1.0
  9
$DIMFXLON
 70
0
  9
$DIMJOGANG
 40
0.785398163397
  9
$DIMTFILL
 70
0
  9
$DIMTFILLCLR
 70
0
  9
$DIMARCSYM
 70
0
  9
$DIMLTYPE
  6

  9
$DIMLTEX1
  6

  9
$DIMLTEX2
  6

  9
$DIMTXTDIRECTION
 70
0
  9
$LUNITS
 70
2
  9
$LUPREC
 70
4
  9
$SKETCHINC
 40
1.0
  9
$FILLETRAD
 40
10.0
  9
$AUNITS
 70
0
  9
$AUPREC
 70
2
  9
$MENU
  1
.
  9
$ELEVATION
 40
0.0
  9
$PELEVATION
 40
0.0
  9
$THICKNESS
 40
0.0
  9
$LIMCHECK
 70
0
  9
$CHAMFERA
 40
0.0
  9
$CHAMFERB
 40
0.0
  9
$CHAMFERC
 40
0.0
  9
$CHAMFERD
 40
0.0
  9
$SKPOLY
 70
0
  9
$TDCREATE
 40
2461316.9271875
  9
$TDUCREATE
 40
2458532.153996898
  9
$TDUPDATE
 40
2461316.9271875
  9
$TDUUPDATE
 40
2458532.1544311
  9
$TDINDWG
 40
0.0
  9
$TDUSRTIMER
 40
0.0
  9
$USRTIMER
 70
1
  9
$ANGBASE
 50
0.0
  9
$ANGDIR
 70
0
  9
$PDMODE
 70
0
  9
$PDSIZE
 40
0.0
  9
$PLINEWID
 40
0.0
  9
$SPLFRAME
 70
0
  9
$SPLINETYPE
 70
6
  9
$SPLINESEGS
 70
8
  9
$HANDSEED
  5
A3
  9
$SURFTAB1
 70
6
  9
$SURFTAB2
 70
6
  9
$SURFTYPE
 70
6
  9
$SURFU
 70
6
  9
$SURFV
 70
6
  9
$UCSBASE
  2

  9
$UCSNAME
  2

  9
$UCSORG
 10
0.0
 20
0.0
 30
0.0
  9
$UCSXDIR
 10
1.0
 20
0.0
 30
0.0
  9
$UCSYDIR
 10
0.0
 20
1.0
 30
0.0
  9
$UCSORTHOREF
  2

  9
$UCSORTHOVIEW
 70
0
  9
$UCSORGTOP
 10
0.0
 20
0.0
 30
0.0
  9
$UCSORGBOTTOM
 10
0.0
 20
0.0
 30
0.0
  9
$UCSORGLEFT
 10
0.0
 20
0.0
 30
0.0
  9
$UCSORGRIGHT
 10
0.0
 20
0.0
 30
0.0
  9
$UCSORGFRONT
 10
0.0
 20
0.0
 30
0.0
  9
$UCSORGBACK
 10
0.0
 20
0.0
 30
0.0
  9
$PUCSBASE
  2

  9
$PUCSNAME
  2

  9
$PUCSORG
 10
0.0
 20
0.0
 30
0.0
  9
$PUCSXDIR
 10
1.0
 20
0.0
 30
0.0
  9
$PUCSYDIR
 10
0.0
 20
1.0
 30
0.0
  9
$PUCSORTHOREF
  2

  9
$PUCSORTHOVIEW
 70
0
  9
$PUCSORGTOP
 10
0.0
 20
0.0
 30
0.0
  9
$PUCSORGBOTTOM
 10
0.0
 20
0.0
 30
0.0
  9
$PUCSORGLEFT
 10
0.0
 20
0.0
 30
0.0
  9
$PUCSORGRIGHT
 10
0.0
 20
0.0
 30
0.0
  9
$PUCSORGFRONT
 10
0.0
 20
0.0
 30
0.0
  9
$PUCSORGBACK
 10
0.0
 20
0.0
 30
0.0
  9
$USERI1
 70
0
  9
$USERI2
 70
0
  9
$USERI3
 70
0
  9
$USERI4
 70
0
  9
$USERI5
 70
0
  9
$USERR1
 40
0.0
  9
$USERR2
 40
0.0
  9
$USERR3
 40
0.0
  9
$USERR4
 40
0.0
  9
$USERR5
 40
0.0
  9
$WORLDVIEW
 70
1
  9
$SHADEDGE
 70
3
  9
$SHADEDIF
 70
70
  9
$TILEMODE
 70
1
  9
$MAXACTVP
 70
64
  9
$PINSBASE
 10
0.0
 20
0.0
 30
0.0
  9
$PLIMCHECK
 70
0
  9
$PEXTMIN
 10
1e+20
 20
1e+20
 30
1e+20
  9
$PEXTMAX
 10
-1e+20
 20
-1e+20
 30
-1e+20
  9
$PLIMMIN
 10
0.0
 20
0.0
  9
$PLIMMAX
 10
420.0
 20
297.0
  9
$UNITMODE
 70
0
  9
$VISRETAIN
 70
1
  9
$PLINEGEN
 70
0
  9
$PSLTSCALE
 70
1
  9
$TREEDEPTH
 70
3020
  9
$CMLSTYLE
  2
Standard
  9
$CMLJUST
 70
0
  9
$CMLSCALE
 40
20.0
  9
$PROXYGRAPHICS
 70
1
  9
$MEASUREMENT
 70
1
  9
$CELWEIGHT
370
-1
  9
$ENDCAPS
280
0
  9
$JOINSTYLE
280
0
  9
$LWDISPLAY
290
0
  9
$INSUNITS
 70
4
  9
$HYPERLINKBASE
  1

  9
$STYLESHEET
  1

  9
$XEDIT
290
1
  9
$CEPSNTYPE
380
0
  9
$PSTYLEMODE
290
1
  9
$FINGERPRINTGUID
  2
{5547E732-BE8E-408B-BB5C-93C96F0F311B}
  9
$VERSIONGUID
  2
{46D19ECF-B4DD-407D-947C-C320A5AD53FA}
  9
$EXTNAMES
290
1
  9
$PSVPSCALE
 40
0.0
  9
$OLESTARTUP
290
0
  9
$SORTENTS
280
127
  9
$INDEXCTL
280
0
  9
$HIDETEXT
280
1
  9
$XCLIPFRAME
280
1
  9
$HALOGAP
280
0
  9
$OBSCOLOR
 70
257
  9
$OBSLTYPE
280
0
  9
$INTERSECTIONDISPLAY
280
0
  9
$INTERSECTIONCOLOR
 70
257
  9
$DIMASSOC
280
2
  9
$PROJECTNAME
  1

  9
$CAMERADISPLAY
290
0
  9
$LENSLENGTH
 40
50.0
  9
$CAMERAHEIGHT
 40
0.0
  9
$STEPSPERSEC
 40
24.0
  9
$STEPSIZE
 40
100.0
  9
$3DDWFPREC
 40
2.0
  9
$PSOLWIDTH
 40
0.005
  9
$PSOLHEIGHT
 40
0.08
  9
$LOFTANG1
 40
1.570796326795
  9
$LOFTANG2
 40
1.570796326795
  9
$LOFTMAG1
 40
0.0
  9
$LOFTMAG2
 40
0.0
  9
$LOFTPARAM
 70
7
  9
$LOFTNORMALS
280
1
  9
$LATITUDE
 40
37.795
  9
$LONGITUDE
 40
-122.394
  9
$NORTHDIRECTION
 40
0.0
  9
$TIMEZONE
 70
-8000
  9
$LIGHTGLYPHDISPLAY
280
1
  9
$TILEMODELIGHTSYNCH
280
1
  9
$CMATERIAL
347
20
  9
$SOLIDHIST
280
0
  9
$SHOWHIST
280
1
  9
$DWFFRAME
280
2
  9
$DGNFRAME
280
2
  9
$REALWORLDSCALE
290
1
  9
$INTERFERECOLOR
 62
256
  9
$CSHADOW
280
0
  9
$SHADOWPLANELOCATION
 40
0.0
  0
ENDSEC
  0
SECTION
  2
CLASSES
  0
CLASS
  1
ACDBDICTIONARYWDFLT
  2
AcDbDictionaryWithDefault
  3
ObjectDBX Classes
 90
0
 91
0
280
0
281
0
  0
CLASS
  1
SUN
  2
AcDbSun
  3
SCENEOE
 90
1153
 91
0
280
0
281
0
  0
CLASS
  1
VISUALSTYLE
  2
AcDbVisualStyle
  3
ObjectDBX Classes
 90
4095
 91
0
280
0
281
0
  0
CLASS
  1
MATERIAL
  2
AcDbMaterial
  3
ObjectDBX Classes
 90
1153
 91
0
280
0
281
0
  0
CLASS
  1
SCALE
  2
AcDbScale
  3
ObjectDBX Classes
 90
1153
 91
0
280
0
281
0
  0
CLASS
  1
TABLESTYLE
  2
AcDbTableStyle
  3
ObjectDBX Classes
 90
4095
 91
0
280
0
281
0
  0
CLASS
  1
MLEADERSTYLE
  2
AcDbMLeaderStyle
  3
ACDB_MLEADERSTYLE_CLASS
 90
4095
 91
0
280
0
281
0
  0
CLASS
  1
DICTIONARYVAR
  2
AcDbDictionaryVar
  3
ObjectDBX Classes
 90
0
 91
0
280
0
281
0
  0
CLASS
  1
CELLSTYLEMAP
  2
AcDbCellStyleMap
  3
ObjectDBX Classes
 90
1152
 91
0
280
0
281
0
  0
CLASS
  1
MENTALRAYRENDERSETTINGS
  2
AcDbMentalRayRenderSettings
  3
SCENEOE
 90
1024
 91
0
280
0
281
0
  0
CLASS
  1
ACDBDETAILVIEWSTYLE
  2
AcDbDetailViewStyle
  3
ObjectDBX Classes
 90
1025
 91
0
280
0
281
0
  0
CLASS
  1
ACDBSECTIONVIEWSTYLE
  2
AcDbSectionViewStyle
  3
ObjectDBX Classes
 90
1025
 91
0
280
0
281
0
  0
CLASS
  1
RASTERVARIABLES
  2
AcDbRasterVariables
  3
ISM
 90
0
 91
0
280
0
281
0
  0
CLASS
  1
LAYOUT
  2
AcDbLayout
  3
ObjectDBX Classes
 90
0
 91
0
280
0
281
0
  0
CLASS
  1
ACDBPLACEHOLDER
  2
AcDbPlaceHolder
  3
ObjectDBX Classes
 90
0
 91
0
280
0
281
0
  0
ENDSEC
  0
SECTION
  2
TABLES
  0
TABLE
  2
VPORT
  5
8
330
0
100
AcDbSymbolTable
 70
1
  0
VPORT
  5
23
330
8
100
AcDbSymbolTableRecord
100
AcDbViewportTableRecord
  2
*Active
 70
0
 10
0.0
 20
0.0
 11
1.0
 21
1.0
 12
0.0
 22
0.0
 13
0.0
 23
0.0
 14
0.5
 24
0.5
 15
0.5
 25
0.5
 16
0.0
 26
0.0
 36
1.0
 17
0.0
 27
0.0
 37
0.0
 40
1000.0
 41
1.34
 42
50.0
 43
0.0
 44
0.0
 50
0.0
 51
0.0
 71
0
 72
1000
 73
1
 74
3
 75
0
 76
0
 77
0
 78
0
281
0
 65
0
146
0.0
  0
ENDTAB
  0
TABLE
  2
LTYPE
  5
2
330
0
100
AcDbSymbolTable
 70
21
  0
LTYPE
  5
24
330
2
100
AcDbSymbolTableRecord
100
AcDbLinetypeTableRecord
  2
ByBlock
 70
0
  3

 72
65
 73
0
 40
0.0
  0
LTYPE
  5
25
330
2
100
AcDbSymbolTableRecord
100
AcDbLinetypeTableRecord
  2
ByLayer
 70
0
  3

 72
65
 73
0
 40
0.0
  0
LTYPE
  5
26
330
2
100
AcDbSymbolTableRecord
100
AcDbLinetypeTableRecord
  2
Continuous
 70
0
  3

 72
65
 73
0
 40
0.0
  0
LTYPE
  5
2F
330
2
100
AcDbSymbolTableRecord
100
AcDbLinetypeTableRecord
  2
CENTER
 70
0
  3
Center ____ _ ____ _ ____ _ ____ _ ____ _ ____
 72
65
 73
4
 40
5.08
 49
3.175
 74
0
 49
-0.635
 74
0
 49
0.635
 74
0
 49
-0.635
 74
0
  0
LTYPE
  5
30
330
2
100
AcDbSymbolTableRecord
100
AcDbLinetypeTableRecord
  2
CENTERX2
 70
0
  3
Center (2x) ________  __  ________  __  ________
 72
65
 73
4
 40
8.89
 49
6.35
 74
0
 49
-0.635
 74
0
 49
1.27
 74
0
 49
-0.635
 74
0
  0
LTYPE
  5
31
330
2
100
AcDbSymbolTableRecord
100
AcDbLinetypeTableRecord
  2
CENTER2
 70
0
  3
Center (.5x) ____ _ ____ _ ____ _ ____ _ ____
 72
65
 73
4
 40
2.54
 49
1.587
 74
0
 49
-0.318
 74
0
 49
0.318
 74
0
 49
-0.318
 74
0
  0
LTYPE
  5
32
330
2
100
AcDbSymbolTableRecord
100
AcDbLinetypeTableRecord
  2
DASHED
 70
0
  3
Dashed __ __ __ __ __ __ __ __ __ __ __ __ __ _
 72
65
 73
2
 40
1.524
 49
1.27
 74
0
 49
-0.254
 74
0
  0
LTYPE
  5
33
330
2
100
AcDbSymbolTableRecord
100
AcDbLinetypeTableRecord
  2
DASHEDX2
 70
0
  3
Dashed (2x) ____  ____  ____  ____  ____  ____
 72
65
 73
2
 40
3.048
 49
2.54
 74
0
 49
-0.508
 74
0
  0
LTYPE
  5
34
330
2
100
AcDbSymbolTableRecord
100
AcDbLinetypeTableRecord
  2
DASHED2
 70
0
  3
Dashed (.5x) _ _ _ _ _ _ _ _ _ _ _ _ _ _
 72
65
 73
2
 40
0.762
 49
0.635
 74
0
 49
-0.127
 74
0
  0
LTYPE
  5
35
330
2
100
AcDbSymbolTableRecord
100
AcDbLinetypeTableRecord
  2
PHANTOM
 70
0
  3
Phantom ______  __  __  ______  __  __  ______
 72
65
 73
6
 40
6.35
 49
3.175
 74
0
 49
-0.635
 74
0
 49
0.635
 74
0
 49
-0.635
 74
0
 49
0.635
 74
0
 49
-0.635
 74
0
  0
LTYPE
  5
36
330
2
100
AcDbSymbolTableRecord
100
AcDbLinetypeTableRecord
  2
PHANTOMX2
 70
0
  3
Phantom (2x)____________    ____    ____    ____________
 72
65
 73
6
 40
10.795
 49
6.35
 74
0
 49
-0.635
 74
0
 49
1.27
 74
0
 49
-0.635
 74
0
 49
1.27
 74
0
 49
-0.635
 74
0
  0
LTYPE
  5
37
330
2
100
AcDbSymbolTableRecord
100
AcDbLinetypeTableRecord
  2
PHANTOM2
 70
0
  3
Phantom (.5x) ___ _ _ ___ _ _ ___ _ _ ___ _ _ ___
 72
65
 73
6
 40
3.175
 49
1.587
 74
0
 49
-0.318
 74
0
 49
0.318
 74
0
 49
-0.318
 74
0
 49
0.318
 74
0
 49
-0.318
 74
0
  0
LTYPE
  5
38
330
2
100
AcDbSymbolTableRecord
100
AcDbLinetypeTableRecord
  2
DASHDOT
 70
0
  3
Dash dot __ . __ . __ . __ . __ . __ . __ . __
 72
65
 73
4
 40
3.556
 49
2.54
 74
0
 49
-0.508
 74
0
 49
0.0
 74
0
 49
-0.508
 74
0
  0
LTYPE
  5
39
330
2
100
AcDbSymbolTableRecord
100
AcDbLinetypeTableRecord
  2
DASHDOTX2
 70
0
  3
Dash dot (2x) ____  .  ____  .  ____  .  ____
 72
65
 73
4
 40
6.096
 49
5.08
 74
0
 49
-0.508
 74
0
 49
0.0
 74
0
 49
-0.508
 74
0
  0
LTYPE
  5
3A
330
2
100
AcDbSymbolTableRecord
100
AcDbLinetypeTableRecord
  2
DASHDOT2
 70
0
  3
Dash dot (.5x) _ . _ . _ . _ . _ . _ . _ . _
 72
65
 73
4
 40
1.778
 49
1.27
 74
0
 49
-0.254
 74
0
 49
0.0
 74
0
 49
-0.254
 74
0
  0
LTYPE
  5
3B
330
2
100
AcDbSymbolTableRecord
100
AcDbLinetypeTableRecord
  2
DOT
 70
0
  3
Dot .  .  .  .  .  .  .  .  .  .  .  .  .  .  .  .
 72
65
 73
2
 40
0.508
 49
0.0
 74
0
 49
-0.508
 74
0
  0
LTYPE
  5
3C
330
2
100
AcDbSymbolTableRecord
100
AcDbLinetypeTableRecord
  2
DOTX2
 70
0
  3
Dot (2x) .    .    .    .    .    .    .    . 
 72
65
 73
2
 40
1.016
 49
0.0
 74
0
 49
-1.016
 74
0
  0
LTYPE
  5
3D
330
2
100
AcDbSymbolTableRecord
100
AcDbLinetypeTableRecord
  2
DOT2
 70
0
  3
Dot (.5) . . . . . . . . . . . . . . . . . . . 
 72
65
 73
2
 40
0.254
 49
0.0
 74
0
 49
-0.254
 74
0
  0
LTYPE
  5
3E
330
2
100
AcDbSymbolTableRecord
100
AcDbLinetypeTableRecord
  2
DIVIDE
 70
0
  3
Divide __ . . __ . . __ . . __ . . __ . . __
 72
65
 73
6
 40
4.064
 49
2.54
 74
0
 49
-0.508
 74
0
 49
0.0
 74
0
 49
-0.508
 74
0
 49
0.0
 74
0
 49
-0.508
 74
0
  0
LTYPE
  5
3F
330
2
100
AcDbSymbolTableRecord
100
AcDbLinetypeTableRecord
  2
DIVIDEX2
 70
0
  3
Divide (2x) ____  . .  ____  . .  ____  . .  ____
 72
65
 73
6
 40
6.604
 49
5.08
 74
0
 49
-0.508
 74
0
 49
0.0
 74
0
 49
-0.508
 74
0
 49
0.0
 74
0
 49
-0.508
 74
0
  0
LTYPE
  5
40
330
2
100
AcDbSymbolTableRecord
100
AcDbLinetypeTableRecord
  2
DIVIDE2
 70
0
  3
Divide(.5x) _ . _ . _ . _ . _ . _ . _ . _
 72
65
 73
6
 40
2.032
 49
1.27
 74
0
 49
-0.254
 74
0
 49
0.0
 74
0
 49
-0.254
 74
0
 49
0.0
 74
0
 49
-0.254
 74
0
  0
ENDTAB
  0
TABLE
  2
LAYER
  5
1
330
0
100
AcDbSymbolTable
 70
5
  0
LAYER
  5
27
330
1
100
AcDbSymbolTableRecord
100
AcDbLayerTableRecord
  2
0
 70
0
 62
7
  6
Continuous
370
-3
390
13
347
21
  0
LAYER
  5
28
330
1
100
AcDbSymbolTableRecord
100
AcDbLayerTableRecord
  2
Defpoints
 70
0
 62
7
  6
Continuous
290
0
370
-3
390
13
347
21
  0
LAYER
  5
8A
330
1
100
AcDbSymbolTableRecord
100
AcDbLayerTableRecord
  2
LOGO
 70
0
 62
7
  6
Continuous
370
-3
390
13
347
21
  0
LAYER
  5
8B
330
1
100
AcDbSymbolTableRecord
100
AcDbLayerTableRecord
  2
REF_100ER_KREIS
 70
0
 62
1
  6
Continuous
370
-3
390
13
347
21
  0
LAYER
  5
8C
330
1
100
AcDbSymbolTableRecord
100
AcDbLayerTableRecord
  2
REF_100ER_MITTE
 70
0
 62
1
  6
Continuous
370
-3
390
13
347
21
  0
ENDTAB
  0
TABLE
  2
STYLE
  5
5
330
0
100
AcDbSymbolTable
 70
26
  0
STYLE
  5
29
330
5
100
AcDbSymbolTableRecord
100
AcDbTextStyleTableRecord
  2
Standard
 70
0
 40
0.0
 41
1.0
 50
0.0
 71
0
 42
2.5
  3
txt
  4

  0
STYLE
  5
41
330
5
100
AcDbSymbolTableRecord
100
AcDbTextStyleTableRecord
  2
OpenSans-Light
 70
0
 40
0.0
 41
1.0
 50
0.0
 71
0
 42
2.5
  3
OpenSans-Light.ttf
  4

  0
STYLE
  5
42
330
5
100
AcDbSymbolTableRecord
100
AcDbTextStyleTableRecord
  2
OpenSans-Light-Italic
 70
0
 40
0.0
 41
1.0
 50
0.0
 71
0
 42
2.5
  3
OpenSans-LightItalic.ttf
  4

  0
STYLE
  5
43
330
5
100
AcDbSymbolTableRecord
100
AcDbTextStyleTableRecord
  2
OpenSans
 70
0
 40
0.0
 41
1.0
 50
0.0
 71
0
 42
2.5
  3
OpenSans-Regular.ttf
  4

  0
STYLE
  5
44
330
5
100
AcDbSymbolTableRecord
100
AcDbTextStyleTableRecord
  2
OpenSans-Italic
 70
0
 40
0.0
 41
1.0
 50
0.0
 71
0
 42
2.5
  3
OpenSans-Italic.ttf
  4

  0
STYLE
  5
45
330
5
100
AcDbSymbolTableRecord
100
AcDbTextStyleTableRecord
  2
OpenSans-SemiBold
 70
0
 40
0.0
 41
1.0
 50
0.0
 71
0
 42
2.5
  3
OpenSans-SemiBold.ttf
  4

  0
STYLE
  5
46
330
5
100
AcDbSymbolTableRecord
100
AcDbTextStyleTableRecord
  2
OpenSans-SemiBoldItalic
 70
0
 40
0.0
 41
1.0
 50
0.0
 71
0
 42
2.5
  3
OpenSans-SemiBoldItalic.ttf
  4

  0
STYLE
  5
47
330
5
100
AcDbSymbolTableRecord
100
AcDbTextStyleTableRecord
  2
OpenSans-Bold
 70
0
 40
0.0
 41
1.0
 50
0.0
 71
0
 42
2.5
  3
OpenSans-Bold.ttf
  4

  0
STYLE
  5
48
330
5
100
AcDbSymbolTableRecord
100
AcDbTextStyleTableRecord
  2
OpenSans-BoldItalic
 70
0
 40
0.0
 41
1.0
 50
0.0
 71
0
 42
2.5
  3
OpenSans-BoldItalic.ttf
  4

  0
STYLE
  5
49
330
5
100
AcDbSymbolTableRecord
100
AcDbTextStyleTableRecord
  2
OpenSans-ExtraBold
 70
0
 40
0.0
 41
1.0
 50
0.0
 71
0
 42
2.5
  3
OpenSans-ExtraBold.ttf
  4

  0
STYLE
  5
4A
330
5
100
AcDbSymbolTableRecord
100
AcDbTextStyleTableRecord
  2
OpenSans-ExtraBoldItalic
 70
0
 40
0.0
 41
1.0
 50
0.0
 71
0
 42
2.5
  3
OpenSans-ExtraBoldItalic.ttf
  4

  0
STYLE
  5
4B
330
5
100
AcDbSymbolTableRecord
100
AcDbTextStyleTableRecord
  2
OpenSansCondensed-Bold
 70
0
 40
0.0
 41
1.0
 50
0.0
 71
0
 42
2.5
  3
OpenSansCondensed-Bold.ttf
  4

  0
STYLE
  5
4C
330
5
100
AcDbSymbolTableRecord
100
AcDbTextStyleTableRecord
  2
OpenSansCondensed-Light
 70
0
 40
0.0
 41
1.0
 50
0.0
 71
0
 42
2.5
  3
OpenSansCondensed-Light.ttf
  4

  0
STYLE
  5
4D
330
5
100
AcDbSymbolTableRecord
100
AcDbTextStyleTableRecord
  2
OpenSansCondensed-Italic
 70
0
 40
0.0
 41
1.0
 50
0.0
 71
0
 42
2.5
  3
OpenSansCondensed-LightItalic.ttf
  4

  0
STYLE
  5
4E
330
5
100
AcDbSymbolTableRecord
100
AcDbTextStyleTableRecord
  2
LiberationSans
 70
0
 40
0.0
 41
1.0
 50
0.0
 71
0
 42
2.5
  3
LiberationSans-Regular.ttf
  4

  0
STYLE
  5
4F
330
5
100
AcDbSymbolTableRecord
100
AcDbTextStyleTableRecord
  2
LiberationSans-Bold
 70
0
 40
0.0
 41
1.0
 50
0.0
 71
0
 42
2.5
  3
LiberationSans-Bold.ttf
  4

  0
STYLE
  5
50
330
5
100
AcDbSymbolTableRecord
100
AcDbTextStyleTableRecord
  2
LiberationSans-BoldItalic
 70
0
 40
0.0
 41
1.0
 50
0.0
 71
0
 42
2.5
  3
LiberationSans-BoldItalic.ttf
  4

  0
STYLE
  5
51
330
5
100
AcDbSymbolTableRecord
100
AcDbTextStyleTableRecord
  2
LiberationSans-Italic
 70
0
 40
0.0
 41
1.0
 50
0.0
 71
0
 42
2.5
  3
LiberationSans-Italic.ttf
  4

  0
STYLE
  5
52
330
5
100
AcDbSymbolTableRecord
100
AcDbTextStyleTableRecord
  2
LiberationSerif
 70
0
 40
0.0
 41
1.0
 50
0.0
 71
0
 42
2.5
  3
LiberationSerif-Regular.ttf
  4

  0
STYLE
  5
53
330
5
100
AcDbSymbolTableRecord
100
AcDbTextStyleTableRecord
  2
LiberationSerif-Bold
 70
0
 40
0.0
 41
1.0
 50
0.0
 71
0
 42
2.5
  3
LiberationSerif-Bold.ttf
  4

  0
STYLE
  5
54
330
5
100
AcDbSymbolTableRecord
100
AcDbTextStyleTableRecord
  2
LiberationSerif-BoldItalic
 70
0
 40
0.0
 41
1.0
 50
0.0
 71
0
 42
2.5
  3
LiberationSerif-BoldItalic.ttf
  4

  0
STYLE
  5
55
330
5
100
AcDbSymbolTableRecord
100
AcDbTextStyleTableRecord
  2
LiberationSerif-Italic
 70
0
 40
0.0
 41
1.0
 50
0.0
 71
0
 42
2.5
  3
LiberationSerif-Italic.ttf
  4

  0
STYLE
  5
56
330
5
100
AcDbSymbolTableRecord
100
AcDbTextStyleTableRecord
  2
LiberationMono
 70
0
 40
0.0
 41
1.0
 50
0.0
 71
0
 42
2.5
  3
LiberationMono-Regular.ttf
  4

  0
STYLE
  5
57
330
5
100
AcDbSymbolTableRecord
100
AcDbTextStyleTableRecord
  2
LiberationMono-Bold
 70
0
 40
0.0
 41
1.0
 50
0.0
 71
0
 42
2.5
  3
LiberationMono-Bold.ttf
  4

  0
STYLE
  5
58
330
5
100
AcDbSymbolTableRecord
100
AcDbTextStyleTableRecord
  2
LiberationMono-BoldItalic
 70
0
 40
0.0
 41
1.0
 50
0.0
 71
0
 42
2.5
  3
LiberationMono-BoldItalic.ttf
  4

  0
STYLE
  5
59
330
5
100
AcDbSymbolTableRecord
100
AcDbTextStyleTableRecord
  2
LiberationMono-Italic
 70
0
 40
0.0
 41
1.0
 50
0.0
 71
0
 42
2.5
  3
LiberationMono-Italic.ttf
  4

  0
ENDTAB
  0
TABLE
  2
VIEW
  5
7
330
0
100
AcDbSymbolTable
 70
0
  0
ENDTAB
  0
TABLE
  2
UCS
  5
6
330
0
100
AcDbSymbolTable
 70
0
  0
ENDTAB
  0
TABLE
  2
APPID
  5
3
330
0
100
AcDbSymbolTable
 70
3
  0
APPID
  5
2A
330
3
100
AcDbSymbolTableRecord
100
AcDbRegAppTableRecord
  2
ACAD
 70
0
  0
APPID
  5
A0
330
3
100
AcDbSymbolTableRecord
100
AcDbRegAppTableRecord
  2
HATCHBACKGROUNDCOLOR
 70
0
  0
APPID
  5
A1
330
3
100
AcDbSymbolTableRecord
100
AcDbRegAppTableRecord
  2
EZDXF
 70
0
  0
ENDTAB
  0
TABLE
  2
DIMSTYLE
  5
4
330
0
100
AcDbSymbolTable
 70
12
100
AcDbDimStyleTable
  0
DIMSTYLE
105
2B
330
4
100
AcDbSymbolTableRecord
100
AcDbDimStyleTableRecord
  2
Standard
 70
0
 40
1.0
 41
2.5
 42
0.625
 43
3.75
 44
1.25
 45
0.0
 46
0.0
 47
0.0
 48
0.0
 49
2.5
140
2.5
141
2.5
142
0.0
143
0.03937007874
144
1.0
145
0.0
146
1.0
147
0.625
148
0.0
 69
0
 70
0
 71
0
 72
0
 73
0
 74
0
 75
0
 76
0
 77
1
 78
8
 79
3
170
0
171
3
172
1
173
0
174
0
175
0
176
0
177
0
178
0
179
2
271
2
272
2
273
2
274
3
275
0
276
0
277
2
278
44
279
0
280
0
281
0
282
0
283
0
284
8
285
0
286
0
288
0
289
3
290
0
371
-2
372
-2
  0
DIMSTYLE
105
73
330
4
100
AcDbSymbolTableRecord
100
AcDbDimStyleTableRecord
  2
EZDXF
 70
0
 40
1.0
 41
0.175
 42
0.125
 43
3.75
 44
0.375
 45
0.0
 46
0.0
 47
0.0
 48
0.0
 49
2.5
140
0.25
141
2.5
142
0.0
143
0.03937007874
144
100.0
145
0.0
146
0.5
147
0.1
148
0.0
 69
0
 70
0
 71
0
 72
0
 73
0
 74
0
 75
0
 76
0
 77
1
 78
12
 79
3
170
0
171
3
172
1
173
0
174
0
175
0
176
0
177
0
178
0
179
2
271
2
272
2
273
2
274
3
275
0
276
0
277
2
278
46
279
2
280
0
281
0
282
0
283
0
284
8
285
0
286
0
288
1
289
3
290
0
340
4C
342
74
371
-2
372
-2
  0
DIMSTYLE
105
7C
330
4
100
AcDbSymbolTableRecord
100
AcDbDimStyleTableRecord
  2
EZ_M_100_H25_CM
 70
0
 40
1.0
 41
0.25
 42
0.125
 43
3.75
 44
0.375
 45
0.0
 46
0.0
 47
0.0
 48
0.0
 49
2.5
140
0.25
141
2.5
142
0.125
143
0.03937007874
144
100.0
145
0.0
146
0.5
147
0.1
148
0.0
 69
0
 70
0
 71
0
 72
0
 73
0
 74
0
 75
0
 76
0
 77
1
 78
12
 79
3
170
0
171
3
172
1
173
0
174
0
175
0
176
0
177
0
178
0
179
2
271
2
272
2
273
2
274
3
275
0
276
0
277
2
278
46
279
2
280
0
281
0
282
0
283
0
284
8
285
0
286
0
288
1
289
3
290
0
340
4C
371
-2
372
-2
  0
DIMSTYLE
105
7D
330
4
100
AcDbSymbolTableRecord
100
AcDbDimStyleTableRecord
  2
EZ_M_50_H25_CM
 70
0
 40
1.0
 41
0.125
 42
0.0625
 43
3.75
 44
0.1875
 45
0.0
 46
0.0
 47
0.0
 48
0.0
 49
2.5
140
0.125
141
2.5
142
0.0625
143
0.03937007874
144
100.0
145
0.0
146
0.5
147
0.05
148
0.0
 69
0
 70
0
 71
0
 72
0
 73
0
 74
0
 75
0
 76
0
 77
1
 78
12
 79
3
170
0
171
3
172
1
173
0
174
0
175
0
176
0
177
0
178
0
179
2
271
2
272
2
273
2
274
3
275
0
276
0
277
2
278
46
279
2
280
0
281
0
282
0
283
0
284
8
285
0
286
0
288
1
289
3
290
0
340
4C
371
-2
372
-2
  0
DIMSTYLE
105
7E
330
4
100
AcDbSymbolTableRecord
100
AcDbDimStyleTableRecord
  2
EZ_M_25_H25_CM
 70
0
 40
1.0
 41
0.0625
 42
0.03125
 43
3.75
 44
0.09375
 45
0.0
 46
0.0
 47
0.0
 48
0.0
 49
2.5
140
0.0625
141
2.5
142
0.03125
143
0.03937007874
144
100.0
145
0.0
146
0.5
147
0.025
148
0.0
 69
0
 70
0
 71
0
 72
0
 73
0
 74
0
 75
0
 76
0
 77
1
 78
12
 79
3
170
0
171
3
172
1
173
0
174
0
175
0
176
0
177
0
178
0
179
2
271
2
272
2
273
2
274
3
275
0
276
0
277
2
278
46
279
2
280
0
281
0
282
0
283
0
284
8
285
0
286
0
288
1
289
3
290
0
340
4C
371
-2
372
-2
  0
DIMSTYLE
105
7F
330
4
100
AcDbSymbolTableRecord
100
AcDbDimStyleTableRecord
  2
EZ_M_20_H25_CM
 70
0
 40
1.0
 41
0.05
 42
0.025
 43
3.75
 44
0.07500000000000001
 45
0.0
 46
0.0
 47
0.0
 48
0.0
 49
2.5
140
0.05
141
2.5
142
0.025
143
0.03937007874
144
100.0
145
0.0
146
0.5
147
0.020000000000000004
148
0.0
 69
0
 70
0
 71
0
 72
0
 73
0
 74
0
 75
0
 76
0
 77
1
 78
12
 79
3
170
0
171
3
172
1
173
0
174
0
175
0
176
0
177
0
178
0
179
2
271
2
272
2
273
2
274
3
275
0
276
0
277
2
278
46
279
2
280
0
281
0
282
0
283
0
284
8
285
0
286
0
288
1
289
3
290
0
340
4C
371
-2
372
-2
  0
DIMSTYLE
105
80
330
4
100
AcDbSymbolTableRecord
100
AcDbDimStyleTableRecord
  2
EZ_M_10_H25_CM
 70
0
 40
1.0
 41
0.025
 42
0.0125
 43
3.75
 44
0.037500000000000006
 45
0.0
 46
0.0
 47
0.0
 48
0.0
 49
2.5
140
0.025
141
2.5
142
0.0125
143
0.03937007874
144
100.0
145
0.0
146
0.5
147
0.010000000000000002
148
0.0
 69
0
 70
0
 71
0
 72
0
 73
0
 74
0
 75
0
 76
0
 77
1
 78
12
 79
3
170
0
171
3
172
1
173
0
174
0
175
0
176
0
177
0
178
0
179
2
271
2
272
2
273
2
274
3
275
0
276
0
277
2
278
46
279
2
280
0
281
0
282
0
283
0
284
8
285
0
286
0
288
1
289
3
290
0
340
4C
371
-2
372
-2
  0
DIMSTYLE
105
81
330
4
100
AcDbSymbolTableRecord
100
AcDbDimStyleTableRecord
  2
EZ_M_5_H25_CM
 70
0
 40
1.0
 41
0.0125
 42
0.00625
 43
3.75
 44
0.018750000000000003
 45
0.0
 46
0.0
 47
0.0
 48
0.0
 49
2.5
140
0.0125
141
2.5
142
0.00625
143
0.03937007874
144
100.0
145
0.0
146
0.5
147
0.005000000000000001
148
0.0
 69
0
 70
0
 71
0
 72
0
 73
0
 74
0
 75
0
 76
0
 77
1
 78
12
 79
3
170
0
171
3
172
1
173
0
174
0
175
0
176
0
177
0
178
0
179
2
271
2
272
2
273
2
274
3
275
0
276
0
277
2
278
46
279
2
280
0
281
0
282
0
283
0
284
8
285
0
286
0
288
1
289
3
290
0
340
4C
371
-2
372
-2
  0
DIMSTYLE
105
82
330
4
100
AcDbSymbolTableRecord
100
AcDbDimStyleTableRecord
  2
EZ_M_1_H25_CM
 70
0
 40
1.0
 41
0.0025
 42
0.00125
 43
3.75
 44
0.00375
 45
0.0
 46
0.0
 47
0.0
 48
0.0
 49
2.5
140
0.0025
141
2.5
142
0.00125
143
0.03937007874
144
100.0
145
0.0
146
0.5
147
0.001
148
0.0
 69
0
 70
0
 71
0
 72
0
 73
0
 74
0
 75
0
 76
0
 77
1
 78
12
 79
3
170
0
171
3
172
1
173
0
174
0
175
0
176
0
177
0
178
0
179
2
271
2
272
2
273
2
274
3
275
0
276
0
277
2
278
46
279
2
280
0
281
0
282
0
283
0
284
8
285
0
286
0
288
1
289
3
290
0
340
4C
371
-2
372
-2
  0
DIMSTYLE
105
83
330
4
100
AcDbSymbolTableRecord
100
AcDbDimStyleTableRecord
  2
EZ_RADIUS
 70
0
 40
1.0
 41
0.25
 42
0.125
 43
3.75
 44
0.375
 45
0.0
 46
0.0
 47
0.0
 48
0.0
 49
2.5
140
0.25
141
0.0
142
0.0
143
0.03937007874
144
100.0
145
0.0
146
0.5
147
0.1
148
0.0
 69
0
 70
0
 71
0
 72
0
 73
0
 74
0
 75
0
 76
0
 77
1
 78
12
 79
3
170
0
171
3
172
0
173
0
174
0
175
0
176
0
177
0
178
0
179
2
271
2
272
2
273
2
274
3
275
0
276
0
277
2
278
46
279
1
280
0
281
0
282
0
283
0
284
8
285
0
286
0
288
1
289
3
290
0
340
4C
342
84
371
-2
372
-2
  0
DIMSTYLE
105
88
330
4
100
AcDbSymbolTableRecord
100
AcDbDimStyleTableRecord
  2
EZ_RADIUS_INSIDE
 70
0
 40
1.0
 41
0.25
 42
0.125
 43
3.75
 44
0.375
 45
0.0
 46
0.0
 47
0.0
 48
0.0
 49
2.5
140
0.25
141
0.0
142
0.0
143
0.03937007874
144
100.0
145
0.0
146
0.5
147
0.1
148
0.0
 69
0
 70
0
 71
0
 72
0
 73
0
 74
0
 75
0
 76
0
 77
0
 78
12
 79
3
170
0
171
3
172
0
173
0
174
1
175
0
176
0
177
0
178
0
179
2
271
2
272
2
273
2
274
3
275
0
276
0
277
2
278
46
279
0
280
0
281
0
282
0
283
0
284
8
285
0
286
0
288
1
289
0
290
0
340
4C
342
84
371
-2
372
-2
  0
DIMSTYLE
105
89
330
4
100
AcDbSymbolTableRecord
100
AcDbDimStyleTableRecord
  2
EZ_CURVED
 70
0
 40
1.0
 41
0.25
 42
0.125
 43
3.75
 44
0.375
 45
0.0
 46
0.0
 47
0.0
 48
0.0
 49
2.5
140
0.25
141
2.5
142
0.0
143
0.03937007874
144
100.0
145
0.0
146
0.5
147
0.1
148
0.0
 69
0
 70
0
 71
0
 72
0
 73
0
 74
0
 75
0
 76
0
 77
1
 78
12
 79
2
 90
2
170
0
171
3
172
1
173
0
174
0
175
0
176
0
177
0
178
0
179
2
271
2
272
2
273
2
274
3
275
0
276
0
277
2
278
46
279
2
280
0
281
0
282
0
283
0
284
8
285
0
286
0
288
1
289
3
290
0
340
4C
371
-2
372
-2
  0
ENDTAB
  0
TABLE
  2
BLOCK_RECORD
  5
9
330
0
100
AcDbSymbolTable
 70
5
  0
BLOCK_RECORD
  5
17
330
9
100
AcDbSymbolTableRecord
100
AcDbBlockTableRecord
  2
*Model_Space
340
1A
 70
0
280
1
281
0
  0
BLOCK_RECORD
  5
1B
330
9
100
AcDbSymbolTableRecord
100
AcDbBlockTableRecord
  2
*Paper_Space
340
1E
 70
0
280
1
281
0
  0
BLOCK_RECORD
  5
74
330
9
100
AcDbSymbolTableRecord
100
AcDbBlockTableRecord
  2
_ARCHTICK
340
0
 70
0
280
1
281
0
  0
BLOCK_RECORD
  5
78
330
9
100
AcDbSymbolTableRecord
100
AcDbBlockTableRecord
  2
_CLOSEDFILLED
340
0
 70
0
280
1
281
0
  0
BLOCK_RECORD
  5
84
330
9
100
AcDbSymbolTableRecord
100
AcDbBlockTableRecord
  2
_CLOSEDBLANK
340
0
 70
0
280
1
281
0
  0
ENDTAB
  0
ENDSEC
  0
SECTION
  2
BLOCKS
  0
BLOCK
  5
18
330
17
100
AcDbEntity
  8
0
100
AcDbBlockBegin
  2
*Model_Space
 70
0
 10
0.0
 20
0.0
 30
0.0
  3
*Model_Space
  1

  0
ENDBLK
  5
19
330
17
100
AcDbEntity
  8
0
100
AcDbBlockEnd
  0
BLOCK
  5
1C
330
1B
100
AcDbEntity
  8
0
100
AcDbBlockBegin
  2
*Paper_Space
 70
0
 10
0.0
 20
0.0
 30
0.0
  3
*Paper_Space
  1

  0
ENDBLK
  5
1D
330
1B
100
AcDbEntity
  8
0
100
AcDbBlockEnd
  0
BLOCK
  5
75
330
74
100
AcDbEntity
  8
0
100
AcDbBlockBegin
  2
_ARCHTICK
 70
0
 10
0.0
 20
0.0
 30
0.0
  3
_ARCHTICK
  1

  0
LWPOLYLINE
  5
77
330
74
100
AcDbEntity
  8
0
  6
BYBLOCK
 62
0
100
AcDbPolyline
 90
2
 70
0
 43
0.15
 10
-0.5
 20
-0.5
 10
0.5
 20
0.5
  0
ENDBLK
  5
76
330
74
100
AcDbEntity
  8
0
100
AcDbBlockEnd
  0
BLOCK
  5
79
330
78
100
AcDbEntity
  8
0
100
AcDbBlockBegin
  2
_CLOSEDFILLED
 70
0
 10
0.0
 20
0.0
 30
0.0
  3
_CLOSEDFILLED
  1

  0
SOLID
  5
7B
330
78
100
AcDbEntity
  8
0
  6
BYBLOCK
 62
0
100
AcDbTrace
 10
-1.0
 20
0.16439898372402537
 30
0.0
 11
0.0
 21
0.0
 31
0.0
 12
-1.0
 22
-0.16439898372402537
 32
0.0
 13
-1.0
 23
-0.16439898372402537
 33
0.0
  0
ENDBLK
  5
7A
330
78
100
AcDbEntity
  8
0
100
AcDbBlockEnd
  0
BLOCK
  5
85
330
84
100
AcDbEntity
  8
0
100
AcDbBlockBegin
  2
_CLOSEDBLANK
 70
0
 10
0.0
 20
0.0
 30
0.0
  3
_CLOSEDBLANK
  1

  0
LWPOLYLINE
  5
87
330
84
100
AcDbEntity
  8
0
  6
BYBLOCK
 62
0
100
AcDbPolyline
 90
3
 70
1
 10
-1.0
 20
0.16439898372402537
 10
0.0
 20
0.0
 10
-1.0
 20
-0.16439898372402537
  0
ENDBLK
  5
86
330
84
100
AcDbEntity
  8
0
100
AcDbBlockEnd
  0
ENDSEC
  0
SECTION
  2
ENTITIES
  0
LWPOLYLINE
  5
8D
330
17
100
AcDbEntity
  8
LOGO
100
AcDbPolyline
 90
16
 70
1
 10
291.4116037467707
 20
47.79231826680611
 10
292.872187211564
 20
52.02592617349036
 10
297.2491833966611
 20
43.196049726556105
 10
298.39411750521197
 20
43.270312561993265
 10
292.71746511347413
 20
54.73329388296124
 10
290.7630164748435
 20
49.08795169913245
 10
288.1169327015171
 20
54.434893670336855
 10
283.9270489812224
 20
42.33194805609608
 10
285.05118711201953
 20
42.40486202065749
 10
288.2716547996069
 20
51.727525960865975
 10
290.26936737997136
 20
47.67646347586155
 10
288.52735032676
 20
42.630333281266296
 10
289.6512573911377
 20
42.703232258373525
 10
290.9177235854791
 20
46.38081505608104
 10
292.64888205112356
 20
42.89766450138589
 10
293.7935850932549
 20
42.97191234936888
  0
LWPOLYLINE
  5
8E
330
17
100
AcDbEntity
  8
LOGO
100
AcDbPolyline
 90
62
 70
1
 10
239.78109922759154
 20
23.703154523943297
 10
239.94668522376355
 20
23.733153978674956
 10
240.18942864022318
 20
23.757716291861694
 10
240.47472946386426
 20
23.773669079699307
 10
240.6371891006977
 20
23.76958812574005
 10
240.62897149137467
 20
24.990970051728453
 10
240.64547256040993
 20
28.782621891116136
 10
240.66532409252767
 20
29.167005128342534
 10
241.35385847636945
 20
27.91016076156997
 10
242.84706833077576
 20
25.262229637002196
 10
243.56381146360388
 20
23.97472955382343
 10
243.5949091328911
 20
23.93173113785259
 10
243.62165158960875
 20
23.916526896643564
 10
243.6344564220124
 20
23.919445791852738
 10
243.64724378872137
 20
23.929788787393797
 10
243.6883188540769
 20
24.004849026199935
 10
244.237014035859
 20
25.354704825513892
 10
245.4481857291878
 20
28.235593385045156
 10
245.83368818700788
 20
29.164387988411523
 10
245.9943862669242
 20
29.448616678027555
 10
246.48366586984133
 20
25.6937154924144
 10
246.59163265744328
 20
24.816187541254017
 10
246.65214420864623
 20
24.23027048597675
 10
246.6752631237856
 20
24.152876924777324
 10
246.88898587248153
 20
24.184838437879947
 10
247.16854378691022
 20
24.210628424183078
 10
247.48872065243944
 20
24.22907538402061
 10
247.62937012111615
 20
24.22497200788581
 10
247.63215176900874
 20
24.264366944224903
 10
247.57987139844556
 20
24.476539730533908
 10
247.4462681574372
 20
25.14473035649916
 10
247.19313831722283
 20
26.600364303059706
 10
246.81249226660128
 20
28.9487329202301
 10
246.4565700868418
 20
31.21285092088737
 10
246.4182497627682
 20
31.385090402621508
 10
246.40196158638912
 20
31.43229793298651
 10
246.3776572462325
 20
31.467151552699125
 10
246.36009372011117
 20
31.473205540094227
 10
246.3433008087596
 20
31.47095612384203
 10
246.3245506775065
 20
31.459530255233958
 10
246.30192859057246
 20
31.436251316568114
 10
246.25871775399128
 20
31.372654474011203
 10
246.20255209245323
 20
31.26552226338506
 10
245.94813262311112
 20
30.666139275560177
 10
245.72586785161565
 20
30.157712668882954
 10
245.45891214393055
 20
29.57631167578183
 10
245.25495555080715
 20
29.15051810266988
 10
243.65120590515025
 20
25.38910410114324
 10
243.63049359751477
 20
25.382887848004117
 10
241.2757645172131
 20
29.357424628013863
 10
240.35107848248538
 20
30.863707672861523
 10
240.2452317705862
 20
31.018109015829687
 10
240.21395673008936
 20
31.056687194921963
 10
240.18482867190596
 20
31.072896893686654
 10
240.16966821294497
 20
31.0705213231942
 10
240.15746913331523
 20
31.06184075495205
 10
240.13778340728499
 20
31.018332883550716
 10
240.12363690270408
 20
30.928776590248187
 10
240.01542618543456
 20
28.035894527033406
 10
239.90894173965853
 20
25.649432521808155
 10
239.8316069481613
 20
24.287455058375766
 10
239.8088079620634
 20
23.977132975018133
  0
LWPOLYLINE
  5
8F
330
17
100
AcDbEntity
  8
LOGO
100
AcDbPolyline
 90
89
 70
1
 10
252.0613190460662
 20
27.265574785873113
 10
252.10928987449108
 20
26.4294028853312
 10
252.14112381721606
 20
25.69892203958563
 10
252.1588156217838
 20
25.104194603471015
 10
252.16367143892504
 20
24.53207049046987
 10
252.1955185989324
 20
24.520445890579673
 10
252.48858079963006
 20
24.552680718200957
 10
252.85166733651954
 20
24.578551660358926
 10
253.91402694518442
 20
24.609404219864054
 10
254.58181385397853
 20
24.638331894605017
 10
255.32026590113912
 20
24.683212947240857
 10
255.52025577538706
 20
24.701521597658743
 10
255.63298998955403
 20
24.71997162579398
 10
255.64447344774982
 20
24.750417399830276
 10
255.6944733650494
 20
25.077818336283297
 10
255.76075414201813
 20
25.422517981163445
 10
255.74851647264416
 20
25.46093873298115
 10
255.65498567171042
 20
25.41472946147335
 10
255.54704508265044
 20
25.37245835007007
 10
255.42261510768878
 20
25.333990511683727
 10
255.27824473798734
 20
25.298870068082234
 10
255.1118393883166
 20
25.267193198597486
 10
254.92016412880372
 20
25.23875007887102
 10
254.70044616241492
 20
25.21336085945276
 10
254.19055999012167
 20
25.17193518207869
 10
253.9416627485801
 20
25.159967876937127
 10
253.72406190760782
 20
25.15559944708518
 10
253.26576986929487
 20
25.162999827115584
 10
253.15121344032536
 20
25.176220885904048
 10
253.08712567013563
 20
25.19480379493219
 10
253.0738325063511
 20
25.20299107531251
 10
253.05855970048952
 20
25.223812071493654
 10
253.0425625403466
 20
25.270110323634903
 10
253.0263069351278
 20
25.35258982430346
 10
252.9890624034342
 20
25.669227054395478
 10
252.94095975621946
 20
26.26058974804208
 10
252.82028561367176
 20
28.063823352859906
 10
252.82098884390348
 20
28.078023316627743
 10
252.8300916571144
 20
28.095088480394928
 10
252.85198679351524
 20
28.108110571878356
 10
253.35383555996995
 20
28.133932421273045
 10
254.2089448759364
 20
28.16897721953496
 10
254.49633650844063
 20
28.17415981038181
 10
254.69892924323412
 20
28.166648971634025
 10
254.85536238934029
 20
28.15173539262684
 10
254.97794241680867
 20
28.12928914275358
 10
255.07805153001073
 20
28.099120341590904
 10
255.11629986709968
 20
28.092551706261503
 10
255.10763841671246
 20
28.243975148295398
 10
255.10805983560113
 20
28.42708088834076
 10
255.12345088893582
 20
28.712094354100607
 10
255.1422301690171
 20
28.876899586518142
 10
255.00284708121242
 20
28.84001428167895
 10
254.84824736099648
 20
28.812351689684085
 10
254.6346207916325
 20
28.782484761811002
 10
254.35315687427166
 20
28.75030610764002
 10
253.88757550470294
 20
28.71268228714549
 10
252.8352628008506
 20
28.64141056992503
 10
252.81018772791276
 20
28.641640456230007
 10
252.79323373093166
 20
28.65260678825101
 10
252.78216508298334
 20
28.673004359348845
 10
252.7781558799858
 20
28.71335105803375
 10
252.62148210853263
 20
31.157460476565696
 10
252.6330667025412
 20
31.175614768006742
 10
252.65330814449044
 20
31.185513096403454
 10
252.9847173398494
 20
31.206080840012465
 10
253.62983601923244
 20
31.23748286082972
 10
253.9649834632993
 20
31.246923186788223
 10
254.22388772178326
 20
31.247705602703025
 10
254.59248102697327
 20
31.235183289711184
 10
254.78897233376867
 20
31.2179951580129
 10
254.93374347035498
 20
31.19327565357451
 10
254.9908755276587
 20
31.178186237506527
 10
255.08110248003265
 20
31.142967726389912
 10
255.07404740150557
 20
31.348328301736306
 10
255.07681949047065
 20
31.545276784889772
 10
255.08628495286806
 20
31.7213118688966
 10
255.1056638491278
 20
31.919801581589624
 10
254.80659887800445
 20
31.872791012334993
 10
254.36912016512835
 20
31.831189025854325
 10
252.13863601783447
 20
31.686515130702983
 10
251.8670792797291
 20
31.67331012147175
 10
251.70298093589827
 20
31.67403624592481
 10
251.6904645234789
 20
31.634473969349358
 10
251.71635234127427
 20
31.503659102886232
 10
251.7724928663734
 20
31.09960878543871
 10
251.80242458253264
 20
30.827744745517066
 10
251.8649367818508
 20
30.146589617656087
 10
251.92953058513896
 20
29.2866677947506
  0
LWPOLYLINE
  5
90
330
17
100
AcDbEntity
  8
LOGO
100
AcDbPolyline
 90
29
 70
1
 10
260.3517511107878
 20
27.803309654218182
 10
260.4069559230984
 20
26.869918740889553
 10
260.4461374947355
 20
26.03688936725493
 10
260.4655540366478
 20
25.390529207415817
 10
260.46447647409605
 20
25.056555859266986
 10
260.4723439434464
 20
25.046160348630583
 10
260.7831358303872
 20
25.08766650981368
 10
261.0417566253677
 20
25.110706239269987
 10
261.22415170046
 20
25.11766395835069
 10
261.42256777400814
 20
25.117307445759643
 10
261.4302804123358
 20
25.123608667142914
 10
261.41019663368405
 20
25.218601983978903
 10
261.37742202168954
 20
25.43412830166816
 10
261.3071109176737
 20
26.078115487266714
 10
261.24704804600435
 20
26.76801490955293
 10
261.17981774890734
 20
27.686471473859132
 10
261.0530176319799
 20
29.637812398960342
 10
261.00634445746135
 20
30.450400537260556
 10
260.9646626952404
 20
31.40067924314671
 10
260.944612313829
 20
32.285765945703645
 10
260.7198283519062
 20
32.252622901961644
 10
260.51077567032894
 20
32.230941956342924
 10
260.18014959895345
 20
32.20903277657952
 10
259.982510394782
 20
32.20456686926972
 10
260.02164004138103
 20
32.01984980088336
 10
260.0547942962108
 20
31.784160754882162
 10
260.10024451807095
 20
31.36247822864927
 10
260.1345012358684
 20
30.97742787269491
 10
260.21485192798696
 20
29.90319631214024
  0
LWPOLYLINE
  5
91
330
17
100
AcDbEntity
  8
LOGO
100
AcDbPolyline
 90
164
 70
1
 10
266.14485413328225
 20
25.670725917824434
 10
266.22143565769284
 20
25.62766117941858
 10
266.3087574041859
 20
25.587149382714827
 10
266.5116035095629
 20
25.514916226209607
 10
266.62501829576325
 20
25.483522112159534
 10
266.8706279743252
 20
25.431697619828455
 10
267.13422590221785
 20
25.395890349586807
 10
267.40755989276323
 20
25.378117471152812
 10
267.6824077341916
 20
25.379934021405692
 10
267.8037325918757
 20
25.387571368428087
 10
268.02219031398783
 20
25.414503115511877
 10
268.2420657076512
 20
25.458929706053002
 10
268.45961674779153
 20
25.52130454004311
 10
268.5666717789292
 20
25.559341518624787
 10
268.77521630320194
 20
25.649672911132207
 10
268.87601259707844
 20
25.70192236269544
 10
268.9736913824751
 20
25.75930649245673
 10
269.0682826343003
 20
25.82136316757712
 10
269.16168610087925
 20
25.89100007217801
 10
269.293527902982
 20
26.008377682875903
 10
269.4094086564456
 20
26.13214525956762
 10
269.5098654313799
 20
26.261177445064057
 10
269.59594239309627
 20
26.393685657826047
 10
269.6684076781241
 20
26.528559528118684
 10
269.728536518194
 20
26.664025461856966
 10
269.77709704983556
 20
26.79897308930599
 10
269.8151184509058
 20
26.931844895346025
 10
269.84316776642294
 20
27.061053389949073
 10
269.8627213196289
 20
27.185302099323224
 10
269.87434615554207
 20
27.303003533440467
 10
269.87785144964727
 20
27.513689847522798
 10
269.8687053262341
 20
27.643966345750123
 10
269.8496821164852
 20
27.79773420325364
 10
269.82116394147647
 20
27.947637657809004
 10
269.7812423200351
 20
28.09448107546077
 10
269.72805373335126
 20
28.238375622995
 10
269.65989079176336
 20
28.380602786749417
 10
269.5751210428808
 20
28.52128872096425
 10
269.4718210180769
 20
28.66146885810354
 10
269.3483432775069
 20
28.801500418827047
 10
269.2030104064176
 20
28.942202756633456
 10
269.03392891109075
 20
29.084149171147843
 10
268.8394363642273
 20
29.227927949449438
 10
268.617639272109
 20
29.374112391163294
 10
267.81425649896994
 20
29.84733854247579
 10
267.63691148786586
 20
29.959280073731808
 10
267.4826156471342
 20
30.066451582170874
 10
267.34969156202175
 20
30.169672421291708
 10
267.2364468303212
 20
30.269993011012488
 10
267.14118904982524
 20
30.368463771251434
 10
267.0624868596546
 20
30.465687976541965
 10
266.99866284505606
 20
30.56248498038277
 10
266.9480096163682
 20
30.660136269111558
 10
266.90886474629207
 20
30.759230129807545
 10
266.87976689903996
 20
30.860831969843122
 10
266.8590236724045
 20
30.965992209136484
 10
266.83591266403226
 20
31.193515216818405
 10
266.83762418409447
 20
31.33168915930436
 10
266.8552517904333
 20
31.46416633505494
 10
266.8881472461528
 20
31.590208582449193
 10
266.93589338077646
 20
31.709092727320304
 10
266.9975959035349
 20
31.820296687012604
 10
267.07263655244026
 20
31.922620167066132
 10
267.16081423598155
 20
32.01558604718774
 10
267.2610035969697
 20
32.09865725726759
 10
267.3728024523825
 20
32.170879556719406
 10
267.4955625653239
 20
32.23151478392217
 10
267.6283896450243
 20
32.280040856220246
 10
267.7710975874268
 20
32.31574958690097
 10
267.9228220766702
 20
32.33765676046973
 10
268.0886165990747
 20
32.34655423375733
 10
268.24884676359096
 20
32.34464905690535
 10
268.39833918426535
 20
32.33299790443885
 10
268.53726497770043
 20
32.312540029489966
 10
268.66579526049924
 20
32.284214685190804
 10
268.7840561869018
 20
32.24965432393194
 10
268.89246492738476
 20
32.20958211988018
 10
268.9914236649703
 20
32.16495231362182
 10
269.08082748747916
 20
32.11738237009324
 10
269.1608475115142
 20
32.06781154242658
 10
269.23213197397126
 20
32.01697799224282
 10
269.3485816606363
 20
31.917329359719453
 10
269.3843531734085
 20
31.89528552889137
 10
269.3777775754035
 20
32.05032484175931
 10
269.37577610120815
 20
32.29940441099144
 10
269.38394544384806
 20
32.602744582921076
 10
269.4010098995465
 20
32.7904104034135
 10
269.39010233722775
 20
32.79759222623814
 10
268.95175328990643
 20
32.83737931462622
 10
268.6050139351211
 20
32.87429093601881
 10
268.39876036713105
 20
32.88458082640728
 10
268.172742477485
 20
32.884771296887905
 10
268.01237364951464
 20
32.87808205385638
 10
267.7726041216
 20
32.854176710412894
 10
267.5090659075012
 20
32.803205440866755
 10
267.26606380994275
 20
32.72897010209749
 10
267.04418611600386
 20
32.633133121404036
 10
266.843760071436
 20
32.5178040714701
 10
266.66494180538774
 20
32.38415327184732
 10
266.50855067135785
 20
32.233858137288735
 10
266.37469783613227
 20
32.06878218660445
 10
266.26372553291674
 20
31.890803926058698
 10
266.17625202369874
 20
31.70112365011141
 10
266.11238847526437
 20
31.501604877572664
 10
266.07273816214706
 20
31.293678969321874
 10
266.0573972636787
 20
31.07944051058862
 10
266.0647771097168
 20
30.883382541838348
 10
266.0817032559956
 20
30.73690389757914
 10
266.1084753335873
 20
30.592456112366378
 10
266.14649472846287
 20
30.449898044505613
 10
266.1967156812087
 20
30.308827510974584
 10
266.26077064421526
 20
30.169118357533023
 10
266.33935281674104
 20
30.030815546543465
 10
266.4341096386309
 20
29.893561857346157
 10
266.5459803630168
 20
29.75718617333832
 10
266.6761203219962
 20
29.621763431790818
 10
266.8259309015403
 20
29.487152491009212
 10
266.99636634223526
 20
29.352951167971245
 10
267.18905909647174
 20
29.219033308436643
 10
267.4049484173818
 20
29.085227795802638
 10
267.9953432991253
 20
28.740426425052426
 10
268.1677522453019
 20
28.633037539522103
 10
268.32140610374455
 20
28.528608853208514
 10
268.4567969822005
 20
28.426708208181033
 10
268.57538621645756
 20
28.326270197067295
 10
268.6779419430451
 20
28.22618445013241
 10
268.765664456423
 20
28.125832705388774
 10
268.83953797208596
 20
28.024350646975144
 10
268.90056169298276
 20
27.920642892610807
 10
268.9496898596998
 20
27.814307259273484
 10
268.9883987954789
 20
27.70404727317132
 10
269.01721058297574
 20
27.5889686435347
 10
269.0375415956156
 20
27.468699162249735
 10
269.0501749573821
 20
27.341897393162007
 10
269.05459602034085
 20
27.18787852530393
 10
269.04498823613454
 20
27.035502140809687
 10
269.0208357767143
 20
26.889143514195332
 10
268.98186261329823
 20
26.749480857265155
 10
268.9277627421959
 20
26.617654514662394
 10
268.85869229255593
 20
26.494834805938673
 10
268.7738981153032
 20
26.381901034409385
 10
268.6735513270405
 20
26.279792453206667
 10
268.55709987020373
 20
26.18986548593907
 10
268.4244987824305
 20
26.112813331865063
 10
268.27565813899554
 20
26.050022389501535
 10
268.11005585724337
 20
26.00238694961811
 10
267.9276319873573
 20
25.970831277892714
 10
267.7449933366318
 20
25.956896603864905
 10
267.58366778983475
 20
25.95780257776808
 10
267.4266763315577
 20
25.97059159663737
 10
267.274802085784
 20
25.993922224318382
 10
267.1283210812958
 20
26.027116249006873
 10
266.9882175335877
 20
26.06930935484158
 10
266.85505848767787
 20
26.11891405179444
 10
266.72910498489415
 20
26.175483194480677
 10
266.6113562281854
 20
26.237921400619555
 10
266.502118221242
 20
26.30508832556783
 10
266.40214411313895
 20
26.376104666010065
 10
266.31195598653204
 20
26.450076131176694
 10
266.2323219779506
 20
26.52589235133279
 10
266.1637791575045
 20
26.602427969289288
 10
266.171533689897
 20
26.400593340051884
 10
266.17146182092375
 20
26.154859867478613
 10
266.160111243621
 20
25.846904621766136
  0
LWPOLYLINE
  5
92
330
17
100
AcDbEntity
  8
LOGO
100
AcDbPolyline
 90
51
 70
1
 10
273.1844683219585
 20
32.34573086786931
 10
273.33717336834155
 20
32.39902684497287
 10
273.52530899241725
 20
32.446267536555396
 10
273.7520351867874
 20
32.48881809907274
 10
274.02023591527205
 20
32.528721900785065
 10
274.44732041563765
 20
32.580323469486714
 10
274.7628497542353
 20
32.60960683073857
 10
275.1727141417996
 20
32.6440808076159
 10
275.75670017571736
 20
32.68427975596517
 10
276.02216669691234
 20
28.587919283871376
 10
276.06110764320255
 20
27.912428469596954
 10
276.09110084332735
 20
27.289030033645552
 10
276.1105101865412
 20
26.75010324965349
 10
276.11737857095414
 20
26.329398802319837
 10
276.11005489836634
 20
26.059527031700398
 10
276.34101770379857
 20
26.093999002383065
 10
276.64682726532357
 20
26.122883956979074
 10
276.9002259356215
 20
26.136999542560012
 10
276.9967242524819
 20
26.137457663009677
 10
277.078301909648
 20
26.131843150255122
 10
277.03907384149954
 20
26.407512941434174
 10
276.99194620488635
 20
26.830014821165776
 10
276.9231991066199
 20
27.564366442477812
 10
276.8715256689451
 20
28.200048926303097
 10
276.82424508949236
 20
28.871750274900243
 10
276.5735199685987
 20
32.737260406473816
 10
277.06613233288084
 20
32.76596374144797
 10
277.56134885583447
 20
32.78671463882768
 10
278.0203803538943
 20
32.79653307347261
 10
278.403579582241
 20
32.79493578849421
 10
278.65528703044606
 20
32.785041708509695
 10
278.8504818634496
 20
32.76637725356946
 10
278.9541869035506
 20
32.748739734268824
 10
279.04030965370964
 20
32.726713251123925
 10
279.14259950049984
 20
32.684387854453554
 10
279.140577964358
 20
32.905157420875064
 10
279.1472320399773
 20
33.128113975491615
 10
279.1619634093054
 20
33.33744008959898
 10
279.18397266277856
 20
33.51684121419977
 10
279.03860309012833
 20
33.48281615287899
 10
278.80908663302966
 20
33.44750984124344
 10
278.52171990094143
 20
33.413324048327496
 10
278.09390101532125
 20
33.37304473418063
 10
274.53912400098636
 20
33.13968995466433
 10
274.15591721990694
 20
33.11993920432503
 10
273.76669150083313
 20
33.11070386425551
 10
273.4872111199272
 20
33.119492648997486
 10
273.28538781978904
 20
33.143760169581626
 10
273.272266480676
 20
32.95611806939069
 10
273.24670366641453
 20
32.72775836052686
 10
273.21527178870036
 20
32.50760339773798
  0
LWPOLYLINE
  5
93
330
17
100
AcDbEntity
  8
LOGO
100
AcDbPolyline
 90
90
 70
1
 10
283.46855998179905
 20
29.30271451970257
 10
283.5165308102239
 20
28.466542619160656
 10
283.5483647529489
 20
27.736061773415077
 10
283.5660565575166
 20
27.14133433730047
 10
283.5709123746579
 20
26.569210224299326
 10
283.60275953466527
 20
26.55758562440912
 10
283.8958217353629
 20
26.589820452030413
 10
284.2589082722524
 20
26.615691394188374
 10
285.3212678809172
 20
26.646543953693502
 10
285.9892858561309
 20
26.675486615888644
 10
286.7277379032914
 20
26.720367668524485
 10
286.9277277775394
 20
26.738676318942378
 10
287.04046199170637
 20
26.75712634707761
 10
287.05171438348265
 20
26.787557133659732
 10
287.1017143007822
 20
27.114958070112753
 10
287.16799507775096
 20
27.4596577149929
 10
287.15575740837704
 20
27.498078466810604
 10
287.06222660744334
 20
27.4518691953028
 10
286.9542860183833
 20
27.409598083899525
 10
286.8298560434216
 20
27.371130245513182
 10
286.68571674013964
 20
27.33602478936586
 10
286.5190803240494
 20
27.30433293242694
 10
286.3274050645366
 20
27.275889812700477
 10
286.10791816456725
 20
27.250515580736387
 10
285.59780092585453
 20
27.209074915908147
 10
285.3489036843129
 20
27.197107610766583
 10
285.1313028433407
 20
27.192739180914636
 10
284.6730108050277
 20
27.20013956094504
 10
284.5584543760582
 20
27.213360619733503
 10
284.4943666058685
 20
27.231943528761647
 10
284.481073442084
 20
27.240130809141966
 10
284.46580063622235
 20
27.260951805323103
 10
284.44980347607947
 20
27.30725005746436
 10
284.43354787086065
 20
27.389729558132917
 10
284.39630333916705
 20
27.706366788224933
 10
284.3482006919523
 20
28.297729481871535
 10
284.2275265494046
 20
30.10096308668936
 10
284.2282297796363
 20
30.1151630504572
 10
284.2373325928472
 20
30.132228214224384
 10
284.2592277292481
 20
30.145250305707812
 10
284.76107649570275
 20
30.171072155102493
 10
285.61618581166925
 20
30.206116953364415
 10
285.90380851059297
 20
30.211314531665437
 10
286.1064012453864
 20
30.203803692917653
 10
286.2628343914927
 20
30.188890113910468
 10
286.3851833525415
 20
30.166428876583037
 10
286.48552353216303
 20
30.13627506287454
 10
286.523771869252
 20
30.12970642754513
 10
286.5151104188648
 20
30.281129869579026
 10
286.515300771334
 20
30.46422062217021
 10
286.5306918246687
 20
30.749234087930056
 10
286.54947110474995
 20
30.914039320347598
 10
286.41008801694534
 20
30.877154015508406
 10
286.25571936314884
 20
30.84950641096772
 10
286.0418617273653
 20
30.819624495640458
 10
285.760628876424
 20
30.78746082892365
 10
285.29504750685527
 20
30.749837008429118
 10
284.2427348030029
 20
30.678565291208656
 10
284.2174286636456
 20
30.678780190059463
 10
284.20047466666455
 20
30.689746522080465
 10
284.18940601871617
 20
30.710144093178293
 10
284.18539681571866
 20
30.750490791863207
 10
284.0287230442655
 20
33.194600210395144
 10
284.04030763827404
 20
33.2127545018362
 10
284.06054908022327
 20
33.22265283023291
 10
284.3919582755823
 20
33.243220573841924
 10
285.0370769549653
 20
33.27462259465918
 10
285.3722243990321
 20
33.28406292061768
 10
285.63112865751606
 20
33.28484533653248
 10
285.9997219627062
 20
33.272323023540636
 10
286.1962132695015
 20
33.25513489184236
 10
286.34098440608784
 20
33.230415387403966
 10
286.3981164633915
 20
33.21532597133598
 10
286.4883434157655
 20
33.18010746021937
 10
286.48128833723837
 20
33.385468035565765
 10
286.48406042620354
 20
33.58241651871923
 10
286.49352588860086
 20
33.758451602726055
 10
286.5129047848606
 20
33.95694131541908
 10
286.2138398137373
 20
33.90993074616445
 10
285.7763611008612
 20
33.86832875968378
 10
283.5458769535673
 20
33.723654864532435
 10
283.274320215462
 20
33.710449855301206
 10
283.1102218716311
 20
33.71117597975426
 10
283.0977054592118
 20
33.67161370317881
 10
283.1235932770071
 20
33.54079883671569
 10
283.1511821118456
 20
33.3622943631135
 10
283.1799648685257
 20
33.136763506722346
 10
283.2405001400302
 20
32.54690333485966
 10
283.2721777175836
 20
32.18372935148554
 10
283.3367715208718
 20
31.323807528580048
  0
LWPOLYLINE
  5
94
330
17
100
AcDbEntity
  8
LOGO
100
AcDbPolyline
 90
97
 70
1
 10
291.57852917290245
 20
29.828744186336955
 10
291.6296948073071
 20
28.936162104532222
 10
291.6631197804036
 20
28.13106804735386
 10
291.6755356470674
 20
27.488894579733383
 10
291.6746384060115
 20
27.32385698277041
 10
291.6639649784099
 20
27.084164988378532
 10
291.6850781709418
 20
27.073468430532678
 10
291.9011865211034
 20
27.104424486079623
 10
292.2042982228654
 20
27.131974259128107
 10
292.4771514347627
 20
27.14665559160129
 10
292.62728961409243
 20
27.14293563466819
 10
292.6318511106769
 20
27.187086786484564
 10
292.5711368158025
 20
27.625878258732634
 10
292.5275450382601
 20
28.018908548949312
 10
292.439438987669
 20
28.994484779356927
 10
292.3634823338872
 20
30.0796751191998
 10
292.3665999603785
 20
30.117467578056647
 10
292.3721880385682
 20
30.124327111610796
 10
292.3878918222459
 20
30.129058308660632
 10
293.2136232497889
 20
30.169854866993717
 10
293.6982057609653
 20
30.204302409306187
 10
293.7315779829436
 20
30.201362154024533
 10
293.7627019687842
 20
30.190154724610778
 10
293.81301438040384
 20
30.15141911824395
 10
294.8574696458792
 20
28.884246979407408
 10
295.2204125628338
 20
28.461578113473777
 10
295.39522186190743
 20
28.26709842985843
 10
295.5614380392235
 20
28.09062446126833
 10
295.71598854866477
 20
27.936597686643083
 10
295.94396306815514
 20
27.730947983243706
 10
296.12222727044474
 20
27.590525332574252
 10
296.20611795203473
 20
27.534940523394113
 10
296.28779167052136
 20
27.488493458814162
 10
296.368679786784
 20
27.45058086430101
 10
296.4501836867938
 20
27.421061598160197
 10
296.5332875860454
 20
27.3990713445305
 10
296.61939287050984
 20
27.384468961717495
 10
296.7094537807734
 20
27.376852266698886
 10
296.90256158128017
 20
27.379632026408267
 10
297.1893275170754
 20
27.405193424532378
 10
297.3940898923808
 20
27.439358211410173
 10
297.50780962016836
 20
27.474810975255437
 10
297.41471746779507
 20
27.518429069351264
 10
297.29433457750645
 20
27.58928184592353
 10
297.1542711536914
 20
27.688094957379498
 10
296.9944822339874
 20
27.815561602977624
 10
296.71860214640407
 20
28.06219137251513
 10
296.28859001798196
 20
28.481438142415954
 10
295.9355341003248
 20
28.85184351342378
 10
295.58086827046407
 20
29.24349200757011
 10
295.22897901400364
 20
29.645994368825384
 10
294.5483783039357
 20
30.44066848699717
 10
294.5631245427065
 20
30.60683639763012
 10
294.7278128257769
 20
30.754421163212026
 10
294.8768760388068
 20
30.9067934173055
 10
295.01011309028524
 20
31.063476039617438
 10
295.12747901784957
 20
31.22516222940626
 10
295.22900379640816
 20
31.39138985383301
 10
295.31465745105265
 20
31.562621045736655
 10
295.3844399817831
 20
31.73885580511721
 10
295.43812032218
 20
31.920079144520493
 10
295.47592953866274
 20
32.106306051400665
 10
295.4976065899036
 20
32.297983671142525
 10
295.5031514759026
 20
32.495112003746094
 10
295.49360458560454
 20
32.685228450013305
 10
295.4714251596202
 20
32.848305168719804
 10
295.43618859275165
 20
33.00519808743597
 10
295.3888641130395
 20
33.15527395672009
 10
295.33015990719633
 20
33.29834667251515
 10
295.2605830704236
 20
33.43375301047108
 10
295.1810728558535
 20
33.561321853985085
 10
295.09233745019844
 20
33.6808670990002
 10
294.99488394866023
 20
33.79172552116632
 10
294.8894355254055
 20
33.893479950006984
 10
294.77714751253166
 20
33.98620532279311
 10
294.6580798598555
 20
34.06897737384672
 10
294.5367427289806
 20
34.14023233344126
 10
294.4273385619153
 20
34.19207393743261
 10
294.3109599181432
 20
34.236966083144765
 10
294.1880689305036
 20
34.27493874548606
 10
294.0593138358922
 20
34.30673008607751
 10
293.92492570072864
 20
34.33235509237326
 10
293.785582736817
 20
34.35208979315534
 10
293.6419631559617
 20
34.366210217205754
 10
293.34337672126895
 20
34.37979274506617
 10
293.1893191456552
 20
34.37954586511236
 10
292.8750363620061
 20
34.36681809418571
 10
292.5694641215074
 20
34.34142911079035
 10
291.62788710791295
 20
34.247871049211646
 10
291.3850575430947
 20
34.2353691522007
 10
291.196070230383
 20
34.23703334967137
 10
291.1942752762255
 20
34.18958106355865
 10
291.22145213309136
 20
34.0818216220747
 10
291.24768466233274
 20
33.94569222796342
 10
291.2980674087767
 20
33.594637312455816
 10
291.368293426537
 20
32.89472332049445
 10
291.43490310141743
 20
32.025186632695615
  0
LWPOLYLINE
  5
95
330
17
100
AcDbEntity
  8
LOGO
100
AcDbPolyline
 90
53
 70
1
 10
292.3190295448041
 20
30.765018119393908
 10
292.12728135421503
 20
33.73914894186314
 10
292.1332154419767
 20
33.758560999340375
 10
292.1501832462975
 20
33.77242368638356
 10
292.1799733487165
 20
33.78178116830402
 10
292.380948736585
 20
33.81709255443194
 10
292.6536258753986
 20
33.845220701597825
 10
292.88182957312523
 20
33.86141470483964
 10
293.01057227653433
 20
33.86558853381021
 10
293.1353143917818
 20
33.86346987424483
 10
293.25604093141334
 20
33.85528979256298
 10
293.3722897625901
 20
33.84101831385632
 10
293.4845080306968
 20
33.82091647945268
 10
293.5922186154404
 20
33.79518538086319
 10
293.69545149172916
 20
33.763362885248895
 10
293.79416169720054
 20
33.72614219186824
 10
293.88836421930876
 20
33.68329223430174
 10
293.9778130041802
 20
33.63502909151472
 10
294.0625230392689
 20
33.581121697087674
 10
294.14223328324715
 20
33.5220171964054
 10
294.21717480253443
 20
33.45773057692208
 10
294.2868854642917
 20
33.38823186372938
 10
294.3515813474842
 20
33.31376711070094
 10
294.4110313856927
 20
33.23432133038257
 10
294.465235578917
 20
33.14989452277432
 10
294.5139628607377
 20
33.060471700421964
 10
294.5574143226658
 20
32.966529983618656
 10
294.59514281931666
 20
32.86780833103659
 10
294.6273494422013
 20
32.7647838629689
 10
294.65383309980876
 20
32.656979459122425
 10
294.6745638172305
 20
32.54485725233615
 10
294.6974200388817
 20
32.321262373785466
 10
294.6999078382633
 20
32.239978211095945
 10
294.695482172858
 20
32.0828331019107
 10
294.6785464676517
 20
31.932533836951364
 10
294.63271105641815
 20
31.719798018013467
 10
294.58957621921087
 20
31.58705862082054
 10
294.5088098907648
 20
31.40129396479079
 10
294.44522260713535
 20
31.2869512545576
 10
294.3753490895768
 20
31.180090116232556
 10
294.26016897009305
 20
31.03478840016617
 10
294.13570252959323
 20
30.907447436762496
 10
294.032614217331
 20
30.822563924841972
 10
293.9514710783245
 20
30.77855037437653
 10
293.8344801911489
 20
30.739868935265335
 10
293.7155009290489
 20
30.717533262120917
 10
293.53960191224417
 20
30.69985904125928
 10
293.1374177098586
 20
30.679341452516603
 10
292.7677876740786
 20
30.672073245310422
 10
292.4444558904398
 20
30.680802198247136
 10
292.35102516321587
 20
30.69028866668266
 10
292.3351065986988
 20
30.70317846733042
 10
292.32443140092545
 20
30.72824232918049
  0
LWPOLYLINE
  5
96
330
17
100
AcDbEntity
  8
LOGO
100
AcDbPolyline
 90
71
 70
1
 10
299.4912347902804
 20
34.77693148591
 10
299.55830246759905
 20
34.676632256261705
 10
299.629296975923
 20
34.55872076176311
 10
299.78023126049584
 20
34.27799842835532
 10
299.93835220636277
 20
33.950870452386596
 10
300.1775194038357
 20
33.40809861932422
 10
300.37383581766187
 20
32.92496576080206
 10
302.2674052994222
 20
28.107686202703448
 10
302.41179962544805
 20
27.770386347796446
 10
302.4509583028638
 20
27.696121506164634
 10
302.48364346217903
 20
27.653690135212003
 10
302.5138369277348
 20
27.63894177223509
 10
302.53064482654054
 20
27.640960122067796
 10
302.56455919312106
 20
27.665435578827186
 10
302.58140461956793
 20
27.68833983113865
 10
302.6361301873792
 20
27.79978736646416
 10
302.7323856366751
 20
28.050831354296285
 10
302.91980705545416
 20
28.634962896332063
 10
304.07433219058544
 20
32.306909231155274
 10
304.3642192932155
 20
33.20374574375106
 10
304.44857411383913
 20
33.42362078338007
 10
306.65332657248626
 20
28.248302392151217
 10
306.7499255531137
 20
28.06476048178591
 10
306.81181111163124
 20
27.96922997682863
 10
306.8480647011775
 20
27.93259898666461
 10
306.8646527446516
 20
27.9236972649648
 10
306.88032903166135
 20
27.92169756094122
 10
306.90638336361303
 20
27.9349894265998
 10
306.9346210254047
 20
27.971858799893205
 10
306.96644965761436
 20
28.03564552287349
 10
307.02388193604736
 20
28.187643326635506
 10
307.07071761233277
 20
28.33129654075409
 10
308.65232724782965
 20
33.87217026841059
 10
308.80521462190325
 20
34.36983187060085
 10
308.93637148554905
 20
34.76607537658348
 10
309.0454806239889
 20
35.07294621508011
 10
309.1685024863268
 20
35.390697119227625
 10
309.1541689335973
 20
35.41134699880599
 10
308.88461803611096
 20
35.37437212327609
 10
308.6399211761163
 20
35.35130737539235
 10
308.4306561919401
 20
35.34005439355883
 10
308.2724007130199
 20
35.34371192243478
 10
308.2542874895636
 20
35.30100216247113
 10
308.24423267798386
 20
35.19129187370397
 10
308.210418857159
 20
34.939889249074696
 10
308.12317688640627
 20
34.46760105276838
 10
308.038008494845
 20
34.077821033913025
 10
307.8611632622326
 20
33.344942667545254
 10
307.68463666053566
 20
32.66081306108207
 10
307.48592130994984
 20
31.928836538216697
 10
306.8509209323067
 20
29.65938300387313
 10
304.670757457434
 20
34.752530376364234
 10
304.56239662959985
 20
34.956424895464835
 10
304.51007342088025
 20
35.03331643595513
 10
304.48268650363303
 20
35.05845653320202
 10
304.4713405287768
 20
35.06166526453289
 10
304.4516424115443
 20
35.05412256269354
 10
304.4214238095496
 20
35.012019853629695
 10
304.3230900606043
 20
34.77870803028126
 10
302.62205448966847
 20
29.386946136372217
 10
302.56677497610997
 20
29.4986837438423
 10
302.16712164728534
 20
30.52668042440448
 10
301.6486224092995
 20
31.880871964398672
 10
301.22256036013835
 20
33.015517716709894
 10
300.90545981709283
 20
33.911966207657436
 10
300.71966152779976
 20
34.47977924437145
 10
300.62495143844427
 20
34.80591533410126
 10
300.60072333368447
 20
34.857480673287704
 10
300.31985018164335
 20
34.819771412503236
 10
300.0564819040328
 20
34.79479948157285
 10
299.72410973524023
 20
34.77834597115206
  0
LWPOLYLINE
  5
97
330
17
100
AcDbEntity
  8
LOGO
100
AcDbPolyline
 90
89
 70
1
 10
313.3923545044347
 20
31.243634797728475
 10
313.44032533285963
 20
30.40746289718657
 10
313.4721592755846
 20
29.67698205144099
 10
313.4898510801523
 20
29.082254615326377
 10
313.4947068972936
 20
28.510130502325232
 10
313.5265540573009
 20
28.498505902435035
 10
313.8193851915791
 20
28.530725742602147
 10
314.1824717284686
 20
28.55659668476011
 10
315.24506240355294
 20
28.587464231719416
 10
315.9128493123471
 20
28.61639190646038
 10
316.65130135950767
 20
28.66127295909622
 10
316.8512912337556
 20
28.679581609514113
 10
316.96402544792255
 20
28.698031637649343
 10
316.9755089061183
 20
28.72847741168564
 10
317.0255088234179
 20
29.055878348138666
 10
317.0917896003867
 20
29.400577993018807
 10
317.0795519310127
 20
29.43899874483651
 10
316.986021130079
 20
29.392789473328712
 10
316.878080541019
 20
29.35051836192543
 10
316.7536505660573
 20
29.31205052353909
 10
316.6092801963559
 20
29.276930079937596
 10
316.44287484668513
 20
29.245253210452848
 10
316.25119958717227
 20
29.21681009072639
 10
316.03148162078344
 20
29.19142087130812
 10
315.52159544849025
 20
29.149995193934053
 10
315.27269820694863
 20
29.138027888792497
 10
315.05509736597634
 20
29.13365945894055
 10
314.5968053276634
 20
29.141059838970946
 10
314.48224889869385
 20
29.15428089775941
 10
314.41816112850415
 20
29.172863806787554
 10
314.40486796471964
 20
29.18105108716788
 10
314.38959515885807
 20
29.201872083349016
 10
314.3735979987152
 20
29.248170335490272
 10
314.3573423934963
 20
29.330649836158823
 10
314.3200978618027
 20
29.64728706625084
 10
314.271995214588
 20
30.23864975989744
 10
314.1513210720403
 20
32.04188336471527
 10
314.152024302272
 20
32.056083328483105
 10
314.16112711548294
 20
32.07314849225029
 10
314.18302225188376
 20
32.086170583733725
 10
314.68487101833847
 20
32.11199243312841
 10
315.5399803343049
 20
32.14703723139033
 10
315.8273719668092
 20
32.15221982223717
 10
316.02996470160264
 20
32.14470898348939
 10
316.18639784770886
 20
32.1297954044822
 10
316.3089778751772
 20
32.10734915460894
 10
316.4090869883792
 20
32.07718035344627
 10
316.4473353254682
 20
32.070611718116865
 10
316.438673875081
 20
32.22203516015076
 10
316.4390952939697
 20
32.40514090019612
 10
316.45448634730434
 20
32.69015436595597
 10
316.4732656273856
 20
32.854959598373505
 10
316.333882539581
 20
32.81807429353431
 10
316.179282819365
 20
32.790411701539455
 10
315.965656250001
 20
32.76054477366637
 10
315.6841923326402
 20
32.728366119495384
 10
315.21861096307146
 20
32.69074229900085
 10
314.1662982592191
 20
32.61947058178039
 10
314.1412231862813
 20
32.61970046808537
 10
314.1242691893002
 20
32.63066680010637
 10
314.1132005413519
 20
32.65106437120421
 10
314.1091913383543
 20
32.691411069889114
 10
313.9525175669012
 20
35.13552048842106
 10
313.9641021609097
 20
35.1536747798621
 10
313.984343602859
 20
35.16357310825882
 10
314.31575279821794
 20
35.18414085186783
 10
314.960871477601
 20
35.215542872685084
 10
315.29601892166784
 20
35.224983198643585
 10
315.5549231801518
 20
35.225765614558384
 10
315.92351648534185
 20
35.21324330156655
 10
316.12000779213724
 20
35.196055169868266
 10
316.26477892872356
 20
35.17133566542987
 10
316.3219109860272
 20
35.15624624936189
 10
316.4121379384012
 20
35.121027738245274
 10
316.4050828598741
 20
35.32638831359168
 10
316.4078549488392
 20
35.523336796745134
 10
316.4173204112366
 20
35.69937188075196
 10
316.4366993074963
 20
35.897861593444986
 10
316.137634336373
 20
35.850851024190355
 10
315.7001556234969
 20
35.809249037709684
 10
313.469671476203
 20
35.66457514255835
 10
313.1981147380977
 20
35.65137013332712
 10
313.0340163942668
 20
35.65209625778017
 10
313.0214999818475
 20
35.61253398120472
 10
313.0473877996428
 20
35.481719114741594
 10
313.10352832474194
 20
35.07766879729408
 10
313.1334600409012
 20
34.805804757372435
 10
313.1959722402193
 20
34.12464962951145
 10
313.26056604350754
 20
33.26472780660596
  0
LWPOLYLINE
  5
98
330
17
100
AcDbEntity
  8
LOGO
100
AcDbPolyline
 90
97
 70
1
 10
321.6922602923553
 20
31.781984151694722
 10
321.7434259267599
 20
30.88940206988999
 10
321.7768508998564
 20
30.084308012711627
 10
321.7892667665202
 20
29.442134545091143
 10
321.7844135456308
 20
29.14132984916899
 10
321.7774650314432
 20
29.037389966282127
 10
321.79880929039456
 20
29.026708395890445
 10
322.01491764055623
 20
29.05766445143739
 10
322.3180293423182
 20
29.085214224485874
 10
322.59088255421545
 20
29.09989555695906
 10
322.74078966712574
 20
29.09616061257178
 10
322.7455822301297
 20
29.140326751842323
 10
322.6846368688358
 20
29.57910323663622
 10
322.6410450912934
 20
29.9721335268529
 10
322.5529390407023
 20
30.947709757260515
 10
322.4769823869205
 20
32.032900097103386
 10
322.4801000134118
 20
32.070692555960235
 10
322.48591915802103
 20
32.07756707696856
 10
322.5016229416987
 20
32.0822982740184
 10
323.32735436924173
 20
32.123094832351484
 10
323.8119368804181
 20
32.157542374663954
 10
323.84507803597694
 20
32.154587131928125
 10
323.876433088237
 20
32.143394689968545
 10
323.9267454998566
 20
32.10465908360172
 10
324.97120076533196
 20
30.837486944765168
 10
325.3341436822866
 20
30.414818078831537
 10
325.50895298136027
 20
30.220338395216196
 10
325.6751691586763
 20
30.04386442662609
 10
325.82971966811755
 20
29.88983765200085
 10
326.0576941876079
 20
29.684187948601465
 10
326.2359583898975
 20
29.54376529793202
 10
326.3196180050681
 20
29.488165501297708
 10
326.40129172355466
 20
29.441718436717757
 10
326.48241090623685
 20
29.403820829658777
 10
326.5636837398271
 20
29.374286576063785
 10
326.64701870549817
 20
29.352311309888268
 10
326.73289292354315
 20
29.337693939621083
 10
326.8231849002262
 20
29.330092232056654
 10
327.01629270073295
 20
29.332871991766034
 10
327.30305863652825
 20
29.358433389890145
 10
327.5078210118336
 20
29.39259817676794
 10
327.62154073962114
 20
29.428050940613204
 10
327.52844858724785
 20
29.47166903470903
 10
327.4080656969592
 20
29.542521811281297
 10
327.2680022731442
 20
29.641334922737265
 10
327.1082133534402
 20
29.76880156833539
 10
326.8323332658569
 20
30.01543133787289
 10
326.40232113743474
 20
30.43467810777372
 10
326.0492652197776
 20
30.805083478781548
 10
325.6945993899169
 20
31.19673197292788
 10
325.3427101334564
 20
31.59923433418315
 10
324.6621094233885
 20
32.393908452354935
 10
324.6768556621593
 20
32.560076362987886
 10
324.84154394522966
 20
32.7076611285698
 10
324.9906071582596
 20
32.86003338266327
 10
325.123844209738
 20
33.016716004975194
 10
325.24121013730235
 20
33.178402194764026
 10
325.34273491586094
 20
33.34462981919077
 10
325.42838857050543
 20
33.51586101109442
 10
325.4981711012359
 20
33.69209577047498
 10
325.5518514416328
 20
33.87331910987826
 10
325.5896606581155
 20
34.059546016758425
 10
325.61133770935646
 20
34.25122363650029
 10
325.6168825953554
 20
34.44835196910386
 10
325.6073357050574
 20
34.63846841537107
 10
325.585156279073
 20
34.801545134077564
 10
325.5499197122045
 20
34.95843805279374
 10
325.50259523249235
 20
35.108513922077854
 10
325.44389102664917
 20
35.25158663787292
 10
325.3743141898764
 20
35.386992975828846
 10
325.29480397530625
 20
35.51456181934285
 10
325.2060685696513
 20
35.63410706435796
 10
325.10861506811307
 20
35.74496548652409
 10
325.00316664485825
 20
35.84671991536475
 10
324.8908786319845
 20
35.93944528815088
 10
324.77181097930827
 20
36.02221733920449
 10
324.6504738484334
 20
36.09347229879903
 10
324.54106968136807
 20
36.14531390279038
 10
324.42469103759606
 20
36.19020604850253
 10
324.30180004995646
 20
36.22817871084383
 10
324.1728138889256
 20
36.259955063981096
 10
324.038425753762
 20
36.28558007027685
 10
323.8993138562698
 20
36.30532975851311
 10
323.75569427541456
 20
36.31945018256352
 10
323.45687677430226
 20
36.33301772296976
 10
323.30305026510797
 20
36.33278583047013
 10
322.98876748145886
 20
36.32005805954348
 10
322.68319524096023
 20
36.29466907614812
 10
321.7416182273658
 20
36.20111101456941
 10
321.4987886625475
 20
36.188609117558464
 10
321.3098013498358
 20
36.19027331502914
 10
321.30800639567826
 20
36.142821028916416
 10
321.33518325254414
 20
36.035061587432466
 10
321.3614157817855
 20
35.89893219332119
 10
321.4117985282295
 20
35.54787727781358
 10
321.4820245459898
 20
34.84796328585222
 10
321.54863422087027
 20
33.97842659805338
  0
LWPOLYLINE
  5
99
330
17
100
AcDbEntity
  8
LOGO
100
AcDbPolyline
 90
53
 70
1
 10
322.4325295978374
 20
32.718243097297496
 10
322.24078140724833
 20
35.69237391976673
 10
322.24671549501
 20
35.71178597724396
 10
322.26053829418305
 20
35.724052441411786
 10
322.2937044681693
 20
35.73502113366179
 10
322.49467985603786
 20
35.770332519789704
 10
322.7671259284319
 20
35.79844567950142
 10
322.99532962615854
 20
35.814639682743234
 10
323.12407232956764
 20
35.8188135117138
 10
323.2488144448151
 20
35.81669485214842
 10
323.36954098444664
 20
35.808514770466566
 10
323.4860208820429
 20
35.794258279214084
 10
323.5980080837302
 20
35.774141457356265
 10
323.7059497348932
 20
35.748425346220955
 10
323.809182611182
 20
35.71660285060666
 10
323.9078928166533
 20
35.679382157226
 10
324.0020953387616
 20
35.636532199659506
 10
324.09154412363296
 20
35.588269056872484
 10
324.17625415872175
 20
35.53436166244544
 10
324.25596440269993
 20
35.47525716176316
 10
324.3309059219872
 20
35.41097054227985
 10
324.4006165837445
 20
35.34147182908715
 10
324.46531246693706
 20
35.267007076058704
 10
324.5247625051455
 20
35.18756129574034
 10
324.5789666983698
 20
35.103134488132085
 10
324.6276939801905
 20
35.013711665779724
 10
324.6711454421186
 20
34.91976994897642
 10
324.70887393876944
 20
34.82104829639436
 10
324.74108056165414
 20
34.71802382832665
 10
324.76756421926154
 20
34.610219424480185
 10
324.78829493668326
 20
34.49809721769391
 10
324.81115115833455
 20
34.27450233914323
 10
324.81298800655685
 20
34.113818774635284
 10
324.8092132923108
 20
34.03607306726847
 10
324.7922775871045
 20
33.88577380230913
 10
324.7464421758709
 20
33.67303798337123
 10
324.70330733866365
 20
33.540298586178295
 10
324.6513595243672
 20
33.4146448324781
 10
324.55895372658813
 20
33.24019121991537
 10
324.4890802090296
 20
33.13333008159032
 10
324.3739000895459
 20
32.98802836552394
 10
324.24920258262654
 20
32.86067241466609
 10
324.14634533678384
 20
32.77580389019974
 10
324.0652021977773
 20
32.73179033973429
 10
323.9479802441822
 20
32.69309391316892
 10
323.8290009820822
 20
32.670758240024504
 10
323.6531019652775
 20
32.65308401916287
 10
323.2511488293114
 20
32.63258141787436
 10
322.8815187935314
 20
32.62531321066819
 10
322.5581870098926
 20
32.634042163604896
 10
322.46475628266865
 20
32.64352863204043
 10
322.4488377181516
 20
32.656418432688184
 10
322.4391105063576
 20
32.677599127769525
  0
LWPOLYLINE
  5
9A
330
17
100
AcDbEntity
  8
LOGO
100
AcDbPolyline
 90
56
 70
1
 10
334.660468809726
 20
30.95500439903155
 10
335.19573712075055
 20
30.47274116688589
 10
335.283845649582
 20
30.398634814631684
 10
335.4506265116873
 20
30.270693526980864
 10
335.5302530855474
 20
30.21645640856196
 10
335.6839619373258
 20
30.125489524395235
 10
335.75875240195677
 20
30.088573654590434
 10
335.8329820761764
 20
30.056726258560154
 10
335.98026614858327
 20
30.007573663472996
 10
336.0542747873567
 20
29.98986628139384
 10
336.20500868848706
 20
29.966229650022452
 10
336.36200640137105
 20
29.95692161489962
 10
336.5281905975841
 20
29.959811361280593
 10
336.71674705049116
 20
29.975522107633857
 10
336.9168368804374
 20
30.006599360940164
 10
337.05938869369135
 20
30.041137772069284
 10
337.1304960209617
 20
30.0717382591168
 10
337.01914962144895
 20
30.1141723443328
 10
336.88643276444304
 20
30.178424150438303
 10
336.7090302817628
 20
30.284096913459884
 10
336.5612517413797
 20
30.383801837444977
 10
336.3861674756271
 20
30.51097251032602
 10
336.1809809671697
 20
30.669372199238317
 10
335.9421875119596
 20
30.862950275374146
 10
335.66749768786303
 20
31.09480678151876
 10
334.9250670026705
 20
31.75877743603641
 10
333.9849339771807
 20
32.623168116537954
 10
333.2585868365126
 20
33.31463437684843
 10
333.0239464402578
 20
33.54792838046788
 10
332.95297683234986
 20
33.636836672897374
 10
333.45454862593095
 20
34.22858254972277
 10
335.03438195307945
 20
36.054868157187705
 10
335.32429867658357
 20
36.36812966974684
 10
335.63562090698167
 20
36.687652397807625
 10
335.86997654160706
 20
36.91308011219131
 10
336.1467148084562
 20
37.161212167489815
 10
335.7430854378515
 20
37.11646883421636
 10
335.4583841123775
 20
37.09127338959932
 10
335.22459611282744
 20
37.07889387046222
 10
335.03784452703974
 20
37.081863274572065
 10
335.0265247507254
 20
37.0739358554051
 10
334.98260442930564
 20
36.99265806533387
 10
334.90086403434964
 20
36.86483986362562
 10
334.6286143330087
 20
36.48311271010879
 10
334.3702137473942
 20
36.145443007316885
 10
333.70469655282176
 20
35.30522378607902
 10
333.35955342091177
 20
34.88465894629094
 10
332.90925854653284
 20
34.35378455559163
 10
332.5063824430148
 20
33.896757600024756
 10
332.25905699597837
 20
33.62802558399133
 10
332.13380117688826
 20
33.49854507299558
 10
332.1220779194257
 20
33.47179636167106
 10
332.1219079829374
 20
33.44579702305528
 10
332.1284302397669
 20
33.42394437077651
 10
333.61312509599566
 20
31.951896329619533
 10
334.3592939118846
 20
31.233871120396444
  0
LWPOLYLINE
  5
9B
330
17
100
AcDbEntity
  8
LOGO
100
AcDbPolyline
 90
33
 70
1
 10
331.251478066472
 20
32.402015130914755
 10
331.30668287878245
 20
31.468624217586125
 10
331.34586445041964
 20
30.635594843951495
 10
331.3655120587515
 20
29.98924967156656
 10
331.3642034297802
 20
29.65526133596355
 10
331.37293521499174
 20
29.645850040821806
 10
331.4674601443819
 20
29.662422860818758
 10
331.62837607343533
 20
29.682141748066503
 10
331.9853862007542
 20
29.712259332259805
 10
332.1435193018005
 20
29.71764336865214
 10
332.3225257961118
 20
29.716027909910387
 10
332.33000736801995
 20
29.722314143839487
 10
332.3099235893682
 20
29.817307460675476
 10
332.2771489773737
 20
30.032833778364733
 10
332.2068378733578
 20
30.676820963963287
 10
332.1467750016885
 20
31.366720386249497
 10
332.0795447045915
 20
32.28517695055571
 10
331.9527445876641
 20
34.236517875656915
 10
331.9060714131455
 20
35.04910601395713
 10
331.8643896509246
 20
35.99938471984328
 10
331.85002871953867
 20
36.51056229143604
 10
331.8472119042339
 20
36.85449273768379
 10
331.84252071306565
 20
36.88388938992785
 10
331.6959034053525
 20
36.85836882376552
 10
331.40107386517667
 20
36.828339748159856
 10
331.0605931296411
 20
36.80811175951596
 10
330.96877609098715
 20
36.80702912247185
 10
330.8816378522992
 20
36.8125150027457
 10
330.921007298165
 20
36.624100871647585
 10
330.95431142753654
 20
36.38610116145152
 10
330.9998815490301
 20
35.96257010386276
 10
331.03419821664426
 20
35.57659548223046
 10
331.1145788836711
 20
34.50190178883681
  0
LWPOLYLINE
  5
9C
330
17
100
AcDbEntity
  8
LOGO
100
AcDbPolyline
 90
89
 70
1
 10
340.8173967667538
 20
33.02248074630586
 10
340.86536759517867
 20
32.18630884576395
 10
340.8972015379037
 20
31.455828000018375
 10
340.9148933424714
 20
30.86110056390376
 10
340.91974915961265
 20
30.288976450902616
 10
340.95159631962
 20
30.27735185101242
 10
341.24465852031767
 20
30.309586678633703
 10
341.6077450572072
 20
30.335457620791672
 10
342.67010466587203
 20
30.3663101802968
 10
343.33812264108565
 20
30.395252842491942
 10
344.0763436218267
 20
30.440118907673604
 10
344.2763334960747
 20
30.458427558091497
 10
344.38906771024165
 20
30.476877586226735
 10
344.4005511684374
 20
30.50732336026303
 10
344.450551085737
 20
30.83472429671605
 10
344.5168318627057
 20
31.17942394159619
 10
344.5045941933318
 20
31.217844693413895
 10
344.4110633923981
 20
31.171635421906096
 10
344.30312280333806
 20
31.129364310502822
 10
344.17869282837637
 20
31.09089647211648
 10
344.0343224586749
 20
31.05577602851498
 10
343.86791710900417
 20
31.024099159030232
 10
343.67624184949136
 20
30.995656039303775
 10
343.45652388310253
 20
30.970266819885513
 10
342.9466377108093
 20
30.928841142511438
 10
342.69774046926767
 20
30.91687383736988
 10
342.48013962829543
 20
30.912505407517934
 10
342.0218475899824
 20
30.91990578754833
 10
341.90729116101295
 20
30.933126846336794
 10
341.84320339082325
 20
30.951709755364938
 10
341.82991022703874
 20
30.959897035745264
 10
341.8146374211771
 20
30.9807180319264
 10
341.7986402610343
 20
31.027016284067656
 10
341.7823846558154
 20
31.109495784736215
 10
341.7451401241218
 20
31.42613301482823
 10
341.69703747690704
 20
32.017495708474826
 10
341.57636333435937
 20
33.82072931329266
 10
341.57706656459106
 20
33.83492927706049
 10
341.58616937780204
 20
33.851994440827674
 10
341.60806451420285
 20
33.86501653231111
 10
342.1099132806575
 20
33.89083838170579
 10
342.965022596624
 20
33.92588317996771
 10
343.25241422912825
 20
33.931065770814556
 10
343.4550069639217
 20
33.92355493206678
 10
343.61144011002796
 20
33.908641353059586
 10
343.7340201374963
 20
33.88619510318634
 10
343.8341292506983
 20
33.85602630202366
 10
343.8723775877873
 20
33.84945766669425
 10
343.8637161374001
 20
34.000881108728144
 10
343.86413755628877
 20
34.18398684877351
 10
343.87952860962343
 20
34.46900031453335
 10
343.8983078897047
 20
34.633805546950896
 10
343.7589248019001
 20
34.59692024211169
 10
343.60432508168407
 20
34.56925765011684
 10
343.39069851232006
 20
34.53939072224375
 10
343.1092345949593
 20
34.507212068072775
 10
342.64365322539055
 20
34.46958824757824
 10
341.5913405215382
 20
34.398316530357775
 10
341.56626544860035
 20
34.398546416662754
 10
341.5493114516193
 20
34.40951274868375
 10
341.5382428036709
 20
34.42991031978159
 10
341.5342336006734
 20
34.470257018466505
 10
341.3775598292203
 20
36.91436643699844
 10
341.3891444232288
 20
36.9325207284395
 10
341.4093858651781
 20
36.94241905683621
 10
341.74079506053704
 20
36.96298680044522
 10
342.3859137399201
 20
36.994388821262476
 10
342.7210611839869
 20
37.003829147220976
 10
342.9799654424708
 20
37.00461156313577
 10
343.34855874766095
 20
36.992089250143934
 10
343.54505005445634
 20
36.97490111844566
 10
343.6898211910426
 20
36.95018161400726
 10
343.74695324834624
 20
36.93509219793928
 10
343.83718020072024
 20
36.89987368682266
 10
343.8301251221931
 20
37.10523426216906
 10
343.8328972111583
 20
37.302182745322526
 10
343.84236267355567
 20
37.47821782932935
 10
343.8617415698154
 20
37.67670754202238
 10
343.56267659869206
 20
37.62969697276774
 10
343.12519788581596
 20
37.588094986287075
 10
340.89471373852206
 20
37.44342109113573
 10
340.6231570004167
 20
37.430216081904504
 10
340.45905865658585
 20
37.43094220635756
 10
340.44654224416655
 20
37.391379929782104
 10
340.47243006196186
 20
37.26056506331898
 10
340.528570587061
 20
36.856514745871465
 10
340.5585023032202
 20
36.58465070594982
 10
340.6210145025384
 20
35.90349557808884
 10
340.6856083058266
 20
35.043573755183345
  0
CIRCLE
  5
9D
330
17
100
AcDbEntity
  8
REF_100ER_KREIS
100
AcDbCircle
 10
286.1
 20
120.7
 30
0.0
 40
59.1
  0
LINE
  5
9E
330
17
100
AcDbEntity
  8
REF_100ER_MITTE
100
AcDbLine
 10
276.1
 20
120.7
 30
0.0
 11
296.1
 21
120.7
 31
0.0
  0
LINE
  5
9F
330
17
100
AcDbEntity
  8
REF_100ER_MITTE
100
AcDbLine
 10
286.1
 20
110.7
 30
0.0
 11
286.1
 21
130.7
 31
0.0
  0
ENDSEC
  0
SECTION
  2
OBJECTS
  0
DICTIONARY
  5
A
330
0
100
AcDbDictionary
281
1
  3
ACAD_COLOR
350
B
  3
ACAD_GROUP
350
C
  3
ACAD_LAYOUT
350
D
  3
ACAD_MATERIAL
350
E
  3
ACAD_MLEADERSTYLE
350
F
  3
ACAD_MLINESTYLE
350
10
  3
ACAD_PLOTSETTINGS
350
11
  3
ACAD_PLOTSTYLENAME
350
12
  3
ACAD_SCALELIST
350
14
  3
ACAD_TABLESTYLE
350
15
  3
ACAD_VISUALSTYLE
350
16
  3
EZDXF_META
350
2D
  0
DICTIONARY
  5
B
330
A
100
AcDbDictionary
281
1
  0
DICTIONARY
  5
C
330
A
100
AcDbDictionary
281
1
  0
DICTIONARY
  5
D
330
A
100
AcDbDictionary
281
1
  3
Model
350
1A
  3
Layout1
350
1E
  0
DICTIONARY
  5
E
330
A
100
AcDbDictionary
281
1
  3
ByBlock
350
1F
  3
ByLayer
350
20
  3
Global
350
21
  0
DICTIONARY
  5
F
330
A
100
AcDbDictionary
281
1
  3
Standard
350
2C
  0
DICTIONARY
  5
10
330
A
100
AcDbDictionary
281
1
  3
Standard
350
22
  0
DICTIONARY
  5
11
330
A
100
AcDbDictionary
281
1
  0
ACDBDICTIONARYWDFLT
  5
12
330
A
100
AcDbDictionary
281
1
  3
Normal
350
13
100
AcDbDictionaryWithDefault
340
13
  0
ACDBPLACEHOLDER
  5
13
330
12
  0
DICTIONARY
  5
14
330
A
100
AcDbDictionary
281
1
  0
DICTIONARY
  5
15
330
A
100
AcDbDictionary
281
1
  0
DICTIONARY
  5
16
330
A
100
AcDbDictionary
281
1
  3
2dWireframe
350
5A
  3
Basic
350
5B
  3
Brighten
350
5C
  3
ColorChange
350
5D
  3
Conceptual
350
5E
  3
Dim
350
5F
  3
EdgeColorOff
350
60
  3
Facepattern
350
61
  3
Flat
350
62
  3
FlatWithEdges
350
63
  3
Gouraud
350
64
  3
GouraudWithEdges
350
65
  3
Hidden
350
66
  3
JitterOff
350
67
  3
Linepattern
350
68
  3
Modeling
350
69
  3
OverhangOff
350
6A
  3
Realistic
350
6B
  3
Shaded
350
6C
  3
Shaded with edges
350
6D
  3
Shades of Gray
350
6E
  3
Sketchy
350
6F
  3
Thicken
350
70
  3
Wireframe
350
71
  3
X-Ray
350
72
  0
LAYOUT
  5
1A
330
D
100
AcDbPlotSettings
  1

  4
A3
  6

 40
7.5
 41
20.0
 42
7.5
 43
20.0
 44
420.0
 45
297.0
 46
0.0
 47
0.0
 48
0.0
 49
0.0
140
0.0
141
0.0
142
1.0
143
1.0
 70
1024
 72
1
 73
0
 74
5
  7

 75
16
 76
0
 77
2
 78
300
147
1.0
148
0.0
149
0.0
100
AcDbLayout
  1
Model
 70
1
 71
0
 10
0.0
 20
0.0
 11
420.0
 21
297.0
 12
0.0
 22
0.0
 32
0.0
 14
1e+20
 24
1e+20
 34
1e+20
 15
-1e+20
 25
-1e+20
 35
-1e+20
146
0.0
 13
0.0
 23
0.0
 33
0.0
 16
1.0
 26
0.0
 36
0.0
 17
0.0
 27
1.0
 37
0.0
 76
1
330
17
  0
LAYOUT
  5
1E
330
D
100
AcDbPlotSettings
  1

  4
A3
  6

 40
7.5
 41
20.0
 42
7.5
 43
20.0
 44
420.0
 45
297.0
 46
0.0
 47
0.0
 48
0.0
 49
0.0
140
0.0
141
0.0
142
1.0
143
1.0
 70
0
 72
1
 73
0
 74
5
  7

 75
16
 76
0
 77
2
 78
300
147
1.0
148
0.0
149
0.0
100
AcDbLayout
  1
Layout1
 70
1
 71
1
 10
0.0
 20
0.0
 11
420.0
 21
297.0
 12
0.0
 22
0.0
 32
0.0
 14
1e+20
 24
1e+20
 34
1e+20
 15
-1e+20
 25
-1e+20
 35
-1e+20
146
0.0
 13
0.0
 23
0.0
 33
0.0
 16
1.0
 26
0.0
 36
0.0
 17
0.0
 27
1.0
 37
0.0
 76
1
330
1B
  0
MATERIAL
  5
1F
102
{ACAD_REACTORS
330
E
102
}
330
E
100
AcDbMaterial
  1
ByBlock
  2

 70
0
 40
1.0
 71
1
 41
1.0
 91
-1023410177
 42
1.0
 72
1
  3

 73
1
 74
1
 75
1
 44
0.5
 73
0
 45
1.0
 46
1.0
 77
1
  4

 78
1
 79
1
170
1
 48
1.0
171
1
  6

172
1
173
1
174
1
140
1.0
141
1.0
175
1
  7

176
1
177
1
178
1
143
1.0
179
1
  8

270
1
271
1
272
1
145
1.0
146
1.0
273
1
  9

274
1
275
1
276
1
 42
1.0
 72
1
  3

 73
1
 74
1
 75
1
 94
63
  0
MATERIAL
  5
20
102
{ACAD_REACTORS
330
E
102
}
330
E
100
AcDbMaterial
  1
ByLayer
  2

 70
0
 40
1.0
 71
1
 41
1.0
 91
-1023410177
 42
1.0
 72
1
  3

 73
1
 74
1
 75
1
 44
0.5
 73
0
 45
1.0
 46
1.0
 77
1
  4

 78
1
 79
1
170
1
 48
1.0
171
1
  6

172
1
173
1
174
1
140
1.0
141
1.0
175
1
  7

176
1
177
1
178
1
143
1.0
179
1
  8

270
1
271
1
272
1
145
1.0
146
1.0
273
1
  9

274
1
275
1
276
1
 42
1.0
 72
1
  3

 73
1
 74
1
 75
1
 94
63
  0
MATERIAL
  5
21
102
{ACAD_REACTORS
330
E
102
}
330
E
100
AcDbMaterial
  1
Global
  2

 70
0
 40
1.0
 71
1
 41
1.0
 91
-1023410177
 42
1.0
 72
1
  3

 73
1
 74
1
 75
1
 44
0.5
 73
0
 45
1.0
 46
1.0
 77
1
  4

 78
1
 79
1
170
1
 48
1.0
171
1
  6

172
1
173
1
174
1
140
1.0
141
1.0
175
1
  7

176
1
177
1
178
1
143
1.0
179
1
  8

270
1
271
1
272
1
145
1.0
146
1.0
273
1
  9

274
1
275
1
276
1
 42
1.0
 72
1
  3

 73
1
 74
1
 75
1
 94
63
  0
MLINESTYLE
  5
22
102
{ACAD_REACTORS
330
10
102
}
330
10
100
AcDbMlineStyle
  2
Standard
 70
0
  3

 62
256
 51
90.0
 52
90.0
 71
2
 49
0.5
 62
256
  6
BYLAYER
 49
-0.5
 62
256
  6
BYLAYER
  0
MLEADERSTYLE
  5
2C
102
{ACAD_REACTORS
330
F
102
}
330
F
100
AcDbMLeaderStyle
179
2
170
2
171
1
172
0
 90
2
 40
0.0
 41
0.0
173
1
 91
-1056964608
 92
-2
290
1
 42
2.0
291
1
 43
8.0
  3
Standard
 44
4.0
300

342
29
174
1
175
1
176
0
178
1
 93
-1056964608
 45
4.0
292
0
297
0
 46
4.0
 94
-1056964608
 47
1.0
 49
1.0
140
1.0
294
1
141
0.0
177
0
142
1.0
295
0
296
0
143
3.75
271
0
272
9
273
9
  0
DICTIONARY
  5
2D
330
A
100
AcDbDictionary
280
1
281
1
  3
CREATED_BY_EZDXF
350
2E
  3
WRITTEN_BY_EZDXF
350
A2
  0
DICTIONARYVAR
  5
2E
330
2D
100
DictionaryVariables
280
0
  1
1.4.4 @ 2026-10-02T22:15:09.533111+00:00
  0
VISUALSTYLE
  5
5A
102
{ACAD_REACTORS
330
16
102
}
330
16
100
AcDbVisualStyle
  2
2dWireframe
 70
4
 90
0
 40
0.6
 62
7
290
0
291
0
  0
VISUALSTYLE
  5
5B
102
{ACAD_REACTORS
330
16
102
}
330
16
100
AcDbVisualStyle
  2
Basic
 70
7
 90
1
 40
0.6
 62
7
290
0
291
1
  0
VISUALSTYLE
  5
5C
102
{ACAD_REACTORS
330
16
102
}
330
16
100
AcDbVisualStyle
  2
Brighten
 70
12
 90
2
 40
0.6
 62
7
290
0
291
1
  0
VISUALSTYLE
  5
5D
102
{ACAD_REACTORS
330
16
102
}
330
16
100
AcDbVisualStyle
  2
ColorChange
 70
16
 90
2
 40
0.6
 62
8
290
0
291
1
  0
VISUALSTYLE
  5
5E
102
{ACAD_REACTORS
330
16
102
}
330
16
100
AcDbVisualStyle
  2
Conceptual
 70
9
 90
3
 40
0.6
 62
7
290
0
291
0
  0
VISUALSTYLE
  5
5F
102
{ACAD_REACTORS
330
16
102
}
330
16
100
AcDbVisualStyle
  2
Dim
 70
11
 90
2
 40
0.6
 62
7
290
0
291
1
  0
VISUALSTYLE
  5
60
102
{ACAD_REACTORS
330
16
102
}
330
16
100
AcDbVisualStyle
  2
EdgeColorOff
 70
22
 90
2
 40
0.6
 62
7
290
0
291
1
  0
VISUALSTYLE
  5
61
102
{ACAD_REACTORS
330
16
102
}
330
16
100
AcDbVisualStyle
  2
Facepattern
 70
15
 90
2
 40
0.6
 62
7
290
0
291
1
  0
VISUALSTYLE
  5
62
102
{ACAD_REACTORS
330
16
102
}
330
16
100
AcDbVisualStyle
  2
Flat
 70
0
 90
2
 40
0.6
 62
7
290
0
291
1
  0
VISUALSTYLE
  5
63
102
{ACAD_REACTORS
330
16
102
}
330
16
100
AcDbVisualStyle
  2
FlatWithEdges
 70
1
 90
2
 40
0.6
 62
7
290
0
291
1
  0
VISUALSTYLE
  5
64
102
{ACAD_REACTORS
330
16
102
}
330
16
100
AcDbVisualStyle
  2
Gouraud
 70
2
 90
2
 40
0.6
 62
7
290
0
291
1
  0
VISUALSTYLE
  5
65
102
{ACAD_REACTORS
330
16
102
}
330
16
100
AcDbVisualStyle
  2
GouraudWithEdges
 70
3
 90
2
 40
0.6
 62
7
290
0
291
1
  0
VISUALSTYLE
  5
66
102
{ACAD_REACTORS
330
16
102
}
330
16
100
AcDbVisualStyle
  2
Hidden
 70
6
 90
1
 40
0.6
 62
7
290
0
291
0
  0
VISUALSTYLE
  5
67
102
{ACAD_REACTORS
330
16
102
}
330
16
100
AcDbVisualStyle
  2
JitterOff
 70
20
 90
2
 40
0.6
 62
7
290
0
291
1
  0
VISUALSTYLE
  5
68
102
{ACAD_REACTORS
330
16
102
}
330
16
100
AcDbVisualStyle
  2
Linepattern
 70
14
 90
2
 40
0.6
 62
7
290
0
291
1
  0
VISUALSTYLE
  5
69
102
{ACAD_REACTORS
330
16
102
}
330
16
100
AcDbVisualStyle
  2
Modeling
 70
10
 90
2
 40
0.6
 62
7
290
0
291
0
  0
VISUALSTYLE
  5
6A
102
{ACAD_REACTORS
330
16
102
}
330
16
100
AcDbVisualStyle
  2
OverhangOff
 70
21
 90
2
 40
0.6
 62
7
290
0
291
1
  0
VISUALSTYLE
  5
6B
102
{ACAD_REACTORS
330
16
102
}
330
16
100
AcDbVisualStyle
  2
Realistic
 70
8
 90
2
 40
0.6
 62
7
290
0
291
0
  0
VISUALSTYLE
  5
6C
102
{ACAD_REACTORS
330
16
102
}
330
16
100
AcDbVisualStyle
  2
Shaded
 70
27
 90
2
 40
0.6
 62
7
290
0
291
0
  0
VISUALSTYLE
  5
6D
102
{ACAD_REACTORS
330
16
102
}
330
16
100
AcDbVisualStyle
  2
Shaded with edges
 70
26
 90
2
 40
0.6
 62
7
290
0
291
0
  0
VISUALSTYLE
  5
6E
102
{ACAD_REACTORS
330
16
102
}
330
16
100
AcDbVisualStyle
  2
Shades of Gray
 70
23
 90
2
 40
0.6
 62
7
290
0
291
0
  0
VISUALSTYLE
  5
6F
102
{ACAD_REACTORS
330
16
102
}
330
16
100
AcDbVisualStyle
  2
Sketchy
 70
24
 90
1
 40
0.6
 62
7
290
0
291
0
  0
VISUALSTYLE
  5
70
102
{ACAD_REACTORS
330
16
102
}
330
16
100
AcDbVisualStyle
  2
Thicken
 70
13
 90
2
 40
0.6
 62
7
290
0
291
1
  0
VISUALSTYLE
  5
71
102
{ACAD_REACTORS
330
16
102
}
330
16
100
AcDbVisualStyle
  2
Wireframe
 70
5
 90
0
 40
0.6
 62
7
290
0
291
0
  0
VISUALSTYLE
  5
72
102
{ACAD_REACTORS
330
16
102
}
330
16
100
AcDbVisualStyle
  2
X-Ray
 70
25
 90
2
 40
0.5
 62
7
290
0
291
0
  0
DICTIONARYVAR
  5
A2
330
2D
100
DictionaryVariables
280
0
  1
1.4.4 @ 2026-10-02T22:15:09.545993+00:00
  0
ENDSEC
  0
EOF
