  0
SECTION
  2
HEADER
  9
$ACADVER
  1
AC1024
  9
$ACADMAINTVER
 70
6
  9
$DWGCODEPAGE
  3
ANSI_1252
  9
$LASTSAVEDBY
  1
ezdxf
  9
$INSBASE
 10
0.0
 20
0.0
 30
0.0
  9
$EXTMIN
 10
1e+20
 20
1e+20
 30
1e+20
  9
$EXTMAX
 10
-1e+20
 20
-1e+20
 30
-1e+20
  9
$LIMMIN
 10
0.0
 20
0.0
  9
$LIMMAX
 10
420.0
 20
297.0
  9
$ORTHOMODE
 70
0
  9
$REGENMODE
 70
1
  9
$FILLMODE
 70
1
  9
$QTEXTMODE
 70
0
  9
$MIRRTEXT
 70
1
  9
$LTSCALE
 40
1.0
  9
$ATTMODE
 70
1
  9
$TEXTSIZE
 40
2.5
  9
$TRACEWID
 40
1.0
  9
$TEXTSTYLE
  7
OpenSans
  9
$CLAYER
  8
0
  9
$CELTYPE
  6
ByLayer
  9
$CECOLOR
 62
256
  9
$CELTSCALE
 40
1.0
  9
$DISPSILH
 70
0
  9
$DIMSCALE
 40
1.0
  9
$DIMASZ
 40
0.175
  9
$DIMEXO
 40
0.125
  9
$DIMDLI
 40
3.75
  9
$DIMRND
 40
0.0
  9
$DIMDLE
 40
0.0
  9
$DIMEXE
 40
0.375
  9
$DIMTP
 40
0.0
  9
$DIMTM
 40
0.0
  9
$DIMTXT
 40
0.25
  9
$DIMCEN
 40
2.5
  9
$DIMTSZ
 40
0.0
  9
$DIMTOL
 70
0
  9
$DIMLIM
 70
0
  9
$DIMTIH
 70
0
  9
$DIMTOH
 70
0
  9
$DIMSE1
 70
0
  9
$DIMSE2
 70
0
  9
$DIMTAD
 70
1
  9
$DIMZIN
 70
12
  9
$DIMBLK
  1
ARCHTICK
  9
$DIMASO
 70
1
  9
$DIMSHO
 70
1
  9
$DIMPOST
  1

  9
$DIMAPOST
  1

  9
$DIMALT
 70
0
  9
$DIMALTD
 70
3
  9
$DIMALTF
 40
0.03937007874
  9
$DIMLFAC
 40
100.0
  9
$DIMTOFL
 70
1
  9
$DIMTVP
 40
0.0
  9
$DIMTIX
 70
0
  9
$DIMSOXD
 70
0
  9
$DIMSAH
 70
0
  9
$DIMBLK1
  1

  9
$DIMBLK2
  1

  9
$DIMSTYLE
  2
EZDXF
  9
$DIMCLRD
 70
0
  9
$DIMCLRE
 70
0
  9
$DIMCLRT
 70
0
  9
$DIMTFAC
 40
0.5
  9
$DIMGAP
 40
0.1
  9
$DIMJUST
 70
0
  9
$DIMSD1
 70
0
  9
$DIMSD2
 70
0
  9
$DIMTOLJ
 70
0
  9
$DIMTZIN
 70
8
  9
$DIMALTZ
 70
0
  9
$DIMALTTZ
 70
0
  9
$DIMUPT
 70
1
  9
$DIMDEC
 70
2
  9
$DIMTDEC
 70
2
  9
$DIMALTU
 70
2
  9
$DIMALTTD
 70
3
  9
$DIMTXSTY
  7
OpenSansCondensed-Light
  9
$DIMAUNIT
 70
0
  9
$DIMADEC
 70
2
  9
$DIMALTRND
 40
0.0
  9
$DIMAZIN
 70
3
  9
$DIMDSEP
 70
46
  9
$DIMATFIT
 70
3
  9
$DIMFRAC
 70
0
  9
$DIMLDRBLK
  1

  9
$DIMLUNIT
 70
2
  9
$DIMLWD
 70
-2
  9
$DIMLWE
 70
-2
  9
$DIMTMOVE
 70
2
  9
$DIMFXL
 40
1.0
  9
$DIMFXLON
 70
0
  9
$DIMJOGANG
 40
0.785398163397
  9
$DIMTFILL
 70
0
  9
$DIMTFILLCLR
 70
0
  9
$DIMARCSYM
 70
0
  9
$DIMLTYPE
  6

  9
$DIMLTEX1
  6

  9
$DIMLTEX2
  6

  9
$DIMTXTDIRECTION
 70
0
  9
$LUNITS
 70
2
  9
$LUPREC
 70
4
  9
$SKETCHINC
 40
1.0
  9
$FILLETRAD
 40
10.0
  9
$AUNITS
 70
0
  9
$AUPREC
 70
2
  9
$MENU
  1
.
  9
$ELEVATION
 40
0.0
  9
$PELEVATION
 40
0.0
  9
$THICKNESS
 40
0.0
  9
$LIMCHECK
 70
0
  9
$CHAMFERA
 40
0.0
  9
$CHAMFERB
 40
0.0
  9
$CHAMFERC
 40
0.0
  9
$CHAMFERD
 40
0.0
  9
$SKPOLY
 70
0
  9
$TDCREATE
 40
2461316.7401736113
  9
$TDUCREATE
 40
2458532.153996898
  9
$TDUPDATE
 40
2461316.7401736113
  9
$TDUUPDATE
 40
2458532.1544311
  9
$TDINDWG
 40
0.0
  9
$TDUSRTIMER
 40
0.0
  9
$USRTIMER
 70
1
  9
$ANGBASE
 50
0.0
  9
$ANGDIR
 70
0
  9
$PDMODE
 70
0
  9
$PDSIZE
 40
0.0
  9
$PLINEWID
 40
0.0
  9
$SPLFRAME
 70
0
  9
$SPLINETYPE
 70
6
  9
$SPLINESEGS
 70
8
  9
$HANDSEED
  5
A3
  9
$SURFTAB1
 70
6
  9
$SURFTAB2
 70
6
  9
$SURFTYPE
 70
6
  9
$SURFU
 70
6
  9
$SURFV
 70
6
  9
$UCSBASE
  2

  9
$UCSNAME
  2

  9
$UCSORG
 10
0.0
 20
0.0
 30
0.0
  9
$UCSXDIR
 10
1.0
 20
0.0
 30
0.0
  9
$UCSYDIR
 10
0.0
 20
1.0
 30
0.0
  9
$UCSORTHOREF
  2

  9
$UCSORTHOVIEW
 70
0
  9
$UCSORGTOP
 10
0.0
 20
0.0
 30
0.0
  9
$UCSORGBOTTOM
 10
0.0
 20
0.0
 30
0.0
  9
$UCSORGLEFT
 10
0.0
 20
0.0
 30
0.0
  9
$UCSORGRIGHT
 10
0.0
 20
0.0
 30
0.0
  9
$UCSORGFRONT
 10
0.0
 20
0.0
 30
0.0
  9
$UCSORGBACK
 10
0.0
 20
0.0
 30
0.0
  9
$PUCSBASE
  2

  9
$PUCSNAME
  2

  9
$PUCSORG
 10
0.0
 20
0.0
 30
0.0
  9
$PUCSXDIR
 10
1.0
 20
0.0
 30
0.0
  9
$PUCSYDIR
 10
0.0
 20
1.0
 30
0.0
  9
$PUCSORTHOREF
  2

  9
$PUCSORTHOVIEW
 70
0
  9
$PUCSORGTOP
 10
0.0
 20
0.0
 30
0.0
  9
$PUCSORGBOTTOM
 10
0.0
 20
0.0
 30
0.0
  9
$PUCSORGLEFT
 10
0.0
 20
0.0
 30
0.0
  9
$PUCSORGRIGHT
 10
0.0
 20
0.0
 30
0.0
  9
$PUCSORGFRONT
 10
0.0
 20
0.0
 30
0.0
  9
$PUCSORGBACK
 10
0.0
 20
0.0
 30
0.0
  9
$USERI1
 70
0
  9
$USERI2
 70
0
  9
$USERI3
 70
0
  9
$USERI4
 70
0
  9
$USERI5
 70
0
  9
$USERR1
 40
0.0
  9
$USERR2
 40
0.0
  9
$USERR3
 40
0.0
  9
$USERR4
 40
0.0
  9
$USERR5
 40
0.0
  9
$WORLDVIEW
 70
1
  9
$SHADEDGE
 70
3
  9
$SHADEDIF
 70
70
  9
$TILEMODE
 70
1
  9
$MAXACTVP
 70
64
  9
$PINSBASE
 10
0.0
 20
0.0
 30
0.0
  9
$PLIMCHECK
 70
0
  9
$PEXTMIN
 10
1e+20
 20
1e+20
 30
1e+20
  9
$PEXTMAX
 10
-1e+20
 20
-1e+20
 30
-1e+20
  9
$PLIMMIN
 10
0.0
 20
0.0
  9
$PLIMMAX
 10
420.0
 20
297.0
  9
$UNITMODE
 70
0
  9
$VISRETAIN
 70
1
  9
$PLINEGEN
 70
0
  9
$PSLTSCALE
 70
1
  9
$TREEDEPTH
 70
3020
  9
$CMLSTYLE
  2
Standard
  9
$CMLJUST
 70
0
  9
$CMLSCALE
 40
20.0
  9
$PROXYGRAPHICS
 70
1
  9
$MEASUREMENT
 70
1
  9
$CELWEIGHT
370
-1
  9
$ENDCAPS
280
0
  9
$JOINSTYLE
280
0
  9
$LWDISPLAY
290
0
  9
$INSUNITS
 70
4
  9
$HYPERLINKBASE
  1

  9
$STYLESHEET
  1

  9
$XEDIT
290
1
  9
$CEPSNTYPE
380
0
  9
$PSTYLEMODE
290
1
  9
$FINGERPRINTGUID
  2
{B3D2A27A-564D-44BC-B39A-67D6A63DECB1}
  9
$VERSIONGUID
  2
{7AAE18D0-DBD8-4F78-AC62-2D89B6C12FEC}
  9
$EXTNAMES
290
1
  9
$PSVPSCALE
 40
0.0
  9
$OLESTARTUP
290
0
  9
$SORTENTS
280
127
  9
$INDEXCTL
280
0
  9
$HIDETEXT
280
1
  9
$XCLIPFRAME
280
1
  9
$HALOGAP
280
0
  9
$OBSCOLOR
 70
257
  9
$OBSLTYPE
280
0
  9
$INTERSECTIONDISPLAY
280
0
  9
$INTERSECTIONCOLOR
 70
257
  9
$DIMASSOC
280
2
  9
$PROJECTNAME
  1

  9
$CAMERADISPLAY
290
0
  9
$LENSLENGTH
 40
50.0
  9
$CAMERAHEIGHT
 40
0.0
  9
$STEPSPERSEC
 40
24.0
  9
$STEPSIZE
 40
100.0
  9
$3DDWFPREC
 40
2.0
  9
$PSOLWIDTH
 40
0.005
  9
$PSOLHEIGHT
 40
0.08
  9
$LOFTANG1
 40
1.570796326795
  9
$LOFTANG2
 40
1.570796326795
  9
$LOFTMAG1
 40
0.0
  9
$LOFTMAG2
 40
0.0
  9
$LOFTPARAM
 70
7
  9
$LOFTNORMALS
280
1
  9
$LATITUDE
 40
37.795
  9
$LONGITUDE
 40
-122.394
  9
$NORTHDIRECTION
 40
0.0
  9
$TIMEZONE
 70
-8000
  9
$LIGHTGLYPHDISPLAY
280
1
  9
$TILEMODELIGHTSYNCH
280
1
  9
$CMATERIAL
347
20
  9
$SOLIDHIST
280
0
  9
$SHOWHIST
280
1
  9
$DWFFRAME
280
2
  9
$DGNFRAME
280
2
  9
$REALWORLDSCALE
290
1
  9
$INTERFERECOLOR
 62
256
  9
$CSHADOW
280
0
  9
$SHADOWPLANELOCATION
 40
0.0
  0
ENDSEC
  0
SECTION
  2
CLASSES
  0
CLASS
  1
ACDBDICTIONARYWDFLT
  2
AcDbDictionaryWithDefault
  3
ObjectDBX Classes
 90
0
 91
0
280
0
281
0
  0
CLASS
  1
SUN
  2
AcDbSun
  3
SCENEOE
 90
1153
 91
0
280
0
281
0
  0
CLASS
  1
VISUALSTYLE
  2
AcDbVisualStyle
  3
ObjectDBX Classes
 90
4095
 91
0
280
0
281
0
  0
CLASS
  1
MATERIAL
  2
AcDbMaterial
  3
ObjectDBX Classes
 90
1153
 91
0
280
0
281
0
  0
CLASS
  1
SCALE
  2
AcDbScale
  3
ObjectDBX Classes
 90
1153
 91
0
280
0
281
0
  0
CLASS
  1
TABLESTYLE
  2
AcDbTableStyle
  3
ObjectDBX Classes
 90
4095
 91
0
280
0
281
0
  0
CLASS
  1
MLEADERSTYLE
  2
AcDbMLeaderStyle
  3
ACDB_MLEADERSTYLE_CLASS
 90
4095
 91
0
280
0
281
0
  0
CLASS
  1
DICTIONARYVAR
  2
AcDbDictionaryVar
  3
ObjectDBX Classes
 90
0
 91
0
280
0
281
0
  0
CLASS
  1
CELLSTYLEMAP
  2
AcDbCellStyleMap
  3
ObjectDBX Classes
 90
1152
 91
0
280
0
281
0
  0
CLASS
  1
MENTALRAYRENDERSETTINGS
  2
AcDbMentalRayRenderSettings
  3
SCENEOE
 90
1024
 91
0
280
0
281
0
  0
CLASS
  1
ACDBDETAILVIEWSTYLE
  2
AcDbDetailViewStyle
  3
ObjectDBX Classes
 90
1025
 91
0
280
0
281
0
  0
CLASS
  1
ACDBSECTIONVIEWSTYLE
  2
AcDbSectionViewStyle
  3
ObjectDBX Classes
 90
1025
 91
0
280
0
281
0
  0
CLASS
  1
RASTERVARIABLES
  2
AcDbRasterVariables
  3
ISM
 90
0
 91
0
280
0
281
0
  0
CLASS
  1
ACDBPLACEHOLDER
  2
AcDbPlaceHolder
  3
ObjectDBX Classes
 90
0
 91
0
280
0
281
0
  0
CLASS
  1
LAYOUT
  2
AcDbLayout
  3
ObjectDBX Classes
 90
0
 91
0
280
0
281
0
  0
ENDSEC
  0
SECTION
  2
TABLES
  0
TABLE
  2
VPORT
  5
8
330
0
100
AcDbSymbolTable
 70
1
  0
VPORT
  5
23
330
8
100
AcDbSymbolTableRecord
100
AcDbViewportTableRecord
  2
*Active
 70
0
 10
0.0
 20
0.0
 11
1.0
 21
1.0
 12
0.0
 22
0.0
 13
0.0
 23
0.0
 14
0.5
 24
0.5
 15
0.5
 25
0.5
 16
0.0
 26
0.0
 36
1.0
 17
0.0
 27
0.0
 37
0.0
 40
1000.0
 41
1.34
 42
50.0
 43
0.0
 44
0.0
 50
0.0
 51
0.0
 71
0
 72
1000
 73
1
 74
3
 75
0
 76
0
 77
0
 78
0
281
0
 65
0
146
0.0
  0
ENDTAB
  0
TABLE
  2
LTYPE
  5
2
330
0
100
AcDbSymbolTable
 70
21
  0
LTYPE
  5
24
330
2
100
AcDbSymbolTableRecord
100
AcDbLinetypeTableRecord
  2
ByBlock
 70
0
  3

 72
65
 73
0
 40
0.0
  0
LTYPE
  5
25
330
2
100
AcDbSymbolTableRecord
100
AcDbLinetypeTableRecord
  2
ByLayer
 70
0
  3

 72
65
 73
0
 40
0.0
  0
LTYPE
  5
26
330
2
100
AcDbSymbolTableRecord
100
AcDbLinetypeTableRecord
  2
Continuous
 70
0
  3

 72
65
 73
0
 40
0.0
  0
LTYPE
  5
2F
330
2
100
AcDbSymbolTableRecord
100
AcDbLinetypeTableRecord
  2
CENTER
 70
0
  3
Center ____ _ ____ _ ____ _ ____ _ ____ _ ____
 72
65
 73
4
 40
5.08
 49
3.175
 74
0
 49
-0.635
 74
0
 49
0.635
 74
0
 49
-0.635
 74
0
  0
LTYPE
  5
30
330
2
100
AcDbSymbolTableRecord
100
AcDbLinetypeTableRecord
  2
CENTERX2
 70
0
  3
Center (2x) ________  __  ________  __  ________
 72
65
 73
4
 40
8.89
 49
6.35
 74
0
 49
-0.635
 74
0
 49
1.27
 74
0
 49
-0.635
 74
0
  0
LTYPE
  5
31
330
2
100
AcDbSymbolTableRecord
100
AcDbLinetypeTableRecord
  2
CENTER2
 70
0
  3
Center (.5x) ____ _ ____ _ ____ _ ____ _ ____
 72
65
 73
4
 40
2.54
 49
1.587
 74
0
 49
-0.318
 74
0
 49
0.318
 74
0
 49
-0.318
 74
0
  0
LTYPE
  5
32
330
2
100
AcDbSymbolTableRecord
100
AcDbLinetypeTableRecord
  2
DASHED
 70
0
  3
Dashed __ __ __ __ __ __ __ __ __ __ __ __ __ _
 72
65
 73
2
 40
1.524
 49
1.27
 74
0
 49
-0.254
 74
0
  0
LTYPE
  5
33
330
2
100
AcDbSymbolTableRecord
100
AcDbLinetypeTableRecord
  2
DASHEDX2
 70
0
  3
Dashed (2x) ____  ____  ____  ____  ____  ____
 72
65
 73
2
 40
3.048
 49
2.54
 74
0
 49
-0.508
 74
0
  0
LTYPE
  5
34
330
2
100
AcDbSymbolTableRecord
100
AcDbLinetypeTableRecord
  2
DASHED2
 70
0
  3
Dashed (.5x) _ _ _ _ _ _ _ _ _ _ _ _ _ _
 72
65
 73
2
 40
0.762
 49
0.635
 74
0
 49
-0.127
 74
0
  0
LTYPE
  5
35
330
2
100
AcDbSymbolTableRecord
100
AcDbLinetypeTableRecord
  2
PHANTOM
 70
0
  3
Phantom ______  __  __  ______  __  __  ______
 72
65
 73
6
 40
6.35
 49
3.175
 74
0
 49
-0.635
 74
0
 49
0.635
 74
0
 49
-0.635
 74
0
 49
0.635
 74
0
 49
-0.635
 74
0
  0
LTYPE
  5
36
330
2
100
AcDbSymbolTableRecord
100
AcDbLinetypeTableRecord
  2
PHANTOMX2
 70
0
  3
Phantom (2x)____________    ____    ____    ____________
 72
65
 73
6
 40
10.795
 49
6.35
 74
0
 49
-0.635
 74
0
 49
1.27
 74
0
 49
-0.635
 74
0
 49
1.27
 74
0
 49
-0.635
 74
0
  0
LTYPE
  5
37
330
2
100
AcDbSymbolTableRecord
100
AcDbLinetypeTableRecord
  2
PHANTOM2
 70
0
  3
Phantom (.5x) ___ _ _ ___ _ _ ___ _ _ ___ _ _ ___
 72
65
 73
6
 40
3.175
 49
1.587
 74
0
 49
-0.318
 74
0
 49
0.318
 74
0
 49
-0.318
 74
0
 49
0.318
 74
0
 49
-0.318
 74
0
  0
LTYPE
  5
38
330
2
100
AcDbSymbolTableRecord
100
AcDbLinetypeTableRecord
  2
DASHDOT
 70
0
  3
Dash dot __ . __ . __ . __ . __ . __ . __ . __
 72
65
 73
4
 40
3.556
 49
2.54
 74
0
 49
-0.508
 74
0
 49
0.0
 74
0
 49
-0.508
 74
0
  0
LTYPE
  5
39
330
2
100
AcDbSymbolTableRecord
100
AcDbLinetypeTableRecord
  2
DASHDOTX2
 70
0
  3
Dash dot (2x) ____  .  ____  .  ____  .  ____
 72
65
 73
4
 40
6.096
 49
5.08
 74
0
 49
-0.508
 74
0
 49
0.0
 74
0
 49
-0.508
 74
0
  0
LTYPE
  5
3A
330
2
100
AcDbSymbolTableRecord
100
AcDbLinetypeTableRecord
  2
DASHDOT2
 70
0
  3
Dash dot (.5x) _ . _ . _ . _ . _ . _ . _ . _
 72
65
 73
4
 40
1.778
 49
1.27
 74
0
 49
-0.254
 74
0
 49
0.0
 74
0
 49
-0.254
 74
0
  0
LTYPE
  5
3B
330
2
100
AcDbSymbolTableRecord
100
AcDbLinetypeTableRecord
  2
DOT
 70
0
  3
Dot .  .  .  .  .  .  .  .  .  .  .  .  .  .  .  .
 72
65
 73
2
 40
0.508
 49
0.0
 74
0
 49
-0.508
 74
0
  0
LTYPE
  5
3C
330
2
100
AcDbSymbolTableRecord
100
AcDbLinetypeTableRecord
  2
DOTX2
 70
0
  3
Dot (2x) .    .    .    .    .    .    .    . 
 72
65
 73
2
 40
1.016
 49
0.0
 74
0
 49
-1.016
 74
0
  0
LTYPE
  5
3D
330
2
100
AcDbSymbolTableRecord
100
AcDbLinetypeTableRecord
  2
DOT2
 70
0
  3
Dot (.5) . . . . . . . . . . . . . . . . . . . 
 72
65
 73
2
 40
0.254
 49
0.0
 74
0
 49
-0.254
 74
0
  0
LTYPE
  5
3E
330
2
100
AcDbSymbolTableRecord
100
AcDbLinetypeTableRecord
  2
DIVIDE
 70
0
  3
Divide __ . . __ . . __ . . __ . . __ . . __
 72
65
 73
6
 40
4.064
 49
2.54
 74
0
 49
-0.508
 74
0
 49
0.0
 74
0
 49
-0.508
 74
0
 49
0.0
 74
0
 49
-0.508
 74
0
  0
LTYPE
  5
3F
330
2
100
AcDbSymbolTableRecord
100
AcDbLinetypeTableRecord
  2
DIVIDEX2
 70
0
  3
Divide (2x) ____  . .  ____  . .  ____  . .  ____
 72
65
 73
6
 40
6.604
 49
5.08
 74
0
 49
-0.508
 74
0
 49
0.0
 74
0
 49
-0.508
 74
0
 49
0.0
 74
0
 49
-0.508
 74
0
  0
LTYPE
  5
40
330
2
100
AcDbSymbolTableRecord
100
AcDbLinetypeTableRecord
  2
DIVIDE2
 70
0
  3
Divide(.5x) _ . _ . _ . _ . _ . _ . _ . _
 72
65
 73
6
 40
2.032
 49
1.27
 74
0
 49
-0.254
 74
0
 49
0.0
 74
0
 49
-0.254
 74
0
 49
0.0
 74
0
 49
-0.254
 74
0
  0
ENDTAB
  0
TABLE
  2
LAYER
  5
1
330
0
100
AcDbSymbolTable
 70
5
  0
LAYER
  5
27
330
1
100
AcDbSymbolTableRecord
100
AcDbLayerTableRecord
  2
0
 70
0
 62
7
  6
Continuous
370
-3
390
13
347
21
  0
LAYER
  5
28
330
1
100
AcDbSymbolTableRecord
100
AcDbLayerTableRecord
  2
Defpoints
 70
0
 62
7
  6
Continuous
290
0
370
-3
390
13
347
21
  0
LAYER
  5
8A
330
1
100
AcDbSymbolTableRecord
100
AcDbLayerTableRecord
  2
LOGO
 70
0
 62
7
  6
Continuous
370
-3
390
13
347
21
  0
LAYER
  5
8B
330
1
100
AcDbSymbolTableRecord
100
AcDbLayerTableRecord
  2
REF_100ER_KREIS
 70
0
 62
1
  6
Continuous
370
-3
390
13
347
21
  0
LAYER
  5
8C
330
1
100
AcDbSymbolTableRecord
100
AcDbLayerTableRecord
  2
REF_100ER_MITTE
 70
0
 62
1
  6
Continuous
370
-3
390
13
347
21
  0
ENDTAB
  0
TABLE
  2
STYLE
  5
5
330
0
100
AcDbSymbolTable
 70
26
  0
STYLE
  5
29
330
5
100
AcDbSymbolTableRecord
100
AcDbTextStyleTableRecord
  2
Standard
 70
0
 40
0.0
 41
1.0
 50
0.0
 71
0
 42
2.5
  3
txt
  4

  0
STYLE
  5
41
330
5
100
AcDbSymbolTableRecord
100
AcDbTextStyleTableRecord
  2
OpenSans-Light
 70
0
 40
0.0
 41
1.0
 50
0.0
 71
0
 42
2.5
  3
OpenSans-Light.ttf
  4

  0
STYLE
  5
42
330
5
100
AcDbSymbolTableRecord
100
AcDbTextStyleTableRecord
  2
OpenSans-Light-Italic
 70
0
 40
0.0
 41
1.0
 50
0.0
 71
0
 42
2.5
  3
OpenSans-LightItalic.ttf
  4

  0
STYLE
  5
43
330
5
100
AcDbSymbolTableRecord
100
AcDbTextStyleTableRecord
  2
OpenSans
 70
0
 40
0.0
 41
1.0
 50
0.0
 71
0
 42
2.5
  3
OpenSans-Regular.ttf
  4

  0
STYLE
  5
44
330
5
100
AcDbSymbolTableRecord
100
AcDbTextStyleTableRecord
  2
OpenSans-Italic
 70
0
 40
0.0
 41
1.0
 50
0.0
 71
0
 42
2.5
  3
OpenSans-Italic.ttf
  4

  0
STYLE
  5
45
330
5
100
AcDbSymbolTableRecord
100
AcDbTextStyleTableRecord
  2
OpenSans-SemiBold
 70
0
 40
0.0
 41
1.0
 50
0.0
 71
0
 42
2.5
  3
OpenSans-SemiBold.ttf
  4

  0
STYLE
  5
46
330
5
100
AcDbSymbolTableRecord
100
AcDbTextStyleTableRecord
  2
OpenSans-SemiBoldItalic
 70
0
 40
0.0
 41
1.0
 50
0.0
 71
0
 42
2.5
  3
OpenSans-SemiBoldItalic.ttf
  4

  0
STYLE
  5
47
330
5
100
AcDbSymbolTableRecord
100
AcDbTextStyleTableRecord
  2
OpenSans-Bold
 70
0
 40
0.0
 41
1.0
 50
0.0
 71
0
 42
2.5
  3
OpenSans-Bold.ttf
  4

  0
STYLE
  5
48
330
5
100
AcDbSymbolTableRecord
100
AcDbTextStyleTableRecord
  2
OpenSans-BoldItalic
 70
0
 40
0.0
 41
1.0
 50
0.0
 71
0
 42
2.5
  3
OpenSans-BoldItalic.ttf
  4

  0
STYLE
  5
49
330
5
100
AcDbSymbolTableRecord
100
AcDbTextStyleTableRecord
  2
OpenSans-ExtraBold
 70
0
 40
0.0
 41
1.0
 50
0.0
 71
0
 42
2.5
  3
OpenSans-ExtraBold.ttf
  4

  0
STYLE
  5
4A
330
5
100
AcDbSymbolTableRecord
100
AcDbTextStyleTableRecord
  2
OpenSans-ExtraBoldItalic
 70
0
 40
0.0
 41
1.0
 50
0.0
 71
0
 42
2.5
  3
OpenSans-ExtraBoldItalic.ttf
  4

  0
STYLE
  5
4B
330
5
100
AcDbSymbolTableRecord
100
AcDbTextStyleTableRecord
  2
OpenSansCondensed-Bold
 70
0
 40
0.0
 41
1.0
 50
0.0
 71
0
 42
2.5
  3
OpenSansCondensed-Bold.ttf
  4

  0
STYLE
  5
4C
330
5
100
AcDbSymbolTableRecord
100
AcDbTextStyleTableRecord
  2
OpenSansCondensed-Light
 70
0
 40
0.0
 41
1.0
 50
0.0
 71
0
 42
2.5
  3
OpenSansCondensed-Light.ttf
  4

  0
STYLE
  5
4D
330
5
100
AcDbSymbolTableRecord
100
AcDbTextStyleTableRecord
  2
OpenSansCondensed-Italic
 70
0
 40
0.0
 41
1.0
 50
0.0
 71
0
 42
2.5
  3
OpenSansCondensed-LightItalic.ttf
  4

  0
STYLE
  5
4E
330
5
100
AcDbSymbolTableRecord
100
AcDbTextStyleTableRecord
  2
LiberationSans
 70
0
 40
0.0
 41
1.0
 50
0.0
 71
0
 42
2.5
  3
LiberationSans-Regular.ttf
  4

  0
STYLE
  5
4F
330
5
100
AcDbSymbolTableRecord
100
AcDbTextStyleTableRecord
  2
LiberationSans-Bold
 70
0
 40
0.0
 41
1.0
 50
0.0
 71
0
 42
2.5
  3
LiberationSans-Bold.ttf
  4

  0
STYLE
  5
50
330
5
100
AcDbSymbolTableRecord
100
AcDbTextStyleTableRecord
  2
LiberationSans-BoldItalic
 70
0
 40
0.0
 41
1.0
 50
0.0
 71
0
 42
2.5
  3
LiberationSans-BoldItalic.ttf
  4

  0
STYLE
  5
51
330
5
100
AcDbSymbolTableRecord
100
AcDbTextStyleTableRecord
  2
LiberationSans-Italic
 70
0
 40
0.0
 41
1.0
 50
0.0
 71
0
 42
2.5
  3
LiberationSans-Italic.ttf
  4

  0
STYLE
  5
52
330
5
100
AcDbSymbolTableRecord
100
AcDbTextStyleTableRecord
  2
LiberationSerif
 70
0
 40
0.0
 41
1.0
 50
0.0
 71
0
 42
2.5
  3
LiberationSerif-Regular.ttf
  4

  0
STYLE
  5
53
330
5
100
AcDbSymbolTableRecord
100
AcDbTextStyleTableRecord
  2
LiberationSerif-Bold
 70
0
 40
0.0
 41
1.0
 50
0.0
 71
0
 42
2.5
  3
LiberationSerif-Bold.ttf
  4

  0
STYLE
  5
54
330
5
100
AcDbSymbolTableRecord
100
AcDbTextStyleTableRecord
  2
LiberationSerif-BoldItalic
 70
0
 40
0.0
 41
1.0
 50
0.0
 71
0
 42
2.5
  3
LiberationSerif-BoldItalic.ttf
  4

  0
STYLE
  5
55
330
5
100
AcDbSymbolTableRecord
100
AcDbTextStyleTableRecord
  2
LiberationSerif-Italic
 70
0
 40
0.0
 41
1.0
 50
0.0
 71
0
 42
2.5
  3
LiberationSerif-Italic.ttf
  4

  0
STYLE
  5
56
330
5
100
AcDbSymbolTableRecord
100
AcDbTextStyleTableRecord
  2
LiberationMono
 70
0
 40
0.0
 41
1.0
 50
0.0
 71
0
 42
2.5
  3
LiberationMono-Regular.ttf
  4

  0
STYLE
  5
57
330
5
100
AcDbSymbolTableRecord
100
AcDbTextStyleTableRecord
  2
LiberationMono-Bold
 70
0
 40
0.0
 41
1.0
 50
0.0
 71
0
 42
2.5
  3
LiberationMono-Bold.ttf
  4

  0
STYLE
  5
58
330
5
100
AcDbSymbolTableRecord
100
AcDbTextStyleTableRecord
  2
LiberationMono-BoldItalic
 70
0
 40
0.0
 41
1.0
 50
0.0
 71
0
 42
2.5
  3
LiberationMono-BoldItalic.ttf
  4

  0
STYLE
  5
59
330
5
100
AcDbSymbolTableRecord
100
AcDbTextStyleTableRecord
  2
LiberationMono-Italic
 70
0
 40
0.0
 41
1.0
 50
0.0
 71
0
 42
2.5
  3
LiberationMono-Italic.ttf
  4

  0
ENDTAB
  0
TABLE
  2
VIEW
  5
7
330
0
100
AcDbSymbolTable
 70
0
  0
ENDTAB
  0
TABLE
  2
UCS
  5
6
330
0
100
AcDbSymbolTable
 70
0
  0
ENDTAB
  0
TABLE
  2
APPID
  5
3
330
0
100
AcDbSymbolTable
 70
3
  0
APPID
  5
2A
330
3
100
AcDbSymbolTableRecord
100
AcDbRegAppTableRecord
  2
ACAD
 70
0
  0
APPID
  5
A0
330
3
100
AcDbSymbolTableRecord
100
AcDbRegAppTableRecord
  2
HATCHBACKGROUNDCOLOR
 70
0
  0
APPID
  5
A1
330
3
100
AcDbSymbolTableRecord
100
AcDbRegAppTableRecord
  2
EZDXF
 70
0
  0
ENDTAB
  0
TABLE
  2
DIMSTYLE
  5
4
330
0
100
AcDbSymbolTable
 70
12
100
AcDbDimStyleTable
  0
DIMSTYLE
105
2B
330
4
100
AcDbSymbolTableRecord
100
AcDbDimStyleTableRecord
  2
Standard
 70
0
 40
1.0
 41
2.5
 42
0.625
 43
3.75
 44
1.25
 45
0.0
 46
0.0
 47
0.0
 48
0.0
 49
2.5
140
2.5
141
2.5
142
0.0
143
0.03937007874
144
1.0
145
0.0
146
1.0
147
0.625
148
0.0
 69
0
 70
0
 71
0
 72
0
 73
0
 74
0
 75
0
 76
0
 77
1
 78
8
 79
3
170
0
171
3
172
1
173
0
174
0
175
0
176
0
177
0
178
0
179
2
271
2
272
2
273
2
274
3
275
0
276
0
277
2
278
44
279
0
280
0
281
0
282
0
283
0
284
8
285
0
286
0
288
0
289
3
290
0
371
-2
372
-2
  0
DIMSTYLE
105
73
330
4
100
AcDbSymbolTableRecord
100
AcDbDimStyleTableRecord
  2
EZDXF
 70
0
 40
1.0
 41
0.175
 42
0.125
 43
3.75
 44
0.375
 45
0.0
 46
0.0
 47
0.0
 48
0.0
 49
2.5
140
0.25
141
2.5
142
0.0
143
0.03937007874
144
100.0
145
0.0
146
0.5
147
0.1
148
0.0
 69
0
 70
0
 71
0
 72
0
 73
0
 74
0
 75
0
 76
0
 77
1
 78
12
 79
3
170
0
171
3
172
1
173
0
174
0
175
0
176
0
177
0
178
0
179
2
271
2
272
2
273
2
274
3
275
0
276
0
277
2
278
46
279
2
280
0
281
0
282
0
283
0
284
8
285
0
286
0
288
1
289
3
290
0
340
4C
342
74
371
-2
372
-2
  0
DIMSTYLE
105
7C
330
4
100
AcDbSymbolTableRecord
100
AcDbDimStyleTableRecord
  2
EZ_M_100_H25_CM
 70
0
 40
1.0
 41
0.25
 42
0.125
 43
3.75
 44
0.375
 45
0.0
 46
0.0
 47
0.0
 48
0.0
 49
2.5
140
0.25
141
2.5
142
0.125
143
0.03937007874
144
100.0
145
0.0
146
0.5
147
0.1
148
0.0
 69
0
 70
0
 71
0
 72
0
 73
0
 74
0
 75
0
 76
0
 77
1
 78
12
 79
3
170
0
171
3
172
1
173
0
174
0
175
0
176
0
177
0
178
0
179
2
271
2
272
2
273
2
274
3
275
0
276
0
277
2
278
46
279
2
280
0
281
0
282
0
283
0
284
8
285
0
286
0
288
1
289
3
290
0
340
4C
371
-2
372
-2
  0
DIMSTYLE
105
7D
330
4
100
AcDbSymbolTableRecord
100
AcDbDimStyleTableRecord
  2
EZ_M_50_H25_CM
 70
0
 40
1.0
 41
0.125
 42
0.0625
 43
3.75
 44
0.1875
 45
0.0
 46
0.0
 47
0.0
 48
0.0
 49
2.5
140
0.125
141
2.5
142
0.0625
143
0.03937007874
144
100.0
145
0.0
146
0.5
147
0.05
148
0.0
 69
0
 70
0
 71
0
 72
0
 73
0
 74
0
 75
0
 76
0
 77
1
 78
12
 79
3
170
0
171
3
172
1
173
0
174
0
175
0
176
0
177
0
178
0
179
2
271
2
272
2
273
2
274
3
275
0
276
0
277
2
278
46
279
2
280
0
281
0
282
0
283
0
284
8
285
0
286
0
288
1
289
3
290
0
340
4C
371
-2
372
-2
  0
DIMSTYLE
105
7E
330
4
100
AcDbSymbolTableRecord
100
AcDbDimStyleTableRecord
  2
EZ_M_25_H25_CM
 70
0
 40
1.0
 41
0.0625
 42
0.03125
 43
3.75
 44
0.09375
 45
0.0
 46
0.0
 47
0.0
 48
0.0
 49
2.5
140
0.0625
141
2.5
142
0.03125
143
0.03937007874
144
100.0
145
0.0
146
0.5
147
0.025
148
0.0
 69
0
 70
0
 71
0
 72
0
 73
0
 74
0
 75
0
 76
0
 77
1
 78
12
 79
3
170
0
171
3
172
1
173
0
174
0
175
0
176
0
177
0
178
0
179
2
271
2
272
2
273
2
274
3
275
0
276
0
277
2
278
46
279
2
280
0
281
0
282
0
283
0
284
8
285
0
286
0
288
1
289
3
290
0
340
4C
371
-2
372
-2
  0
DIMSTYLE
105
7F
330
4
100
AcDbSymbolTableRecord
100
AcDbDimStyleTableRecord
  2
EZ_M_20_H25_CM
 70
0
 40
1.0
 41
0.05
 42
0.025
 43
3.75
 44
0.07500000000000001
 45
0.0
 46
0.0
 47
0.0
 48
0.0
 49
2.5
140
0.05
141
2.5
142
0.025
143
0.03937007874
144
100.0
145
0.0
146
0.5
147
0.020000000000000004
148
0.0
 69
0
 70
0
 71
0
 72
0
 73
0
 74
0
 75
0
 76
0
 77
1
 78
12
 79
3
170
0
171
3
172
1
173
0
174
0
175
0
176
0
177
0
178
0
179
2
271
2
272
2
273
2
274
3
275
0
276
0
277
2
278
46
279
2
280
0
281
0
282
0
283
0
284
8
285
0
286
0
288
1
289
3
290
0
340
4C
371
-2
372
-2
  0
DIMSTYLE
105
80
330
4
100
AcDbSymbolTableRecord
100
AcDbDimStyleTableRecord
  2
EZ_M_10_H25_CM
 70
0
 40
1.0
 41
0.025
 42
0.0125
 43
3.75
 44
0.037500000000000006
 45
0.0
 46
0.0
 47
0.0
 48
0.0
 49
2.5
140
0.025
141
2.5
142
0.0125
143
0.03937007874
144
100.0
145
0.0
146
0.5
147
0.010000000000000002
148
0.0
 69
0
 70
0
 71
0
 72
0
 73
0
 74
0
 75
0
 76
0
 77
1
 78
12
 79
3
170
0
171
3
172
1
173
0
174
0
175
0
176
0
177
0
178
0
179
2
271
2
272
2
273
2
274
3
275
0
276
0
277
2
278
46
279
2
280
0
281
0
282
0
283
0
284
8
285
0
286
0
288
1
289
3
290
0
340
4C
371
-2
372
-2
  0
DIMSTYLE
105
81
330
4
100
AcDbSymbolTableRecord
100
AcDbDimStyleTableRecord
  2
EZ_M_5_H25_CM
 70
0
 40
1.0
 41
0.0125
 42
0.00625
 43
3.75
 44
0.018750000000000003
 45
0.0
 46
0.0
 47
0.0
 48
0.0
 49
2.5
140
0.0125
141
2.5
142
0.00625
143
0.03937007874
144
100.0
145
0.0
146
0.5
147
0.005000000000000001
148
0.0
 69
0
 70
0
 71
0
 72
0
 73
0
 74
0
 75
0
 76
0
 77
1
 78
12
 79
3
170
0
171
3
172
1
173
0
174
0
175
0
176
0
177
0
178
0
179
2
271
2
272
2
273
2
274
3
275
0
276
0
277
2
278
46
279
2
280
0
281
0
282
0
283
0
284
8
285
0
286
0
288
1
289
3
290
0
340
4C
371
-2
372
-2
  0
DIMSTYLE
105
82
330
4
100
AcDbSymbolTableRecord
100
AcDbDimStyleTableRecord
  2
EZ_M_1_H25_CM
 70
0
 40
1.0
 41
0.0025
 42
0.00125
 43
3.75
 44
0.00375
 45
0.0
 46
0.0
 47
0.0
 48
0.0
 49
2.5
140
0.0025
141
2.5
142
0.00125
143
0.03937007874
144
100.0
145
0.0
146
0.5
147
0.001
148
0.0
 69
0
 70
0
 71
0
 72
0
 73
0
 74
0
 75
0
 76
0
 77
1
 78
12
 79
3
170
0
171
3
172
1
173
0
174
0
175
0
176
0
177
0
178
0
179
2
271
2
272
2
273
2
274
3
275
0
276
0
277
2
278
46
279
2
280
0
281
0
282
0
283
0
284
8
285
0
286
0
288
1
289
3
290
0
340
4C
371
-2
372
-2
  0
DIMSTYLE
105
83
330
4
100
AcDbSymbolTableRecord
100
AcDbDimStyleTableRecord
  2
EZ_RADIUS
 70
0
 40
1.0
 41
0.25
 42
0.125
 43
3.75
 44
0.375
 45
0.0
 46
0.0
 47
0.0
 48
0.0
 49
2.5
140
0.25
141
0.0
142
0.0
143
0.03937007874
144
100.0
145
0.0
146
0.5
147
0.1
148
0.0
 69
0
 70
0
 71
0
 72
0
 73
0
 74
0
 75
0
 76
0
 77
1
 78
12
 79
3
170
0
171
3
172
0
173
0
174
0
175
0
176
0
177
0
178
0
179
2
271
2
272
2
273
2
274
3
275
0
276
0
277
2
278
46
279
1
280
0
281
0
282
0
283
0
284
8
285
0
286
0
288
1
289
3
290
0
340
4C
342
84
371
-2
372
-2
  0
DIMSTYLE
105
88
330
4
100
AcDbSymbolTableRecord
100
AcDbDimStyleTableRecord
  2
EZ_RADIUS_INSIDE
 70
0
 40
1.0
 41
0.25
 42
0.125
 43
3.75
 44
0.375
 45
0.0
 46
0.0
 47
0.0
 48
0.0
 49
2.5
140
0.25
141
0.0
142
0.0
143
0.03937007874
144
100.0
145
0.0
146
0.5
147
0.1
148
0.0
 69
0
 70
0
 71
0
 72
0
 73
0
 74
0
 75
0
 76
0
 77
0
 78
12
 79
3
170
0
171
3
172
0
173
0
174
1
175
0
176
0
177
0
178
0
179
2
271
2
272
2
273
2
274
3
275
0
276
0
277
2
278
46
279
0
280
0
281
0
282
0
283
0
284
8
285
0
286
0
288
1
289
0
290
0
340
4C
342
84
371
-2
372
-2
  0
DIMSTYLE
105
89
330
4
100
AcDbSymbolTableRecord
100
AcDbDimStyleTableRecord
  2
EZ_CURVED
 70
0
 40
1.0
 41
0.25
 42
0.125
 43
3.75
 44
0.375
 45
0.0
 46
0.0
 47
0.0
 48
0.0
 49
2.5
140
0.25
141
2.5
142
0.0
143
0.03937007874
144
100.0
145
0.0
146
0.5
147
0.1
148
0.0
 69
0
 70
0
 71
0
 72
0
 73
0
 74
0
 75
0
 76
0
 77
1
 78
12
 79
2
 90
2
170
0
171
3
172
1
173
0
174
0
175
0
176
0
177
0
178
0
179
2
271
2
272
2
273
2
274
3
275
0
276
0
277
2
278
46
279
2
280
0
281
0
282
0
283
0
284
8
285
0
286
0
288
1
289
3
290
0
340
4C
371
-2
372
-2
  0
ENDTAB
  0
TABLE
  2
BLOCK_RECORD
  5
9
330
0
100
AcDbSymbolTable
 70
5
  0
BLOCK_RECORD
  5
17
330
9
100
AcDbSymbolTableRecord
100
AcDbBlockTableRecord
  2
*Model_Space
340
1A
 70
0
280
1
281
0
  0
BLOCK_RECORD
  5
1B
330
9
100
AcDbSymbolTableRecord
100
AcDbBlockTableRecord
  2
*Paper_Space
340
1E
 70
0
280
1
281
0
  0
BLOCK_RECORD
  5
74
330
9
100
AcDbSymbolTableRecord
100
AcDbBlockTableRecord
  2
_ARCHTICK
340
0
 70
0
280
1
281
0
  0
BLOCK_RECORD
  5
78
330
9
100
AcDbSymbolTableRecord
100
AcDbBlockTableRecord
  2
_CLOSEDFILLED
340
0
 70
0
280
1
281
0
  0
BLOCK_RECORD
  5
84
330
9
100
AcDbSymbolTableRecord
100
AcDbBlockTableRecord
  2
_CLOSEDBLANK
340
0
 70
0
280
1
281
0
  0
ENDTAB
  0
ENDSEC
  0
SECTION
  2
BLOCKS
  0
BLOCK
  5
18
330
17
100
AcDbEntity
  8
0
100
AcDbBlockBegin
  2
*Model_Space
 70
0
 10
0.0
 20
0.0
 30
0.0
  3
*Model_Space
  1

  0
ENDBLK
  5
19
330
17
100
AcDbEntity
  8
0
100
AcDbBlockEnd
  0
BLOCK
  5
1C
330
1B
100
AcDbEntity
  8
0
100
AcDbBlockBegin
  2
*Paper_Space
 70
0
 10
0.0
 20
0.0
 30
0.0
  3
*Paper_Space
  1

  0
ENDBLK
  5
1D
330
1B
100
AcDbEntity
  8
0
100
AcDbBlockEnd
  0
BLOCK
  5
75
330
74
100
AcDbEntity
  8
0
100
AcDbBlockBegin
  2
_ARCHTICK
 70
0
 10
0.0
 20
0.0
 30
0.0
  3
_ARCHTICK
  1

  0
LWPOLYLINE
  5
77
330
74
100
AcDbEntity
  8
0
  6
BYBLOCK
 62
0
100
AcDbPolyline
 90
2
 70
0
 43
0.15
 10
-0.5
 20
-0.5
 10
0.5
 20
0.5
  0
ENDBLK
  5
76
330
74
100
AcDbEntity
  8
0
100
AcDbBlockEnd
  0
BLOCK
  5
79
330
78
100
AcDbEntity
  8
0
100
AcDbBlockBegin
  2
_CLOSEDFILLED
 70
0
 10
0.0
 20
0.0
 30
0.0
  3
_CLOSEDFILLED
  1

  0
SOLID
  5
7B
330
78
100
AcDbEntity
  8
0
  6
BYBLOCK
 62
0
100
AcDbTrace
 10
-1.0
 20
0.16439898372402537
 30
0.0
 11
0.0
 21
0.0
 31
0.0
 12
-1.0
 22
-0.16439898372402537
 32
0.0
 13
-1.0
 23
-0.16439898372402537
 33
0.0
  0
ENDBLK
  5
7A
330
78
100
AcDbEntity
  8
0
100
AcDbBlockEnd
  0
BLOCK
  5
85
330
84
100
AcDbEntity
  8
0
100
AcDbBlockBegin
  2
_CLOSEDBLANK
 70
0
 10
0.0
 20
0.0
 30
0.0
  3
_CLOSEDBLANK
  1

  0
LWPOLYLINE
  5
87
330
84
100
AcDbEntity
  8
0
  6
BYBLOCK
 62
0
100
AcDbPolyline
 90
3
 70
1
 10
-1.0
 20
0.16439898372402537
 10
0.0
 20
0.0
 10
-1.0
 20
-0.16439898372402537
  0
ENDBLK
  5
86
330
84
100
AcDbEntity
  8
0
100
AcDbBlockEnd
  0
ENDSEC
  0
SECTION
  2
ENTITIES
  0
LWPOLYLINE
  5
8D
330
17
100
AcDbEntity
  8
LOGO
100
AcDbPolyline
 90
16
 70
1
 10
291.33845724967307
 20
49.775567903020004
 10
292.93814390158957
 20
54.4123765627218
 10
297.73199686621973
 20
44.7415595017938
 10
298.98597231844207
 20
44.82289498822498
 10
292.7686863655864
 20
57.37758881595182
 10
290.62809976137186
 20
51.1945949955679
 10
287.7300080096334
 20
57.05076953545844
 10
283.1410877445487
 20
43.795162434147116
 10
284.3722866497075
 20
43.87502058580961
 10
287.89946554563653
 20
54.08555728222843
 10
290.0874364669881
 20
49.64867932246168
 10
288.17951302775657
 20
44.12196529980973
 10
289.4104588601702
 20
44.20180703664146
 10
290.7975408825442
 20
48.22963581508303
 10
292.6935715830119
 20
44.414756636131195
 10
293.9472939624891
 20
44.496075707731606
  0
LWPOLYLINE
  5
8E
330
17
100
AcDbEntity
  8
LOGO
100
AcDbPolyline
 90
68
 70
1
 10
234.79076182390543
 20
23.392198089408353
 10
234.97211791495099
 20
23.425054635066836
 10
235.2379797520258
 20
23.45195621617612
 10
235.55045208268035
 20
23.469428317141123
 10
235.72838406587883
 20
23.464958700900038
 10
235.7193838270965
 20
24.80266271507781
 10
235.73745642651605
 20
28.95542425345479
 10
235.75919858074025
 20
29.37641541803609
 10
236.51330766780507
 20
27.999871587761376
 10
238.14872798453578
 20
25.099756546568102
 10
238.93373236810947
 20
23.689637407848494
 10
238.9677917201859
 20
23.64254390464234
 10
238.98281736511402
 20
23.630303352417222
 10
238.99708107754333
 20
23.625891640461028
 10
239.01110541779494
 20
23.629088525690122
 10
239.02511062895238
 20
23.640416568425564
 10
239.03936619859164
 20
23.659639110752973
 10
239.07009760529417
 20
23.722625401403725
 10
239.6710494710555
 20
25.201038895890434
 10
240.99757084946327
 20
28.35629779442467
 10
241.4197878270757
 20
29.37354902668308
 10
241.5957904860317
 20
29.684847115310156
 10
242.13166814636952
 20
25.572336292971933
 10
242.24991748517164
 20
24.611234251224857
 10
242.31619204125107
 20
23.96951557163547
 10
242.3415127578323
 20
23.884751195083712
 10
242.57559005402302
 20
23.91975666181516
 10
242.88177253173066
 20
23.94800283729002
 10
243.2324424320722
 20
23.96820665044541
 10
243.38648708824195
 20
23.963712476583485
 10
243.38953365498142
 20
24.00685931162154
 10
243.3322742015075
 20
24.239239029959972
 10
243.26391263540967
 20
24.564421221898666
 10
243.18594684230783
 20
24.971066858398103
 10
243.0998911226525
 20
25.447583837673626
 10
242.90870939826357
 20
26.56533260939299
 10
242.4918113428209
 20
29.137355380579606
 10
242.10199181260808
 20
31.617103667013772
 10
242.0600219338608
 20
31.805746908913058
 10
242.0421825025885
 20
31.857450394550924
 10
242.01556346336935
 20
31.895623406617116
 10
241.99632722047454
 20
31.902253964240323
 10
241.97793498423235
 20
31.899790317868867
 10
241.95739912619325
 20
31.887276271298116
 10
241.9326225547893
 20
31.86178029085458
 10
241.88529640043848
 20
31.792126606149388
 10
241.82378162827777
 20
31.674791327844567
 10
241.54513173328405
 20
31.01832424594112
 10
241.3016988883128
 20
30.461476057675597
 10
241.00931882751485
 20
29.824703541421982
 10
240.78593779695112
 20
29.35835819944223
 10
239.0294500898031
 20
25.23871429300829
 10
239.00676518144041
 20
25.23190601576068
 10
236.42777618872907
 20
29.5849701081523
 10
236.1613656827047
 20
30.013193104315143
 10
235.41502481736057
 20
31.23470868108069
 10
235.29909746623292
 20
31.40381491385536
 10
235.2648438504507
 20
31.44606720524213
 10
235.23294169148792
 20
31.46382068484155
 10
235.21633737929253
 20
31.461218869540286
 10
235.2029764825552
 20
31.45171158051318
 10
235.18141592547443
 20
31.404060102311714
 10
235.16592213474297
 20
31.305974638218473
 10
235.04740563487638
 20
28.137579997554667
 10
234.99008026357808
 20
26.784137779692895
 10
234.93077981331217
 20
25.523835896593674
 10
234.8460798035771
 20
24.032146293786774
 10
234.8211094854699
 20
23.69226972629984
  0
LWPOLYLINE
  5
8F
330
17
100
AcDbEntity
  8
LOGO
100
AcDbPolyline
 90
90
 70
1
 10
248.24052638699672
 20
27.293896471521958
 10
248.2930658657478
 20
26.378089151880822
 10
248.32793161254182
 20
25.57803870177852
 10
248.3473083508779
 20
24.926670557462522
 10
248.3526266267945
 20
24.300058433699363
 10
248.38750684965973
 20
24.28732672905771
 10
248.7084797361381
 20
24.32263154026198
 10
249.10614594320754
 20
24.350966381673082
 10
250.26968265745955
 20
24.384757280178704
 10
251.00106831947215
 20
24.41643997156166
 10
251.809849133029
 20
24.46559541016282
 10
252.0288856619672
 20
24.48564774157289
 10
252.1523564679596
 20
24.505854915244814
 10
252.16493358884068
 20
24.53920028680838
 10
252.21969540302592
 20
24.897782264828358
 10
252.29228863494407
 20
25.275310447316137
 10
252.27888547324878
 20
25.31739031835457
 10
252.17644697698807
 20
25.266780163846025
 10
252.0582263318271
 20
25.2204832323091
 10
251.92194588305955
 20
25.17835179026692
 10
251.76382595433896
 20
25.1398865425129
 10
251.58157247612812
 20
25.105192828315317
 10
251.37164242999498
 20
25.07404084004348
 10
251.13099894299773
 20
25.046233599728236
 10
250.572552182867
 20
25.000862619747117
 10
250.299950442131
 20
24.987755571258745
 10
250.06162571154232
 20
24.982971100468518
 10
249.55968681243763
 20
24.99107627859705
 10
249.43422024737583
 20
25.00555648584156
 10
249.36402888002516
 20
25.025909195729522
 10
249.34946970064212
 20
25.03487621709845
 10
249.3327423418413
 20
25.057680165296837
 10
249.3152216426372
 20
25.108387774784873
 10
249.29741788454038
 20
25.198722465993292
 10
249.2566262545903
 20
25.54551562276074
 10
249.20394240287885
 20
26.193198572945114
 10
249.07177548485043
 20
28.168168711555115
 10
249.07254568938993
 20
28.183721052824655
 10
249.0825154371924
 20
28.20241147028394
 10
249.10649582467903
 20
28.216673760956272
 10
249.65613971174847
 20
28.244954834102835
 10
250.5926880101879
 20
28.283337232199223
 10
250.9074502743592
 20
28.289013403126724
 10
251.1293375553235
 20
28.28078724640296
 10
251.30066909629696
 20
28.264453326537954
 10
251.43492341209566
 20
28.23986933858152
 10
251.54456672655502
 20
28.206827318260494
 10
251.58645776241437
 20
28.199633098614
 10
251.57697141199029
 20
28.365477820841605
 10
251.5774329660112
 20
28.56602220279605
 10
251.59428983394918
 20
28.87817980815207
 10
251.61485761689536
 20
29.05868077699033
 10
251.46219994929976
 20
29.018282585975975
 10
251.2928764462061
 20
28.987985461410176
 10
251.05890448928363
 20
28.955274064215843
 10
250.7506344845551
 20
28.92003077631429
 10
250.24071203217028
 20
28.878823734820276
 10
249.08817907080822
 20
28.800764235007385
 10
249.0607158956858
 20
28.801016015246176
 10
249.04214723232556
 20
28.813026759840604
 10
249.03002442742982
 20
28.835366956757287
 10
249.02563339557537
 20
28.879556198174086
 10
248.85403831255522
 20
31.556437942280496
 10
248.86672620123127
 20
31.576321213858794
 10
248.88889539955662
 20
31.587162240198047
 10
249.25186737542597
 20
31.609688816531726
 10
249.95842592903594
 20
31.644081505998244
 10
250.32549217729965
 20
31.654420910619464
 10
250.60905398421062
 20
31.65527784233567
 10
251.0127514137045
 20
31.64156292810652
 10
251.22795617828996
 20
31.62273783148459
 10
251.38651504217015
 20
31.59566408852825
 10
251.4490882477885
 20
31.579137585215705
 10
251.54790824324573
 20
31.540564930183212
 10
251.54018125247794
 20
31.765483655562605
 10
251.54321734991592
 20
31.981189137111638
 10
251.55358428492258
 20
32.173989467214355
 10
251.57480879034992
 20
32.39138296206862
 10
251.24726144102434
 20
32.33989519574211
 10
251.04212064795496
 20
32.317186246761125
 10
250.76811808882672
 20
32.29433111531091
 10
248.3252068798858
 20
32.13587875395468
 10
248.0277875952942
 20
32.12141612479666
 10
247.84806083776516
 20
32.12221140395953
 10
247.83435238606782
 20
32.07888129151975
 10
247.86270571031986
 20
31.935607866345855
 10
247.9241929520951
 20
31.493076566284284
 10
247.95697530788854
 20
31.195320713036764
 10
248.0254410499989
 20
30.44929366823665
 10
248.09618664407645
 20
29.507474528863966
  0
LWPOLYLINE
  5
90
330
17
100
AcDbEntity
  8
LOGO
100
AcDbPolyline
 90
31
 70
1
 10
257.3205234102633
 20
27.88284418447132
 10
257.38098582374624
 20
26.86055889844473
 10
257.42389897363455
 20
25.948193393987758
 10
257.4451647100147
 20
25.240275123687773
 10
257.44398452245804
 20
24.87449479000096
 10
257.4526012746036
 20
24.86310923073252
 10
257.79299238887216
 20
24.908568359647344
 10
258.0762437357556
 20
24.933802349051863
 10
258.2760097703805
 20
24.941422708045017
 10
258.4933226128379
 20
24.941032241873874
 10
258.50176978814915
 20
24.947933579579363
 10
258.4797732686734
 20
25.051973878971154
 10
258.4438772650604
 20
25.28802651263082
 10
258.4059199723055
 20
25.60679425400958
 10
258.36686986542395
 20
25.993345811143524
 10
258.30108672026233
 20
26.748949940314137
 10
258.2274535377275
 20
27.754878558363792
 10
258.088577219188
 20
29.892061476331786
 10
258.03745898042956
 20
30.782038961136784
 10
257.9918075265685
 20
31.822820400916854
 10
257.9760788874315
 20
32.38268155075654
 10
257.9698475850227
 20
32.792201075145876
 10
257.7236556267262
 20
32.755901551047494
 10
257.49469316595116
 20
32.732155753465086
 10
257.1325788973018
 20
32.70815998515279
 10
256.9161169117807
 20
32.703268753337284
 10
256.9589731913892
 20
32.50095958319985
 10
256.99528499429795
 20
32.242823961389014
 10
257.0450638087162
 20
31.780981194562514
 10
257.08258307106587
 20
31.359259376136308
 10
257.17058621005276
 20
30.18272004790976
  0
LWPOLYLINE
  5
91
330
17
100
AcDbEntity
  8
LOGO
100
AcDbPolyline
 90
167
 70
1
 10
263.6653505301381
 20
25.547157235087685
 10
263.749225533064
 20
25.499991093024136
 10
263.8448636363659
 20
25.455621029967652
 10
263.9512197194017
 20
25.414487532085495
 10
264.06702841844555
 20
25.376508525223834
 10
264.1912446128554
 20
25.34212449554994
 10
264.4602456893757
 20
25.285364337282573
 10
264.7489481818295
 20
25.246146850827436
 10
265.0483139809982
 20
25.226681317304486
 10
265.34933780732456
 20
25.228670872343354
 10
265.48221741335954
 20
25.23703558574884
 10
265.7214806328157
 20
25.266532261126315
 10
265.9622965401613
 20
25.315189955528503
 10
266.2005667269816
 20
25.383505249898633
 10
266.31781747537053
 20
25.42516479786903
 10
266.54622338290727
 20
25.524099180139068
 10
266.6566193238197
 20
25.581324769946413
 10
266.76360085068274
 20
25.644174054923063
 10
266.8672007931579
 20
25.712140889578727
 10
266.9694998279825
 20
25.788409880332082
 10
267.11389799219023
 20
25.91696631109645
 10
267.24081500788844
 20
26.052521276044516
 10
267.35083909472127
 20
26.193842241112037
 10
267.4451138623154
 20
26.338970283660892
 10
267.52448060306006
 20
26.48668928445759
 10
267.5903359993272
 20
26.63505673569475
 10
267.64352134350605
 20
26.782856518138917
 10
267.68516383039247
 20
26.928382781897056
 10
267.7158845092922
 20
27.069896847414675
 10
267.7373003056607
 20
27.20597876720542
 10
267.75003226880364
 20
27.334889861714778
 10
267.7551747638554
 20
27.455430426540037
 10
267.7538714004426
 20
27.565641539043042
 10
267.7438542176568
 20
27.708325322815824
 10
267.7230192736462
 20
27.876737738176818
 10
267.6917850819699
 20
28.04091771221365
 10
267.6480614013437
 20
28.201746217260812
 10
267.5898072349756
 20
28.359345007417364
 10
267.51515258466503
 20
28.51511761533886
 10
267.4223095263651
 20
28.669202209955113
 10
267.3091714039608
 20
28.82273283634576
 10
267.17393387857464
 20
28.976100736185785
 10
267.01475978166735
 20
29.13020329664043
 10
266.82957528678554
 20
29.285668417299043
 10
266.6165596402208
 20
29.44314041258174
 10
266.3736390155198
 20
29.603247182077872
 10
265.49374359731985
 20
30.121542490658218
 10
265.2995085851584
 20
30.2441451201291
 10
265.13051790245214
 20
30.361523438895702
 10
264.9849343806623
 20
30.474574834123278
 10
264.8609044364188
 20
30.584449765722237
 10
264.7565744863519
 20
30.69229869360298
 10
264.6703768494984
 20
30.79878234701642
 10
264.60047435731894
 20
30.904798113127775
 10
264.5449970116132
 20
31.01174952459263
 10
264.50212405867273
 20
31.120280895831094
 10
264.47025498787275
 20
31.231559101584352
 10
264.4475362158434
 20
31.346734601762797
 10
264.4321634037072
 20
31.466198638041394
 10
264.4222241590548
 20
31.59592646731918
 10
264.4240986810277
 20
31.747259832899037
 10
264.44340510701784
 20
31.892353882530628
 10
264.4794334632821
 20
32.03040015348624
 10
264.5317268488223
 20
32.160606597868885
 10
264.5993058023195
 20
32.282401410865205
 10
264.68149317969215
 20
32.39446998425718
 10
264.7780687378564
 20
32.4962897577237
 10
264.88779994274825
 20
32.587272511620675
 10
265.0102463082003
 20
32.666373125305995
 10
265.14469786046936
 20
32.73278313605188
 10
265.2901751382366
 20
32.78593073904501
 10
265.4464743132488
 20
32.82504030121913
 10
265.6126487538487
 20
32.84903387227063
 10
265.794233230768
 20
32.85877872396657
 10
265.96972341095244
 20
32.85669210170012
 10
266.13345320502435
 20
32.84393131566539
 10
266.28561002640566
 20
32.82152507167375
 10
266.4263812885186
 20
32.79050207553658
 10
266.5559051602929
 20
32.75265025130068
 10
266.6746385427266
 20
32.70876164686304
 10
266.7830219219869
 20
32.65988138286578
 10
266.8809403942586
 20
32.607780968524956
 10
266.9685813729635
 20
32.55348910965195
 10
267.04665483184516
 20
32.497814268974494
 10
267.1741949648592
 20
32.38867529049652
 10
267.21337328837166
 20
32.36453204720863
 10
267.2061714429376
 20
32.534337008921135
 10
267.20397935215226
 20
32.80713844188966
 10
267.2129267274245
 20
33.139368154003066
 10
267.23161636938
 20
33.34490690978049
 10
267.21966999160225
 20
33.35277271573128
 10
266.7395734159646
 20
33.39634905063251
 10
266.35981126548546
 20
33.436776064538684
 10
266.133914500544
 20
33.44804594448795
 10
265.8863710975982
 20
33.448254555014344
 10
265.7107290479165
 20
33.440928241217925
 10
265.4481243268671
 20
33.414746198398866
 10
265.1594872352351
 20
33.35892052222928
 10
264.8933420807663
 20
33.27761515119628
 10
264.65033317788084
 20
33.172650839008206
 10
264.43081893859227
 20
33.046338070032945
 10
264.2349703614918
 20
32.899958622827036
 10
264.0636848337447
 20
32.73534966592954
 10
263.91708410945006
 20
32.554552196132484
 10
263.7955430154521
 20
32.35962362505855
 10
263.69973869583237
 20
32.151878560925816
 10
263.62979290468996
 20
31.933358000526233
 10
263.5863663712758
 20
31.705629624822983
 10
263.569564434858
 20
31.47098750335323
 10
263.577647123376
 20
31.256257347102927
 10
263.5961852835861
 20
31.095828355771413
 10
263.6255070828531
 20
30.93762363863363
 10
263.6671473724788
 20
30.781488611928985
 10
263.72215127310517
 20
30.626982789490235
 10
263.792306708779
 20
30.473968002387572
 10
263.8783728977359
 20
30.322493495113296
 10
263.9821541788533
 20
30.172168025992434
 10
264.1046792579426
 20
30.022804181602897
 10
264.24721349872965
 20
29.874484036098487
 10
264.411291752516
 20
29.72705300571863
 10
264.5979591399438
 20
29.580070604296104
 10
264.80900358505994
 20
29.433398662901066
 10
265.04545379367573
 20
29.286849768111438
 10
265.69207675939475
 20
28.909210171575495
 10
265.8809056052073
 20
28.791593773137524
 10
266.049193164454
 20
28.67721949765121
 10
266.19747841228667
 20
28.565614029287776
 10
266.32736185933015
 20
28.455610493306068
 10
266.4396847979736
 20
28.345992770472613
 10
266.53576183643514
 20
28.236083716705775
 10
266.61667092501835
 20
28.124936700347995
 10
266.68350642885775
 20
28.011352016996575
 10
266.7373134685954
 20
27.89488918048427
 10
266.7797089696868
 20
27.77412824332476
 10
266.8112647369453
 20
27.648089744198934
 10
266.8335320365033
 20
27.516366026601112
 10
266.8473685755808
 20
27.37748789855265
 10
266.85221069215464
 20
27.20880056708905
 10
266.84168788088107
 20
27.041912145976305
 10
266.81523518723037
 20
26.88161460254154
 10
266.7725502939652
 20
26.728650740189433
 10
266.7132980541864
 20
26.584269507814987
 10
266.6376494664855
 20
26.449752683974715
 10
266.544779653304
 20
26.326063315156922
 10
266.43487602806385
 20
26.214230107172995
 10
266.3073339562903
 20
26.115738666832296
 10
266.1621041934909
 20
26.03134821237029
 10
265.99908825068127
 20
25.962577180257856
 10
265.817714323048
 20
25.9104050318141
 10
265.61791675126796
 20
25.875844058019617
 10
265.4178839433305
 20
25.86058227217964
 10
265.24119405874325
 20
25.86157452931168
 10
265.0692510330112
 20
25.87558154997805
 10
264.90291257335434
 20
25.901134142200114
 10
264.74248099701015
 20
25.93748950257323
 10
264.5890342542822
 20
25.983700999439804
 10
264.44319339447617
 20
26.03802995324532
 10
264.3052443199988
 20
26.09998663333024
 10
264.17628139598446
 20
26.16837133529188
 10
264.0566397693321
 20
26.241935110235218
 10
263.9471443176002
 20
26.31971491167196
 10
263.8483668456022
 20
26.400731278283025
 10
263.7611486457273
 20
26.483768090834936
 10
263.68607793761964
 20
26.567592815263485
 10
263.6945709969066
 20
26.346535840384426
 10
263.6944922832693
 20
26.077399179947037
 10
263.68206069860435
 20
25.740114863214323
  0
LWPOLYLINE
  5
92
330
17
100
AcDbEntity
  8
LOGO
100
AcDbPolyline
 90
52
 70
1
 10
271.37540416535495
 20
32.85787694227969
 10
271.5426525494888
 20
32.91624872672645
 10
271.7487058520478
 20
32.96798853179303
 10
271.9970250173105
 20
33.01459152883584
 10
272.2907686723174
 20
33.05829569261601
 10
272.7585278870036
 20
33.1148116964321
 10
273.104107638801
 20
33.14688394923176
 10
273.55300672994287
 20
33.18464116200215
 10
274.19261048137656
 20
33.228668581622784
 10
274.48335952839966
 20
28.742178540758154
 10
274.52600913624127
 20
28.0023552679814
 10
274.558858831616
 20
27.31958555241558
 10
274.58011668370744
 20
26.72933240804332
 10
274.5876391999692
 20
26.268560870487416
 10
274.57961803475405
 20
25.972987026475657
 10
274.8325772978465
 20
26.01074204198524
 10
275.16751157951677
 20
26.04237794463801
 10
275.44504345650967
 20
26.05783787170285
 10
275.5507320892615
 20
26.058339622671536
 10
275.6400790471102
 20
26.05219039441654
 10
275.59711497247133
 20
26.354114451422166
 10
275.545498989514
 20
26.816854605413923
 10
275.47020454855556
 20
27.621144476374724
 10
275.4136098311022
 20
28.317368149135753
 10
275.36182633932066
 20
29.053041054742156
 10
275.0872226354847
 20
33.28669500837035
 10
275.6267504630318
 20
33.318131994294426
 10
276.16913046436196
 20
33.340859167615065
 10
276.6718792479514
 20
33.35161269127379
 10
277.0915736409024
 20
33.34986328391649
 10
277.3672532270318
 20
33.339026910600126
 10
277.581038044131
 20
33.31858488852272
 10
277.69461975471773
 20
33.299267605479166
 10
277.78894467155857
 20
33.27514336203476
 10
277.90097640851934
 20
33.2287869752053
 10
277.8987623451258
 20
33.47058221461934
 10
277.90605014223274
 20
33.714772726818424
 10
277.9221844991159
 20
33.944034661316955
 10
277.94628987196745
 20
34.1405216073083
 10
277.7870755781124
 20
34.10325606395697
 10
277.5357004108139
 20
34.06458724645136
 10
277.2209654185268
 20
34.027145663733904
 10
276.7524018771332
 20
33.983030224430195
 10
276.40160337240894
 20
33.95697290847482
 10
272.8590746709569
 20
33.72745118019805
 10
272.43937200596514
 20
33.70581940601692
 10
272.01307717078913
 20
33.69570450975031
 10
271.7069796107493
 20
33.70533032161056
 10
271.4859350439313
 20
33.731909034631286
 10
271.47156405347414
 20
33.52639625823169
 10
271.44356668547346
 20
33.276288005666544
 10
271.40914129559604
 20
33.03516590356443
  0
LWPOLYLINE
  5
93
330
17
100
AcDbEntity
  8
LOGO
100
AcDbPolyline
 90
91
 70
1
 10
282.6389331261327
 20
29.525049513335173
 10
282.6914726048838
 20
28.609242193694037
 10
282.72633835167784
 20
27.809191743591736
 10
282.7457150900139
 20
27.157823599275737
 10
282.7510333659305
 20
26.53121147551257
 10
282.7859135887957
 20
26.518479770870925
 10
283.10688647527405
 20
26.55378458207519
 10
283.5045526823435
 20
26.582119423486297
 10
284.6680893965955
 20
26.61591032199191
 10
285.3997281313533
 20
26.647609428205634
 10
286.20850894491014
 20
26.696764866806795
 10
286.4275454738483
 20
26.716817198216866
 10
286.5510162798407
 20
26.73702437188879
 10
286.5633403279767
 20
26.77035332862159
 10
286.6181021421619
 20
27.128935306641566
 10
286.69069537408006
 20
27.506463489129345
 10
286.67729221238477
 20
27.548543360167777
 10
286.57485371612404
 20
27.497933205659233
 10
286.45663307096305
 20
27.451636274122315
 10
286.3203526221955
 20
27.409504832080135
 10
286.1624857662201
 20
27.371055999156876
 10
285.9799792152641
 20
27.336345870128532
 10
285.77004916913097
 20
27.305193881856688
 10
285.5296587548789
 20
27.27740305637221
 10
284.970958922003
 20
27.232015661560325
 10
284.698357181267
 20
27.218908613071953
 10
284.46003245067834
 20
27.214124142281726
 10
283.9580935515736
 20
27.222229320410264
 10
283.83262698651174
 20
27.236709527654767
 10
283.7624356191611
 20
27.257062237542737
 10
283.74787643977805
 20
27.266029258911658
 10
283.7311490809773
 20
27.288833207110052
 10
283.71362838177316
 20
27.33954081659808
 10
283.69582462367634
 20
27.429875507806507
 10
283.65503299372625
 20
27.776668664573954
 10
283.6023491420148
 20
28.42435161475833
 10
283.4701822239864
 20
30.39932175336833
 10
283.4709524285259
 20
30.414874094637863
 10
283.48092217632836
 20
30.433564512097156
 10
283.504902563815
 20
30.447826802769487
 10
284.0545464508844
 20
30.47610787591605
 10
284.99109474932385
 20
30.51449027401243
 10
285.3061100862403
 20
30.5201828597707
 10
285.5279973672046
 20
30.511956703046934
 10
285.6993289081781
 20
30.495622783181922
 10
285.8333301512316
 20
30.471022380394736
 10
285.94322653843614
 20
30.43799677490447
 10
285.9851175742955
 20
30.430802555257976
 10
285.9756312238714
 20
30.59664727748558
 10
285.97583970514717
 20
30.797175244609264
 10
285.99269657308514
 20
31.109332849965277
 10
286.0132643560313
 20
31.289833818803537
 10
285.8606066884357
 20
31.249435627789182
 10
285.69153625808724
 20
31.21915491805415
 10
285.4573112284196
 20
31.18642710602905
 10
285.14929429643627
 20
31.151200232958267
 10
284.6393718440514
 20
31.109993191464252
 10
283.4868388826893
 20
31.03193369165136
 10
283.4591226348218
 20
31.032169057059384
 10
283.44055397146155
 20
31.04417980165382
 10
283.42843116656576
 20
31.066519998570495
 10
283.42404013471133
 20
31.1107092399873
 10
283.2524450516912
 20
33.78759098409371
 10
283.26513294036727
 20
33.807474255672005
 10
283.2873021386926
 20
33.818315282011255
 10
283.6502741145619
 20
33.840841858344945
 10
284.35683266817193
 20
33.87523454781146
 10
284.7238989164356
 20
33.88557395243267
 10
285.00746072334664
 20
33.886430884148886
 10
285.41115815284047
 20
33.872715969919724
 10
285.6263629174259
 20
33.8538908732978
 10
285.7849217813062
 20
33.82681713034147
 10
285.84749498692446
 20
33.81029062702891
 10
285.9463149823817
 20
33.771717971996424
 10
285.9385879916139
 20
33.99663669737581
 10
285.9416240890519
 20
34.21234217892484
 10
285.9519910240586
 20
34.405142509027556
 10
285.9732155294859
 20
34.62253600388182
 10
285.6456681801603
 20
34.571048237555324
 10
285.4405273870909
 20
34.54833928857434
 10
285.1665248279627
 20
34.52548415712412
 10
282.72361361902176
 20
34.367031795767886
 10
282.4261943344302
 20
34.352569166609875
 10
282.2464675769011
 20
34.35336444577274
 10
282.23275912520376
 20
34.310034333332965
 10
282.2611124494558
 20
34.16676090815906
 10
282.29132879237414
 20
33.97125600849952
 10
282.32285276397624
 20
33.72424602292826
 10
282.3891532994335
 20
33.07820869184056
 10
282.42384778913487
 20
32.680446710049864
 10
282.4945933832124
 20
31.73862757067718
  0
LWPOLYLINE
  5
94
330
17
100
AcDbEntity
  8
LOGO
100
AcDbPolyline
 90
100
 70
1
 10
291.5212803354365
 20
30.101177243458554
 10
291.57731888740346
 20
29.12358734433908
 10
291.61392719127105
 20
28.241817662667536
 10
291.6275255214266
 20
27.538484817178443
 10
291.6265428288416
 20
27.357729353838046
 10
291.6148528843256
 20
27.095209550456467
 10
291.6379768570985
 20
27.08349427281577
 10
291.87466695489456
 20
27.117398524129097
 10
292.2066464377769
 20
27.147572085086953
 10
292.50548566985475
 20
27.163651639700447
 10
292.66992272340644
 20
27.159577401154664
 10
292.67491864823705
 20
27.207933424572595
 10
292.6084220395651
 20
27.688514560844293
 10
292.56067866416146
 20
28.118976307272085
 10
292.5119874938446
 20
28.622822299509917
 10
292.46418156113316
 20
29.18746455962328
 10
292.38099094032447
 20
30.376006360403565
 10
292.38440548362445
 20
30.417398101056307
 10
292.39052575973705
 20
30.42491092352038
 10
292.4077251418602
 20
30.430092710765436
 10
293.31209765774065
 20
30.474774655606428
 10
293.8428308842672
 20
30.512502916234375
 10
293.87938141310053
 20
30.509282636640187
 10
293.9134695880688
 20
30.497007832996545
 10
293.968573657938
 20
30.45458312126145
 10
295.11250085345864
 20
29.066727921583325
 10
295.5100097625041
 20
28.60380487794173
 10
295.70146756625144
 20
28.390803319696357
 10
295.8835138556929
 20
28.197522306478625
 10
296.05278346127136
 20
28.028826315222403
 10
296.3024698397608
 20
27.803590925784988
 10
296.49771158512556
 20
27.64979468933749
 10
296.58959185543847
 20
27.588916088806865
 10
296.67904402330475
 20
27.538045494266914
 10
296.7676357696877
 20
27.496522176466797
 10
296.8569019458889
 20
27.46419155164591
 10
296.947920502212
 20
27.440106988146727
 10
297.0422262899588
 20
27.424113902208664
 10
297.1408644297713
 20
27.415771807664473
 10
297.2456720901886
 20
27.414183317348893
 10
297.35236344937397
 20
27.418816306393794
 10
297.66644042667355
 20
27.44681212338687
 10
297.89070398057936
 20
27.48423069949112
 10
298.01525415863244
 20
27.52305991703593
 10
297.9132960869855
 20
27.570832115331363
 10
297.7814481595265
 20
27.64843277538671
 10
297.62804536201486
 20
27.75665665936229
 10
297.453038449958
 20
27.89626298549357
 10
297.15088406831916
 20
28.166381304510832
 10
296.67991840385685
 20
28.625556338211737
 10
296.2932381130895
 20
29.031238411220315
 10
295.9047945851468
 20
29.46018676195201
 10
295.5193920661663
 20
29.90102268142207
 10
294.77397224085377
 20
30.77138004894354
 10
294.79012288331705
 20
30.953373474874873
 10
294.9704957647751
 20
31.11501393241696
 10
295.1337554742841
 20
31.281897829757433
 10
295.27968176876044
 20
31.453502606575267
 10
295.40822540371187
 20
31.630587481105884
 10
295.51941920879983
 20
31.81264630785899
 10
295.6132303543629
 20
32.000185232324895
 10
295.68965884040097
 20
32.1932042545036
 10
295.74845159416896
 20
32.391686959564325
 10
295.78986168841203
 20
32.59564976233784
 10
295.81360322072345
 20
32.805582393483704
 10
295.81967619110327
 20
33.02148485300189
 10
295.80922007315775
 20
33.22970762748503
 10
295.7849283208892
 20
33.40831546225881
 10
295.74633589050944
 20
33.58015056370985
 10
295.69450431749135
 20
33.74451937292579
 10
295.6302092349012
 20
33.901218061653715
 10
295.5540060327215
 20
34.04952024131973
 10
295.46692341676373
 20
34.18923849850174
 10
295.369737020094
 20
34.32016900494686
 10
295.263002232695
 20
34.44158537208119
 10
295.14751110246357
 20
34.55303069890668
 10
295.02452899312556
 20
34.654587059577196
 10
294.8941215640041
 20
34.745242163112096
 10
294.761228515903
 20
34.82328330933469
 10
294.6414049043552
 20
34.88006220894427
 10
294.51394258022407
 20
34.9292297971052
 10
294.37934768899964
 20
34.97081890347901
 10
294.23833020442527
 20
35.005637990793446
 10
294.09114319924606
 20
35.033703473879264
 10
293.9385294768667
 20
35.05531766997393
 10
293.7812318406918
 20
35.07078289631485
 10
293.454208602695
 20
35.08565899825721
 10
293.2854788770228
 20
35.08538860592685
 10
292.9412643996928
 20
35.07144866634052
 10
292.6065900410514
 20
35.043641684526555
 10
291.5753390261623
 20
34.94117333136893
 10
291.3093828361232
 20
34.92748077749979
 10
291.10239673172464
 20
34.92930346996767
 10
291.1004308295521
 20
34.877331918510876
 10
291.13019595850045
 20
34.75930967307608
 10
291.1589268238601
 20
34.61021557476372
 10
291.2141079271083
 20
34.22572685777921
 10
291.2660836145854
 20
33.737850427863705
 10
291.29102213703624
 20
33.45915439039294
 10
291.3639755904767
 20
32.50680468470851
  0
LWPOLYLINE
  5
95
330
17
100
AcDbEntity
  8
LOGO
100
AcDbPolyline
 90
56
 70
1
 10
292.33230455228113
 20
31.126620122520926
 10
292.12229462925495
 20
34.384001499511044
 10
292.1287938682321
 20
34.40526232436706
 10
292.1473776539167
 20
34.42044526731912
 10
292.18000490894707
 20
34.43069393799391
 10
292.26598811899566
 20
34.44897786220319
 10
292.4001208099459
 20
34.46936831327687
 10
292.69876720007505
 20
34.500175331601405
 10
292.9487045832995
 20
34.51791162086625
 10
293.0897084965571
 20
34.52248295735783
 10
293.2263308132566
 20
34.52016252069098
 10
293.35855511856744
 20
34.511203383610855
 10
293.4858752669991
 20
34.49557271645594
 10
293.6087809892112
 20
34.473556421632914
 10
293.7267497248828
 20
34.445374742225376
 10
293.8398143036752
 20
34.41052153274305
 10
293.94792548109626
 20
34.36975601142139
 10
294.0510996719767
 20
34.32282510551522
 10
294.1490673887406
 20
34.26996547293895
 10
294.24184504621877
 20
34.21092404094743
 10
294.32914674200447
 20
34.14619054020017
 10
294.4112255488429
 20
34.075781385527975
 10
294.48757532124364
 20
33.9996637472693
 10
294.55843271712126
 20
33.918107113000055
 10
294.62354466373057
 20
33.831095067889464
 10
294.68291116107144
 20
33.73862761193756
 10
294.73627913639876
 20
33.64068833031356
 10
294.7838688327963
 20
33.537799783338514
 10
294.8251905196044
 20
33.42967606860577
 10
294.86046443990665
 20
33.31683974643638
 10
294.8894703506195
 20
33.1987682565093
 10
294.9121754220814
 20
33.07596774431481
 10
294.9283265815472
 20
32.94842179502214
 10
294.937208426747
 20
32.83107811542597
 10
294.9399331594031
 20
32.742052603908874
 10
294.93508600205445
 20
32.56994129384884
 10
294.91653737254273
 20
32.4053278131791
 10
294.902645514193
 20
32.32564414987511
 10
294.86633668404886
 20
32.17233144005663
 10
294.8190937671075
 20
32.02695019551199
 10
294.73063540738093
 20
31.82349366747942
 10
294.66099219197724
 20
31.69826117531926
 10
294.58446405369887
 20
31.58122278572516
 10
294.4583143990261
 20
31.42208281098579
 10
294.32199401181214
 20
31.28261413678176
 10
294.20908776504865
 20
31.189646480868806
 10
294.1202167080415
 20
31.14144116369237
 10
293.99208383161107
 20
31.099075777999154
 10
293.8617732112159
 20
31.074612897888606
 10
293.66912190709644
 20
31.055255417897285
 10
293.2286344473408
 20
31.032783773083874
 10
292.82380155101026
 20
31.024823355667586
 10
292.4696762641678
 20
31.034383637455413
 10
292.3673473724463
 20
31.044773579075276
 10
292.34991275416576
 20
31.05889097978472
 10
292.33822087089015
 20
31.086341876096704
  0
LWPOLYLINE
  5
96
330
17
100
AcDbEntity
  8
LOGO
100
AcDbPolyline
 90
73
 70
1
 10
300.18757696399325
 20
35.52062047632427
 10
300.2610320391518
 20
35.41076893909042
 10
300.3387879292209
 20
35.2816277784491
 10
300.50409690756254
 20
34.97416998471676
 10
300.67727699113107
 20
34.61588696341769
 10
300.93922201693476
 20
34.02142257482556
 10
301.1542352320777
 20
33.492277063110805
 10
303.2281446644819
 20
28.21620897566947
 10
303.3862908310816
 20
27.84678532505704
 10
303.4291789063465
 20
27.765447641365057
 10
303.4649769379775
 20
27.718975187464544
 10
303.481488189715
 20
27.707339269714318
 10
303.49804597168145
 20
27.70282221848984
 10
303.5164546227544
 20
27.705032792116135
 10
303.53514646197067
 20
27.714631719844117
 10
303.55359892900924
 20
27.731839244757374
 10
303.5720486817844
 20
27.756924854431837
 10
303.6319862084348
 20
27.878986440740725
 10
303.7374088433779
 20
28.153939379794956
 10
303.9426799210883
 20
28.793702497262714
 10
305.20715983099393
 20
32.81535800683099
 10
305.5246552291126
 20
33.79760752062638
 10
305.6170438421766
 20
34.03842304022005
 10
308.03177272545685
 20
28.370217183159884
 10
308.1375716090011
 20
28.169195090855027
 10
308.2053510302347
 20
28.064566442568477
 10
308.2450573425949
 20
28.024446786674545
 10
308.26322519973314
 20
28.014697281955716
 10
308.2803944664581
 20
28.012507129929887
 10
308.3089301633575
 20
28.02706488755595
 10
308.3398571262722
 20
28.067445629734447
 10
308.3747170567875
 20
28.13730727871285
 10
308.4376190760237
 20
28.30378106378553
 10
308.4889152929078
 20
28.4611155363916
 10
310.22115441749963
 20
34.529691523824916
 10
310.3886024938659
 20
35.074749469080906
 10
310.5322504873827
 20
35.50873045182379
 10
310.6517509723406
 20
35.844827084462956
 10
310.7864892025203
 20
36.19283997948166
 10
310.7707905495309
 20
36.215456514257966
 10
310.47556813799815
 20
36.17496022201093
 10
310.20756681514683
 20
36.14969883147161
 10
309.9783718324777
 20
36.13737413708251
 10
309.8050444031842
 20
36.141380002041885
 10
309.7852061108272
 20
36.094602645891214
 10
309.7741936981447
 20
35.97444375819384
 10
309.7371595134317
 20
35.69909802645702
 10
309.64160878355966
 20
35.18183000193106
 10
309.54832911661157
 20
34.754928076518055
 10
309.35464148089324
 20
33.95225177049621
 10
309.1613028218918
 20
33.20296696341749
 10
308.9436621998217
 20
32.40127839075541
 10
308.24818559573635
 20
29.9156864245696
 10
305.8603875042091
 20
35.49389545158366
 10
305.7417065975336
 20
35.71720849631289
 10
305.68440022607876
 20
35.80142304065941
 10
305.65440503099853
 20
35.8289574328822
 10
305.64197848710836
 20
35.83247175767315
 10
305.6204043587108
 20
35.82421070327767
 10
305.5873077946214
 20
35.77809821239822
 10
305.47960892672893
 20
35.522566215397546
 10
303.6165699680849
 20
29.617303188735264
 10
303.5560257389494
 20
29.739682473107266
 10
303.118310188332
 20
30.865583599437265
 10
302.55043007053797
 20
32.34874576228804
 10
302.0837906833614
 20
33.59145301481939
 10
301.73649008859735
 20
34.573277552523834
 10
301.5329967241335
 20
35.19516802130586
 10
301.4292666262679
 20
35.55236469100993
 10
301.40273108295963
 20
35.608841014880795
 10
301.09510810691455
 20
35.56754039592638
 10
300.8066571361982
 20
35.54019018585978
 10
300.4426304751397
 20
35.52216967444652
  0
LWPOLYLINE
  5
97
330
17
100
AcDbEntity
  8
LOGO
100
AcDbPolyline
 90
90
 70
1
 10
315.4126128414004
 20
31.650819341649264
 10
315.46515232015145
 20
30.735012022008128
 10
315.5000180669455
 20
29.934961571905827
 10
315.51939480528154
 20
29.283593427589828
 10
315.5247130811982
 20
28.65698130382666
 10
315.55959330406336
 20
28.644249599185017
 10
315.8803131177966
 20
28.67953799555852
 10
316.27797932486607
 20
28.70787283696962
 10
317.44176911186315
 20
28.741680150306003
 10
318.1731547738758
 20
28.773362841688964
 10
318.98193558743264
 20
28.822518280290126
 10
319.2009721163708
 20
28.842570611700197
 10
319.32444292236323
 20
28.86277778537212
 10
319.3370200432443
 20
28.89612315693568
 10
319.3917818574296
 20
29.254705134955657
 10
319.4643750893477
 20
29.632233317443436
 10
319.45097192765246
 20
29.674313188481868
 10
319.34853343139173
 20
29.62370303397333
 10
319.23031278623074
 20
29.577406102436406
 10
319.0940323374632
 20
29.535274660394226
 10
318.9359124087426
 20
29.4968094126402
 10
318.75365893053174
 20
29.462115698442624
 10
318.54372888439866
 20
29.430963710170786
 10
318.3030853974014
 20
29.403156469855542
 10
317.74463863727067
 20
29.357785489874423
 10
317.47203689653463
 20
29.344678441386044
 10
317.233712165946
 20
29.339893970595817
 10
316.7317732668413
 20
29.347999148724355
 10
316.60630670177943
 20
29.36247935596886
 10
316.53611533442876
 20
29.382832065856828
 10
316.52155615504574
 20
29.39179908722575
 10
316.50482879624496
 20
29.414603035424143
 10
316.48730809704085
 20
29.46531064491218
 10
316.46950433894403
 20
29.555645336120598
 10
316.4287127089939
 20
29.902438492888045
 10
316.3760288572825
 20
30.55012144307242
 10
316.2438619392541
 20
32.52509158168242
 10
316.2446321437936
 20
32.54064392295196
 10
316.254601891596
 20
32.55933434041125
 10
316.2785822790827
 20
32.573596631083575
 10
316.8282261661521
 20
32.60187770423014
 10
317.76477446459154
 20
32.64026010232652
 10
318.07953672876283
 20
32.64593627325403
 10
318.3014240097271
 20
32.637710116530265
 10
318.4727555507006
 20
32.62137619666525
 10
318.6070098664993
 20
32.59679220870883
 10
318.71665318095864
 20
32.56375018838779
 10
318.758544216818
 20
32.55655596874131
 10
318.7490578663939
 20
32.72240069096891
 10
318.74951942041486
 20
32.922945072923355
 10
318.76637628835283
 20
33.235102678279375
 10
318.786944071299
 20
33.41560364711763
 10
318.6342864037034
 20
33.375205456103274
 10
318.46496290060975
 20
33.344908331537475
 10
318.23099094368723
 20
33.31219693434314
 10
317.9227209389588
 20
33.2769536464416
 10
317.41279848657393
 20
33.23574660494758
 10
316.2602655252119
 20
33.15768710513469
 10
316.23280235008946
 20
33.157938885373476
 10
316.21423368672924
 20
33.16994962996791
 10
316.2021108818334
 20
33.19228982688459
 10
316.197719849979
 20
33.23647906830139
 10
316.02612476695884
 20
35.9133608124078
 10
316.03881265563496
 20
35.9332440839861
 10
316.0609818539603
 20
35.944085110325354
 10
316.4239538298296
 20
35.966611686659036
 10
317.1305123834396
 20
36.00100437612555
 10
317.4975786317033
 20
36.01134378074676
 10
317.7811404386143
 20
36.01220071246298
 10
318.1848378681081
 20
35.998485798233816
 10
318.4000426326936
 20
35.97966070161189
 10
318.55860149657383
 20
35.95258695865556
 10
318.62117470219215
 20
35.936060455343004
 10
318.7199946976493
 20
35.897487800310515
 10
318.71226770688156
 20
36.122406525689904
 10
318.71530380431955
 20
36.338112007238934
 10
318.72567073932623
 20
36.53091233734165
 10
318.7468952447536
 20
36.748305832195925
 10
318.419347895428
 20
36.696818065869415
 10
318.21420710235856
 20
36.67410911688843
 10
317.9402045432304
 20
36.65125398543821
 10
315.4972933342894
 20
36.49280162408198
 10
315.1998740496978
 20
36.478338994923966
 10
315.0201472921688
 20
36.47913427408684
 10
315.00643884047145
 20
36.435804161647056
 10
315.0347921647235
 20
36.292530736473154
 10
315.09627940649875
 20
35.84999943641159
 10
315.12906176229217
 20
35.55224358316407
 10
315.19752750440256
 20
34.806216538363955
 10
315.26827309848005
 20
33.86439739899127
  0
LWPOLYLINE
  5
98
330
17
100
AcDbEntity
  8
LOGO
100
AcDbPolyline
 90
100
 70
1
 10
324.50298584721816
 20
32.240440062659914
 10
324.5590243991851
 20
31.262850163540442
 10
324.5956327030527
 20
30.3810804818689
 10
324.60923103320823
 20
29.677747636379806
 10
324.60391560080564
 20
29.348294874179352
 10
324.5963053233621
 20
29.23445595482707
 10
324.61968236888015
 20
29.222757092017133
 10
324.85637246667625
 20
29.25666134333046
 10
325.1883519495585
 20
29.286834904288316
 10
325.4871911816364
 20
29.302914458901803
 10
325.65137516244295
 20
29.298823805525267
 10
325.6566241600187
 20
29.347196243773958
 10
325.5898744786016
 20
29.82776096521489
 10
325.54213110319796
 20
30.258222711642688
 10
325.4934399328811
 20
30.762068703880512
 10
325.44563400016966
 20
31.326710963993875
 10
325.36244337936097
 20
32.51525276477416
 10
325.36585792266095
 20
32.5566445054269
 10
325.3722312715187
 20
32.56417374272174
 10
325.38943065364185
 20
32.5693555299668
 10
326.29380316952233
 20
32.61403747480779
 10
326.8245363960488
 20
32.65176573543574
 10
326.86083385213703
 20
32.64852904101078
 10
326.8951750998504
 20
32.63627065219791
 10
326.95027916971964
 20
32.59384594046281
 10
328.09420636524027
 20
31.20599074078469
 10
328.49171527428575
 20
30.743067697143093
 10
328.68317307803306
 20
30.53006613889772
 10
328.86521936747454
 20
30.336785125679988
 10
329.034488973053
 20
30.168089134423766
 10
329.28417535154244
 20
29.94285374498635
 10
329.47941709690724
 20
29.789057508538853
 10
329.571044294475
 20
29.72816249317746
 10
329.66049646234126
 20
29.677291898637517
 10
329.74934128146936
 20
29.63578499566816
 10
329.8383543849254
 20
29.603437956016514
 10
329.92962601399364
 20
29.579369807348083
 10
330.02367872899526
 20
29.56336030657926
 10
330.1225699415529
 20
29.555034626865837
 10
330.22737760197026
 20
29.553446136550257
 10
330.3340689611556
 20
29.558079125595157
 10
330.6481459384552
 20
29.586074942588233
 10
330.872409492361
 20
29.623493518692484
 10
330.9969596704141
 20
29.662322736237293
 10
330.8950015987671
 20
29.710094934532727
 10
330.7631536713082
 20
29.787695594588072
 10
330.6097508737965
 20
29.895919478563652
 10
330.4347439617397
 20
30.035525804694927
 10
330.1325895801008
 20
30.305644123712195
 10
329.6616239156385
 20
30.7648191574131
 10
329.2749436248712
 20
31.170501230421678
 10
328.8865000969285
 20
31.599449581153372
 10
328.501097577948
 20
32.04028550062343
 10
327.7556777526354
 20
32.910642868144905
 10
327.7718283950987
 20
33.092636294076236
 10
327.9522012765567
 20
33.25427675161832
 10
328.1154609860657
 20
33.4211606489588
 10
328.26138728054207
 20
33.59276542577663
 10
328.38993091549355
 20
33.76985030030724
 10
328.50112472058146
 20
33.951909127060354
 10
328.5949358661445
 20
34.13944805152626
 10
328.6713643521826
 20
34.33246707370496
 10
328.7301571059506
 20
34.53094977876569
 10
328.77156720019366
 20
34.734912581539206
 10
328.7953087325051
 20
34.94484521268507
 10
328.8013817028849
 20
35.16074767220325
 10
328.79092558493943
 20
35.36897044668639
 10
328.76663383267083
 20
35.547578281460176
 10
328.72804140229107
 20
35.71941338291121
 10
328.676209829273
 20
35.88378219212715
 10
328.6119147466828
 20
36.04048088085508
 10
328.5357115445031
 20
36.1887830605211
 10
328.44862892854536
 20
36.32850131770309
 10
328.35144253187565
 20
36.459431824148226
 10
328.2447077444766
 20
36.58084819128254
 10
328.1292166142452
 20
36.692293518108045
 10
328.0062345049072
 20
36.79384987877856
 10
327.8758270757857
 20
36.88450498231346
 10
327.74293402768467
 20
36.962546128536054
 10
327.62311041613685
 20
37.01932502814563
 10
327.4956480920057
 20
37.068492616306564
 10
327.36105320078127
 20
37.11008172268037
 10
327.21978264346177
 20
37.14488439516404
 10
327.07259563828256
 20
37.17294987824986
 10
326.92023498864836
 20
37.194580489175294
 10
326.7629373524735
 20
37.210045715516216
 10
326.4356610417315
 20
37.22490540262781
 10
326.2671843888045
 20
37.224651425128215
 10
325.92296991147447
 20
37.210711485541886
 10
325.5882955528331
 20
37.18290450372792
 10
324.5570445379439
 20
37.08043615057029
 10
324.2910883479048
 20
37.06674359670115
 10
324.08410224350627
 20
37.068566289169034
 10
324.0821363413338
 20
37.01659473771224
 10
324.1119014702821
 20
36.898572492277445
 10
324.1406323356417
 20
36.749478393965084
 10
324.1958134388899
 20
36.36498967698057
 10
324.247789126367
 20
35.87711324706507
 10
324.27272764881786
 20
35.5984172095943
 10
324.3456811022583
 20
34.646067503909876
  0
LWPOLYLINE
  5
99
330
17
100
AcDbEntity
  8
LOGO
100
AcDbPolyline
 90
56
 70
1
 10
325.31375699131763
 20
33.26586652689152
 10
325.10374706829145
 20
36.52324790388164
 10
325.1102463072686
 20
36.54450872873766
 10
325.1253855635057
 20
36.55794342758812
 10
325.16171042072875
 20
36.56995675719527
 10
325.2476936307773
 20
36.58824068140456
 10
325.38182632172754
 20
36.60863113247823
 10
325.6802196391115
 20
36.639421735972
 10
325.93015702233595
 20
36.65715802523685
 10
326.0711609355935
 20
36.661729361728426
 10
326.2077832522931
 20
36.659408925061584
 10
326.34000755760394
 20
36.65044978798146
 10
326.46758077878076
 20
36.6348355356573
 10
326.59023342824776
 20
36.61280282600351
 10
326.7084552366644
 20
36.58463756142674
 10
326.8215198154569
 20
36.54978435194441
 10
326.9296309928779
 20
36.50901883062275
 10
327.03280518375834
 20
36.462087924716585
 10
327.13077290052223
 20
36.40922829214031
 10
327.22355055800045
 20
36.350186860148796
 10
327.31085225378615
 20
36.28545335940154
 10
327.3929310606245
 20
36.21504420472934
 10
327.4692808330253
 20
36.138926566470666
 10
327.54013822890295
 20
36.05736993220142
 10
327.6052501755122
 20
35.97035788709083
 10
327.66461667285307
 20
35.87789043113892
 10
327.7179846481804
 20
35.779951149514915
 10
327.76557434457794
 20
35.67706260253988
 10
327.80689603138603
 20
35.568938887807136
 10
327.8421699516883
 20
35.45610256563774
 10
327.8711758624011
 20
35.33803107571066
 10
327.89388093386304
 20
35.21523056351617
 10
327.9100320933289
 20
35.087684614223505
 10
327.9189139385287
 20
34.97034093462733
 10
327.920925724677
 20
34.79435417349958
 10
327.9167915138361
 20
34.709204113050205
 10
327.8982428843244
 20
34.54459063238046
 10
327.8843510259747
 20
34.46490696907647
 10
327.8480421958305
 20
34.311594259257994
 10
327.80079927888914
 20
34.16621301471336
 10
327.74390405370735
 20
34.028592236851225
 10
327.6426977037589
 20
33.83752399452062
 10
327.5661695654805
 20
33.72048560492652
 10
327.4400199108078
 20
33.56134563018715
 10
327.30344645084864
 20
33.42186054115236
 10
327.19079327683033
 20
33.328909300070166
 10
327.1019222198231
 20
33.280703982893726
 10
326.97353627064757
 20
33.23832218236976
 10
326.8432256502524
 20
33.2138593022592
 10
326.6505743461329
 20
33.19450182226789
 10
326.21033995912245
 20
33.17204659228524
 10
325.8055070627919
 20
33.16408617486895
 10
325.4513817759494
 20
33.173646456656776
 10
325.349052884228
 20
33.18403639827664
 10
325.3316182659474
 20
33.198153798986084
 10
325.3209646530303
 20
33.22135170312279
  0
LWPOLYLINE
  5
9A
330
17
100
AcDbEntity
  8
LOGO
100
AcDbPolyline
 90
58
 70
1
 10
338.70626184243366
 20
31.334700333552632
 10
339.2925080878415
 20
30.80650726977404
 10
339.3890079051331
 20
30.725343169686116
 10
339.57167265886744
 20
30.585216997497113
 10
339.6588827159523
 20
30.525814439228796
 10
339.8272305059953
 20
30.42618404228428
 10
339.90914387201974
 20
30.385752375355214
 10
339.99044303902224
 20
30.350871893988725
 10
340.151754165944
 20
30.297038099369452
 10
340.2328112465053
 20
30.27764429994943
 10
340.3979007572672
 20
30.25175656082838
 10
340.56985063328295
 20
30.24156204617004
 10
340.75186189580205
 20
30.244727006492056
 10
340.9583761061288
 20
30.261934014402772
 10
341.17752211035565
 20
30.295971006119203
 10
341.3336502867766
 20
30.333798789736825
 10
341.4115297404537
 20
30.367313608884093
 10
341.2895789219398
 20
30.413789035549243
 10
341.1442223642666
 20
30.48416006128383
 10
340.9499244070454
 20
30.59989689697413
 10
340.7880717199591
 20
30.70909752800543
 10
340.5963127622301
 20
30.848379693541816
 10
340.37158468153865
 20
31.021865067112422
 10
340.11004899249906
 20
31.233879150499284
 10
339.80919823277424
 20
31.487817228657665
 10
338.99605986327765
 20
32.21502318360557
 10
337.96639035916974
 20
33.16173678605965
 10
337.17086730034276
 20
33.9190569759235
 10
336.91388019968286
 20
34.17456945607813
 10
336.8361515814979
 20
34.27194520492949
 10
337.3854921173248
 20
34.92004783192873
 10
339.1157857613446
 20
36.92026540200937
 10
339.43331360137296
 20
37.26336134433604
 10
339.77428556799936
 20
37.61331480840261
 10
340.0309607868748
 20
37.86021182891808
 10
340.3340550791382
 20
38.13197550853072
 10
339.8919848160949
 20
38.0829709054217
 10
339.580169078671
 20
38.055375894650666
 10
339.3241155553543
 20
38.041817373690975
 10
339.1195781042535
 20
38.04506957819225
 10
339.10718025400445
 20
38.03638716672365
 10
339.0590770448304
 20
37.94736863474089
 10
338.9695518503548
 20
37.807377270965176
 10
338.83989329941784
 20
37.62005458281318
 10
338.671373606029
 20
37.389295150446756
 10
338.3883634408322
 20
37.01946642834133
 10
337.65946365630043
 20
36.09922632889033
 10
337.28144974992284
 20
35.63860769483673
 10
336.7882696494126
 20
35.057173838356526
 10
336.3470243931785
 20
34.556620506069
 10
336.0761441416625
 20
34.26229496469905
 10
335.93895919694467
 20
34.12048297646562
 10
335.9261194387714
 20
34.09118676882447
 10
335.92593331785565
 20
34.06271130272147
 10
335.93307674200224
 20
34.03877744546378
 10
337.55917110834804
 20
32.426534352768044
 10
338.04790653798995
 20
31.951992969462697
 10
338.3764036209883
 20
31.64012579028561
  0
LWPOLYLINE
  5
9B
330
17
100
AcDbEntity
  8
LOGO
100
AcDbPolyline
 90
34
 70
1
 10
334.9726053141079
 20
32.91952161132947
 10
335.03306772759083
 20
31.897236325302877
 10
335.0759808774791
 20
30.984870820845906
 10
335.09749968660446
 20
30.27696896537669
 10
335.09606642630257
 20
29.911172216859107
 10
335.1056298101057
 20
29.900864607894334
 10
335.2091571137235
 20
29.919015791700524
 10
335.3853983693534
 20
29.94061266820995
 10
335.77640946117884
 20
29.973598593755003
 10
335.9496028575629
 20
29.979495395518036
 10
336.1456575894277
 20
29.977726083562782
 10
336.1538516919937
 20
29.98461100643751
 10
336.131855172518
 20
30.08865130582931
 10
336.095959168905
 20
30.32470393948897
 10
336.0580018761502
 20
30.643471680867734
 10
336.01895176926854
 20
31.03002323800168
 10
335.9531686241069
 20
31.785627367172292
 10
335.8795354415721
 20
32.79155598522194
 10
335.7406591230325
 20
34.92873890318994
 10
335.6895408842741
 20
35.81871638799493
 10
335.643889430413
 20
36.859497827775
 10
335.6281607912761
 20
37.41935897761469
 10
335.6250757078471
 20
37.796044704457465
 10
335.6199377365676
 20
37.82824103786763
 10
335.4593568757389
 20
37.80028994159459
 10
335.13644833173686
 20
37.76740095402649
 10
334.7635408594835
 20
37.74524649027366
 10
334.6629793409578
 20
37.744060744939624
 10
334.56754222239476
 20
37.75006909000147
 10
334.6106611392954
 20
37.54371075594162
 10
334.6471370905119
 20
37.28304440667927
 10
334.6970472235762
 20
36.81917705789157
 10
334.73463214524895
 20
36.39644294848476
 10
334.82266811389735
 20
35.219397474767916
  0
LWPOLYLINE
  5
9C
330
17
100
AcDbEntity
  8
LOGO
100
AcDbPolyline
 90
90
 70
1
 10
345.449563890607
 20
33.59907919009116
 10
345.50210336935805
 20
32.68327187045003
 10
345.5369691161521
 20
31.883221420347727
 10
345.5563458544882
 20
31.23185327603173
 10
345.5616641304048
 20
30.60524115226856
 10
345.59654435326996
 20
30.592509447626917
 10
345.91751723974835
 20
30.62781425883118
 10
346.3151834468178
 20
30.65614910024228
 10
347.47872016106976
 20
30.689939998747903
 10
348.21035889582754
 20
30.721639104961625
 10
349.0188866366392
 20
30.770778128732026
 10
349.2379231655774
 20
30.790830460142097
 10
349.3613939715699
 20
30.81103763381402
 10
349.3739710924509
 20
30.84438300537758
 10
349.4287329066362
 20
31.202964983397557
 10
349.5013261385543
 20
31.580493165885336
 10
349.48792297685907
 20
31.622573036923768
 10
349.38548448059834
 20
31.571962882415225
 10
349.26726383543735
 20
31.525665950878306
 10
349.1309833866698
 20
31.483534508836126
 10
348.9728634579492
 20
31.4450692610821
 10
348.79060997973835
 20
31.410375546884524
 10
348.58067993360527
 20
31.37922355861268
 10
348.340036446608
 20
31.351416318297442
 10
347.7815896864773
 20
31.306045338316324
 10
347.50898794574124
 20
31.292938289827944
 10
347.2706632151526
 20
31.288153819037717
 10
346.76872431604784
 20
31.296258997166248
 10
346.64325775098604
 20
31.31073920441076
 10
346.57306638363536
 20
31.331091914298728
 10
346.55850720425235
 20
31.34005893566765
 10
346.5417798454516
 20
31.362862883866036
 10
346.52425914624746
 20
31.413570493354072
 10
346.50645538815064
 20
31.503905184562498
 10
346.46566375820055
 20
31.850698341329945
 10
346.4129799064891
 20
32.49838129151432
 10
346.2808129884607
 20
34.473351430124325
 10
346.2815831930002
 20
34.48890377139385
 10
346.2915529408026
 20
34.50759418885315
 10
346.3155333282893
 20
34.52185647952548
 10
346.8651772153587
 20
34.55013755267204
 10
347.80172551379815
 20
34.58851995076842
 10
348.11648777796944
 20
34.59419612169592
 10
348.3383750589337
 20
34.585969964972165
 10
348.5097065999072
 20
34.56963604510715
 10
348.6439609157059
 20
34.54505205715073
 10
348.75360423016525
 20
34.51201003682969
 10
348.7954952660246
 20
34.50481581718321
 10
348.7860089156005
 20
34.67066053941081
 10
348.78647046962146
 20
34.87120492136525
 10
348.80332733755944
 20
35.183362526721275
 10
348.8238951205056
 20
35.36386349555953
 10
348.67123745291
 20
35.323465304545174
 10
348.50191394981636
 20
35.293168179979375
 10
348.26794199289384
 20
35.26045678278504
 10
347.9596719881654
 20
35.2252134948835
 10
347.44974953578054
 20
35.18400645338947
 10
346.2972165744185
 20
35.10594695357659
 10
346.26975339929606
 20
35.106198733815376
 10
346.25118473593585
 20
35.11820947840981
 10
346.23906193104
 20
35.14054967532648
 10
346.23467089918563
 20
35.18473891674329
 10
346.06307581616545
 20
37.8616206608497
 10
346.07576370484156
 20
37.88150393242799
 10
346.0979329031669
 20
37.89234495876725
 10
346.4609048790362
 20
37.914871535100936
 10
347.16746343264623
 20
37.94926422456745
 10
347.5345296809099
 20
37.95960362918866
 10
347.8180914878209
 20
37.96046056090488
 10
348.22178891731477
 20
37.94674564667572
 10
348.4369936819002
 20
37.927920550053784
 10
348.59555254578044
 20
37.90084680709745
 10
348.65812575139876
 20
37.884320303784904
 10
348.75694574685593
 20
37.84574764875242
 10
348.74921875608817
 20
38.070666374131804
 10
348.75225485352615
 20
38.28637185568084
 10
348.76262178853284
 20
38.479172185783554
 10
348.7838462939602
 20
38.69656568063782
 10
348.4562989446346
 20
38.645077914311315
 10
348.25115815156516
 20
38.62236896533033
 10
347.977155592437
 20
38.59951383388011
 10
345.534244383496
 20
38.44106147252388
 10
345.23682509890443
 20
38.426598843365866
 10
345.0570983413754
 20
38.42739412252873
 10
345.04338988967805
 20
38.38406401008895
 10
345.0717432139301
 20
38.240790584915054
 10
345.1332304557053
 20
37.79825928485349
 10
345.1660128114988
 20
37.50050343160597
 10
345.23447855360916
 20
36.754476386805855
 10
345.30522414768666
 20
35.81265724743317
  0
CIRCLE
  5
9D
330
17
100
AcDbEntity
  8
REF_100ER_KREIS
100
AcDbCircle
 10
286.1
 20
120.7
 30
0.0
 40
59.1
  0
LINE
  5
9E
330
17
100
AcDbEntity
  8
REF_100ER_MITTE
100
AcDbLine
 10
276.1
 20
120.7
 30
0.0
 11
296.1
 21
120.7
 31
0.0
  0
LINE
  5
9F
330
17
100
AcDbEntity
  8
REF_100ER_MITTE
100
AcDbLine
 10
286.1
 20
110.7
 30
0.0
 11
286.1
 21
130.7
 31
0.0
  0
ENDSEC
  0
SECTION
  2
OBJECTS
  0
DICTIONARY
  5
A
330
0
100
AcDbDictionary
281
1
  3
ACAD_COLOR
350
B
  3
ACAD_GROUP
350
C
  3
ACAD_LAYOUT
350
D
  3
ACAD_MATERIAL
350
E
  3
ACAD_MLEADERSTYLE
350
F
  3
ACAD_MLINESTYLE
350
10
  3
ACAD_PLOTSETTINGS
350
11
  3
ACAD_PLOTSTYLENAME
350
12
  3
ACAD_SCALELIST
350
14
  3
ACAD_TABLESTYLE
350
15
  3
ACAD_VISUALSTYLE
350
16
  3
EZDXF_META
350
2D
  0
DICTIONARY
  5
B
330
A
100
AcDbDictionary
281
1
  0
DICTIONARY
  5
C
330
A
100
AcDbDictionary
281
1
  0
DICTIONARY
  5
D
330
A
100
AcDbDictionary
281
1
  3
Model
350
1A
  3
Layout1
350
1E
  0
DICTIONARY
  5
E
330
A
100
AcDbDictionary
281
1
  3
ByBlock
350
1F
  3
ByLayer
350
20
  3
Global
350
21
  0
DICTIONARY
  5
F
330
A
100
AcDbDictionary
281
1
  3
Standard
350
2C
  0
DICTIONARY
  5
10
330
A
100
AcDbDictionary
281
1
  3
Standard
350
22
  0
DICTIONARY
  5
11
330
A
100
AcDbDictionary
281
1
  0
ACDBDICTIONARYWDFLT
  5
12
330
A
100
AcDbDictionary
281
1
  3
Normal
350
13
100
AcDbDictionaryWithDefault
340
13
  0
ACDBPLACEHOLDER
  5
13
330
12
  0
DICTIONARY
  5
14
330
A
100
AcDbDictionary
281
1
  0
DICTIONARY
  5
15
330
A
100
AcDbDictionary
281
1
  0
DICTIONARY
  5
16
330
A
100
AcDbDictionary
281
1
  3
2dWireframe
350
5A
  3
Basic
350
5B
  3
Brighten
350
5C
  3
ColorChange
350
5D
  3
Conceptual
350
5E
  3
Dim
350
5F
  3
EdgeColorOff
350
60
  3
Facepattern
350
61
  3
Flat
350
62
  3
FlatWithEdges
350
63
  3
Gouraud
350
64
  3
GouraudWithEdges
350
65
  3
Hidden
350
66
  3
JitterOff
350
67
  3
Linepattern
350
68
  3
Modeling
350
69
  3
OverhangOff
350
6A
  3
Realistic
350
6B
  3
Shaded
350
6C
  3
Shaded with edges
350
6D
  3
Shades of Gray
350
6E
  3
Sketchy
350
6F
  3
Thicken
350
70
  3
Wireframe
350
71
  3
X-Ray
350
72
  0
LAYOUT
  5
1A
330
D
100
AcDbPlotSettings
  1

  4
A3
  6

 40
7.5
 41
20.0
 42
7.5
 43
20.0
 44
420.0
 45
297.0
 46
0.0
 47
0.0
 48
0.0
 49
0.0
140
0.0
141
0.0
142
1.0
143
1.0
 70
1024
 72
1
 73
0
 74
5
  7

 75
16
 76
0
 77
2
 78
300
147
1.0
148
0.0
149
0.0
100
AcDbLayout
  1
Model
 70
1
 71
0
 10
0.0
 20
0.0
 11
420.0
 21
297.0
 12
0.0
 22
0.0
 32
0.0
 14
1e+20
 24
1e+20
 34
1e+20
 15
-1e+20
 25
-1e+20
 35
-1e+20
146
0.0
 13
0.0
 23
0.0
 33
0.0
 16
1.0
 26
0.0
 36
0.0
 17
0.0
 27
1.0
 37
0.0
 76
1
330
17
  0
LAYOUT
  5
1E
330
D
100
AcDbPlotSettings
  1

  4
A3
  6

 40
7.5
 41
20.0
 42
7.5
 43
20.0
 44
420.0
 45
297.0
 46
0.0
 47
0.0
 48
0.0
 49
0.0
140
0.0
141
0.0
142
1.0
143
1.0
 70
0
 72
1
 73
0
 74
5
  7

 75
16
 76
0
 77
2
 78
300
147
1.0
148
0.0
149
0.0
100
AcDbLayout
  1
Layout1
 70
1
 71
1
 10
0.0
 20
0.0
 11
420.0
 21
297.0
 12
0.0
 22
0.0
 32
0.0
 14
1e+20
 24
1e+20
 34
1e+20
 15
-1e+20
 25
-1e+20
 35
-1e+20
146
0.0
 13
0.0
 23
0.0
 33
0.0
 16
1.0
 26
0.0
 36
0.0
 17
0.0
 27
1.0
 37
0.0
 76
1
330
1B
  0
MATERIAL
  5
1F
102
{ACAD_REACTORS
330
E
102
}
330
E
100
AcDbMaterial
  1
ByBlock
  2

 70
0
 40
1.0
 71
1
 41
1.0
 91
-1023410177
 42
1.0
 72
1
  3

 73
1
 74
1
 75
1
 44
0.5
 73
0
 45
1.0
 46
1.0
 77
1
  4

 78
1
 79
1
170
1
 48
1.0
171
1
  6

172
1
173
1
174
1
140
1.0
141
1.0
175
1
  7

176
1
177
1
178
1
143
1.0
179
1
  8

270
1
271
1
272
1
145
1.0
146
1.0
273
1
  9

274
1
275
1
276
1
 42
1.0
 72
1
  3

 73
1
 74
1
 75
1
 94
63
  0
MATERIAL
  5
20
102
{ACAD_REACTORS
330
E
102
}
330
E
100
AcDbMaterial
  1
ByLayer
  2

 70
0
 40
1.0
 71
1
 41
1.0
 91
-1023410177
 42
1.0
 72
1
  3

 73
1
 74
1
 75
1
 44
0.5
 73
0
 45
1.0
 46
1.0
 77
1
  4

 78
1
 79
1
170
1
 48
1.0
171
1
  6

172
1
173
1
174
1
140
1.0
141
1.0
175
1
  7

176
1
177
1
178
1
143
1.0
179
1
  8

270
1
271
1
272
1
145
1.0
146
1.0
273
1
  9

274
1
275
1
276
1
 42
1.0
 72
1
  3

 73
1
 74
1
 75
1
 94
63
  0
MATERIAL
  5
21
102
{ACAD_REACTORS
330
E
102
}
330
E
100
AcDbMaterial
  1
Global
  2

 70
0
 40
1.0
 71
1
 41
1.0
 91
-1023410177
 42
1.0
 72
1
  3

 73
1
 74
1
 75
1
 44
0.5
 73
0
 45
1.0
 46
1.0
 77
1
  4

 78
1
 79
1
170
1
 48
1.0
171
1
  6

172
1
173
1
174
1
140
1.0
141
1.0
175
1
  7

176
1
177
1
178
1
143
1.0
179
1
  8

270
1
271
1
272
1
145
1.0
146
1.0
273
1
  9

274
1
275
1
276
1
 42
1.0
 72
1
  3

 73
1
 74
1
 75
1
 94
63
  0
MLINESTYLE
  5
22
102
{ACAD_REACTORS
330
10
102
}
330
10
100
AcDbMlineStyle
  2
Standard
 70
0
  3

 62
256
 51
90.0
 52
90.0
 71
2
 49
0.5
 62
256
  6
BYLAYER
 49
-0.5
 62
256
  6
BYLAYER
  0
MLEADERSTYLE
  5
2C
102
{ACAD_REACTORS
330
F
102
}
330
F
100
AcDbMLeaderStyle
179
2
170
2
171
1
172
0
 90
2
 40
0.0
 41
0.0
173
1
 91
-1056964608
 92
-2
290
1
 42
2.0
291
1
 43
8.0
  3
Standard
 44
4.0
300

342
29
174
1
175
1
176
0
178
1
 93
-1056964608
 45
4.0
292
0
297
0
 46
4.0
 94
-1056964608
 47
1.0
 49
1.0
140
1.0
294
1
141
0.0
177
0
142
1.0
295
0
296
0
143
3.75
271
0
272
9
273
9
  0
DICTIONARY
  5
2D
330
A
100
AcDbDictionary
280
1
281
1
  3
CREATED_BY_EZDXF
350
2E
  3
WRITTEN_BY_EZDXF
350
A2
  0
DICTIONARYVAR
  5
2E
330
2D
100
DictionaryVariables
280
0
  1
1.4.4 @ 2026-10-02T17:45:51.923940+00:00
  0
VISUALSTYLE
  5
5A
102
{ACAD_REACTORS
330
16
102
}
330
16
100
AcDbVisualStyle
  2
2dWireframe
 70
4
 90
0
 40
0.6
 62
7
290
0
291
0
  0
VISUALSTYLE
  5
5B
102
{ACAD_REACTORS
330
16
102
}
330
16
100
AcDbVisualStyle
  2
Basic
 70
7
 90
1
 40
0.6
 62
7
290
0
291
1
  0
VISUALSTYLE
  5
5C
102
{ACAD_REACTORS
330
16
102
}
330
16
100
AcDbVisualStyle
  2
Brighten
 70
12
 90
2
 40
0.6
 62
7
290
0
291
1
  0
VISUALSTYLE
  5
5D
102
{ACAD_REACTORS
330
16
102
}
330
16
100
AcDbVisualStyle
  2
ColorChange
 70
16
 90
2
 40
0.6
 62
8
290
0
291
1
  0
VISUALSTYLE
  5
5E
102
{ACAD_REACTORS
330
16
102
}
330
16
100
AcDbVisualStyle
  2
Conceptual
 70
9
 90
3
 40
0.6
 62
7
290
0
291
0
  0
VISUALSTYLE
  5
5F
102
{ACAD_REACTORS
330
16
102
}
330
16
100
AcDbVisualStyle
  2
Dim
 70
11
 90
2
 40
0.6
 62
7
290
0
291
1
  0
VISUALSTYLE
  5
60
102
{ACAD_REACTORS
330
16
102
}
330
16
100
AcDbVisualStyle
  2
EdgeColorOff
 70
22
 90
2
 40
0.6
 62
7
290
0
291
1
  0
VISUALSTYLE
  5
61
102
{ACAD_REACTORS
330
16
102
}
330
16
100
AcDbVisualStyle
  2
Facepattern
 70
15
 90
2
 40
0.6
 62
7
290
0
291
1
  0
VISUALSTYLE
  5
62
102
{ACAD_REACTORS
330
16
102
}
330
16
100
AcDbVisualStyle
  2
Flat
 70
0
 90
2
 40
0.6
 62
7
290
0
291
1
  0
VISUALSTYLE
  5
63
102
{ACAD_REACTORS
330
16
102
}
330
16
100
AcDbVisualStyle
  2
FlatWithEdges
 70
1
 90
2
 40
0.6
 62
7
290
0
291
1
  0
VISUALSTYLE
  5
64
102
{ACAD_REACTORS
330
16
102
}
330
16
100
AcDbVisualStyle
  2
Gouraud
 70
2
 90
2
 40
0.6
 62
7
290
0
291
1
  0
VISUALSTYLE
  5
65
102
{ACAD_REACTORS
330
16
102
}
330
16
100
AcDbVisualStyle
  2
GouraudWithEdges
 70
3
 90
2
 40
0.6
 62
7
290
0
291
1
  0
VISUALSTYLE
  5
66
102
{ACAD_REACTORS
330
16
102
}
330
16
100
AcDbVisualStyle
  2
Hidden
 70
6
 90
1
 40
0.6
 62
7
290
0
291
0
  0
VISUALSTYLE
  5
67
102
{ACAD_REACTORS
330
16
102
}
330
16
100
AcDbVisualStyle
  2
JitterOff
 70
20
 90
2
 40
0.6
 62
7
290
0
291
1
  0
VISUALSTYLE
  5
68
102
{ACAD_REACTORS
330
16
102
}
330
16
100
AcDbVisualStyle
  2
Linepattern
 70
14
 90
2
 40
0.6
 62
7
290
0
291
1
  0
VISUALSTYLE
  5
69
102
{ACAD_REACTORS
330
16
102
}
330
16
100
AcDbVisualStyle
  2
Modeling
 70
10
 90
2
 40
0.6
 62
7
290
0
291
0
  0
VISUALSTYLE
  5
6A
102
{ACAD_REACTORS
330
16
102
}
330
16
100
AcDbVisualStyle
  2
OverhangOff
 70
21
 90
2
 40
0.6
 62
7
290
0
291
1
  0
VISUALSTYLE
  5
6B
102
{ACAD_REACTORS
330
16
102
}
330
16
100
AcDbVisualStyle
  2
Realistic
 70
8
 90
2
 40
0.6
 62
7
290
0
291
0
  0
VISUALSTYLE
  5
6C
102
{ACAD_REACTORS
330
16
102
}
330
16
100
AcDbVisualStyle
  2
Shaded
 70
27
 90
2
 40
0.6
 62
7
290
0
291
0
  0
VISUALSTYLE
  5
6D
102
{ACAD_REACTORS
330
16
102
}
330
16
100
AcDbVisualStyle
  2
Shaded with edges
 70
26
 90
2
 40
0.6
 62
7
290
0
291
0
  0
VISUALSTYLE
  5
6E
102
{ACAD_REACTORS
330
16
102
}
330
16
100
AcDbVisualStyle
  2
Shades of Gray
 70
23
 90
2
 40
0.6
 62
7
290
0
291
0
  0
VISUALSTYLE
  5
6F
102
{ACAD_REACTORS
330
16
102
}
330
16
100
AcDbVisualStyle
  2
Sketchy
 70
24
 90
1
 40
0.6
 62
7
290
0
291
0
  0
VISUALSTYLE
  5
70
102
{ACAD_REACTORS
330
16
102
}
330
16
100
AcDbVisualStyle
  2
Thicken
 70
13
 90
2
 40
0.6
 62
7
290
0
291
1
  0
VISUALSTYLE
  5
71
102
{ACAD_REACTORS
330
16
102
}
330
16
100
AcDbVisualStyle
  2
Wireframe
 70
5
 90
0
 40
0.6
 62
7
290
0
291
0
  0
VISUALSTYLE
  5
72
102
{ACAD_REACTORS
330
16
102
}
330
16
100
AcDbVisualStyle
  2
X-Ray
 70
25
 90
2
 40
0.5
 62
7
290
0
291
0
  0
DICTIONARYVAR
  5
A2
330
2D
100
DictionaryVariables
280
0
  1
1.4.4 @ 2026-10-02T17:45:51.933062+00:00
  0
ENDSEC
  0
EOF
